<svg width="606" height="388" viewBox="0 0 606 388" fill="none" xmlns="http://www.w3.org/2000/svg">
<path d="M239 386C239 379.925 243.925 375 250 375H283V386H239V386Z" fill="#9E5C40"/>
<rect width="38.3375" height="97.3001" rx="19.1687" transform="matrix(0.971448 -0.237252 0.282043 0.959402 231 294.096)" fill="#9E5C40"/>
<path d="M371 386C371 379.925 366.075 375 360 375H327V386H371V386Z" fill="#9E5C40"/>
<rect width="38.5238" height="97.7728" rx="19.2619" transform="matrix(-0.971448 -0.237252 -0.282043 0.959402 379 294.14)" fill="#9E5C40"/>
<path d="M278.593 182.013C280.25 167.755 292.327 157 306.681 157V157C321.107 157 333.22 167.859 334.791 182.199L354.086 358.387C355.641 372.592 344.517 385 330.228 385H281.951C267.598 385 256.454 372.486 258.112 358.229L278.593 182.013Z" fill="#D69A6E"/>
<path d="M278 278C289.632 272.305 302.32 249.168 307 232V385.147C297.745 353.873 278.651 277.643 278 278Z" fill="#FCEEC0"/>
<path d="M334 276.579C323.011 270.809 311.421 249.394 307 232V385C315.744 353.314 333.385 276.217 334 276.579Z" fill="#FCEEC0"/>
<path d="M283 374H271C267.686 374 263 379.373 263 386H291C291 379.373 286.314 374 283 374Z" fill="#482712"/>
<path d="M271 386C271 383 271 378 273 377" stroke="black"/>
<path d="M282 386C282 383 282 378 280 377" stroke="black"/>
<path d="M339 374H327C323.686 374 319 379.373 319 386H347C347 379.373 342.314 374 339 374Z" fill="#482712"/>
<path d="M328 386C328 383 328 378 330 377" stroke="black"/>
<path d="M339 386C339 383 339 378 337 377" stroke="black"/>
<circle cx="305" cy="142.4" r="38.4" fill="#D69A6E"/>
<path d="M305 104V208C287.688 208 273.734 201.447 265 194.801C263.092 193.35 261.433 191.893 260.043 190.5C258.815 189.269 257.796 188.087 257 187L259 183.75L267 136.145L305 104Z" fill="#D69A6E"/>
<path d="M305 208C329.436 208 347.182 195.194 353 187.25L351 184L343 136.145L305 104V208Z" fill="#D69A6E"/>
<path d="M255 182C256.6 180.8 260.833 174.667 261.5 172C262 176 262.3 183.2 261.5 184C260.7 184.8 256.167 183.5 255 182Z" fill="#D69A6E"/>
<path d="M353.994 176C352.394 174.8 348.161 168.667 347.494 166C346.994 170 346.694 177.2 347.494 178C348.294 178.8 352.827 177.5 353.994 176Z" fill="#D69A6E"/>
<path d="M354.994 182C353.394 180.8 349.161 174.667 348.494 172C347.994 176 347.694 183.2 348.494 184C349.294 184.8 353.827 183.5 354.994 182Z" fill="#D69A6E"/>
<path d="M256 176C257.6 174.8 261.833 168.667 262.5 166C263 170 263.3 177.2 262.5 178C261.7 178.8 257.167 177.5 256 176Z" fill="#D69A6E"/>
<path d="M269 171C267.5 174.5 263 178 259 178" stroke="black"/>
<path d="M268.5 163.5C266.5 166.5 265 167.5 262 168.5" stroke="black"/>
<path d="M269 179C267.167 182 263 183.5 259 183.5" stroke="black"/>
<path d="M340 171C341.5 174.5 346 178 350 178" stroke="black"/>
<path d="M340.5 163.5C342.5 166.5 344 167.5 347 168.5" stroke="black"/>
<path d="M340 179C341.833 182 346 183.5 350 183.5" stroke="black"/>
<path d="M310 152.696C310 156.309 314.757 159.238 319.081 159.623C324.675 160.12 326 156.309 326 152.696C326 149.083 321.844 145 317.784 145C313.724 145 310 149.083 310 152.696Z" fill="#9E5C40"/>
<ellipse cx="293" cy="154.167" rx="3" ry="2.75" fill="black"/>
<ellipse cx="319" cy="154.167" rx="3" ry="2.75" fill="black"/>
<path d="M300.968 192.789C304.658 193.753 305.86 191.181 306 189.774V145H304.375C304.375 145 301.884 156.002 299.657 162.454C297.703 168.117 293 175.909 293 175.909L295.935 187.966C296.075 189.172 297.277 191.824 300.968 192.789Z" fill="#9E5C40"/>
<path d="M311.032 192.789C307.342 193.753 306.14 191.181 306 189.774V145H307.733C307.733 145 309.986 155.978 312.234 162.454C314.192 168.093 319 175.909 319 175.909L316.065 187.966C315.925 189.172 314.723 191.824 311.032 192.789Z" fill="#9E5C40"/>
<ellipse cx="306" cy="190" rx="8" ry="4" fill="black"/>
<path d="M286.709 80C291.209 80 290.709 113.957 290.709 113.957C279.224 116.849 270.077 138.37 267.928 140.5C257.591 135.873 277.209 80 286.709 80Z" fill="#482712"/>
<path d="M323.017 80C318.517 80 319.017 113.957 319.017 113.957C330.502 116.849 339.648 138.37 341.797 140.5C352.135 135.873 332.517 80 323.017 80Z" fill="#482712"/>
<path d="M4 385.282C4 380.864 7.58172 377.282 12 377.282H40V385.282H4V385.282Z" fill="#45484B"/>
<rect x="-3" y="303.282" width="32" height="88" rx="16" transform="rotate(-15 -3 303.282)" fill="#45484B"/>
<path d="M119.686 385.282C119.686 380.864 116.104 377.282 111.686 377.282H83.6858V385.282H119.686V385.282Z" fill="#45484B"/>
<rect width="32" height="88" rx="16" transform="matrix(-0.965926 -0.258819 -0.258819 0.965926 126.686 303.282)" fill="#45484B"/>
<path d="M36.5504 120.883C37.137 112.501 44.1083 106 52.5114 106H71.4886C79.8917 106 86.863 112.501 87.4496 120.883L104.802 368.883C105.45 378.137 98.1176 386 88.8413 386H35.1587C25.8824 386 18.5502 378.137 19.1977 368.883L36.5504 120.883Z" fill="#B8B6B7"/>
<path d="M32 275.879C44.6175 269.285 57.924 227.879 63 208V384C52.9607 347.787 32.7058 275.466 32 275.879Z" fill="#E5E5E2"/>
<path d="M93 275.879C80.7895 269.285 67.9123 227.879 63 208V384C72.7154 347.787 92.317 275.466 93 275.879Z" fill="#E5E5E2"/>
<path d="M32 374H20C16.6863 374 12 379.373 12 386H40C40 379.373 35.3137 374 32 374Z" fill="white"/>
<path d="M20 386C20 383 20 378 22 377" stroke="black"/>
<path d="M31 386C31 383 31 378 29 377" stroke="black"/>
<path d="M102 374H90C86.6863 374 82 379.373 82 386H110C110 379.373 105.314 374 102 374Z" fill="white"/>
<path d="M91 386C91 383 91 378 93 377" stroke="black"/>
<path d="M102 386C102 383 102 378 100 377" stroke="black"/>
<path d="M20.8941 64.0864C25.0517 45.8983 41.231 33 59.8883 33H62.6255C81.9531 33 98.5163 46.8197 101.978 65.8348L103.009 71.496C103.545 74.4396 103.245 77.4745 102.143 80.2561L85.6652 121.841C82.0396 130.991 73.1951 137 63.353 137H58.6471C48.805 137 39.9605 130.991 36.3349 121.841L20.0004 80.6175C18.8087 77.61 18.5567 74.3118 19.2776 71.1581L20.8941 64.0864Z" fill="#B8B6B7"/>
<path d="M21 58L41 4V41.4759L21 58Z" fill="#45484B"/>
<path d="M101 58L81 4V41.4759L101 58Z" fill="#45484B"/>
<path fill-rule="evenodd" clip-rule="evenodd" d="M54.7747 80.0385C55.3058 80.1902 55.6132 80.7437 55.4615 81.2747C55.1884 82.2307 54.2407 83.2864 52.6162 84.0849C50.9602 84.899 48.508 85.5 45 85.5C44.4477 85.5 44 85.0523 44 84.5C44 83.9477 44.4477 83.5 45 83.5C48.292 83.5 50.4231 82.9344 51.7338 82.2901C53.076 81.6303 53.4783 80.936 53.5385 80.7253C53.6902 80.1943 54.2437 79.8868 54.7747 80.0385Z" fill="black"/>
<path fill-rule="evenodd" clip-rule="evenodd" d="M68.2253 80.0385C67.6942 80.1902 67.3868 80.7437 67.5385 81.2747C67.8116 82.2307 68.7593 83.2864 70.3838 84.0849C72.0398 84.899 74.492 85.5 78 85.5C78.5523 85.5 79 85.0523 79 84.5C79 83.9477 78.5523 83.5 78 83.5C74.708 83.5 72.5769 82.9344 71.2662 82.2901C69.924 81.6303 69.5217 80.936 69.4615 80.7253C69.3098 80.1943 68.7563 79.8868 68.2253 80.0385Z" fill="black"/>
<path d="M38.0113 109.183C40.9672 95.5582 54.9021 93.7196 61.5 93V110.479C57.5867 110.479 56.7316 109.663 55.5 109.183C54.1804 110.863 54.2324 146 42.4925 146C38.0113 146 34.3165 126.215 38.0113 109.183Z" fill="#E5E5E2"/>
<path d="M84.9887 109.183C82.0328 95.5582 68.0979 93.7196 61.5 93V110.479C65.4133 110.479 66.2684 109.663 67.5 109.183C68.8196 110.863 68.7676 146 80.5075 146C84.9887 146 88.6835 126.215 84.9887 109.183Z" fill="#E5E5E2"/>
<path d="M61.5 93C55.1768 93.7091 41.3328 95.5745 38.5 109" stroke="black"/>
<path d="M61.5 99V106" stroke="black"/>
<path d="M55.5 111C55.5 108.239 58.1863 106 61.5 106" stroke="black"/>
<path d="M67.5 111C67.5 108.239 64.8137 106 61.5 106" stroke="black"/>
<path d="M61.5 93C68.2416 93.7091 82.4798 95.5745 85.5 109" stroke="black"/>
<path d="M55.5 111C55.5 115.73 54 124.243 53 128.5C51.7839 133.677 49.0263 146 41.5 146" stroke="black"/>
<path d="M67.5 111C67.5 115.73 69 124.243 70 128.5C71.2161 133.677 73.9737 146 81.5 146" stroke="black"/>
<ellipse cx="61.5" cy="95.5" rx="8" ry="3.5" fill="black"/>
<path d="M509 384C509 381.239 511.238 379 514 379H531V384H509V384Z" fill="black"/>
<rect width="20.223" height="48.4798" rx="10.1115" transform="matrix(0.974853 -0.222847 0.299646 0.95405 504.047 338.507)" fill="black"/>
<path d="M590.289 384C590.289 381.239 588.05 379 585.289 379H568.289V384H590.289V384Z" fill="black"/>
<rect width="20.223" height="48.4798" rx="10.1115" transform="matrix(-0.974853 -0.222847 -0.299646 0.95405 595.241 338.507)" fill="black"/>
<path d="M528.149 306.051C529.907 295.629 538.932 288 549.5 288V288C560.068 288 569.093 295.629 570.851 306.051L578.261 349.981C581.263 367.776 567.547 384 549.5 384V384C531.453 384 517.737 367.776 520.739 349.981L528.149 306.051Z" fill="black"/>
<path d="M528 336C537.14 333.471 546.109 323.623 549.786 316L549.846 384C542.574 370.114 528.511 335.842 528 336Z" fill="#45484B"/>
<path d="M571 335C562.365 332.438 553.259 323.723 549.786 316L549.846 384C556.716 369.931 570.517 334.839 571 335Z" fill="#45484B"/>
<path d="M538.344 374H527.938C525.064 374 521 378.477 521 384H545.281C545.281 378.477 541.218 374 538.344 374Z" fill="#45484B"/>
<path d="M527.07 384C527.07 381 527.07 376 529.094 375" stroke="black"/>
<path d="M538.199 384C538.199 381 538.199 376 536.176 375" stroke="black"/>
<path d="M571.344 374H560.938C558.064 374 554 378.477 554 384H578.281C578.281 378.477 574.218 374 571.344 374Z" fill="#45484B"/>
<path d="M560.07 384C560.07 381 560.07 376 562.094 375" stroke="black"/>
<path d="M571.199 384C571.199 381 571.199 376 569.176 375" stroke="black"/>
<path d="M524.226 239.457C524.226 231.456 528.04 230.047 531.969 231.068C537.47 225.453 541.865 232.521 541.214 237.46C544.921 239.061 544.936 248.69 541.214 249.459C543.685 254.26 542.244 258.127 541.214 259.46C542.45 264.261 540.7 266.795 539.67 267.461C540.906 272.262 539.155 276.129 538.126 277.463C540.597 285.464 538.126 288.798 536.582 289.465C535.346 297.466 530.919 298.132 528.86 297.466C523.918 303.867 520.624 300.133 519.594 297.466C511.873 297.466 511.873 289.465 511.873 287.464C505.695 281.063 508.269 272.796 510.328 269.462C507.857 261.461 513.416 255.46 516.505 253.459C514.034 243.858 520.623 240.124 524.226 239.457Z" fill="black"/>
<path d="M576.774 239.457C576.774 231.456 572.96 230.047 569.031 231.068C563.53 225.453 559.135 232.521 559.786 237.46C556.079 239.061 556.064 248.69 559.786 249.459C557.315 254.26 558.756 258.127 559.786 259.46C558.55 264.261 560.3 266.795 561.33 267.461C560.094 272.262 561.845 276.129 562.874 277.463C560.403 285.464 562.874 288.798 564.418 289.465C565.654 297.466 570.081 298.132 572.14 297.466C577.082 303.867 580.376 300.133 581.406 297.466C589.127 297.466 589.127 289.465 589.127 287.464C595.305 281.063 592.731 272.796 590.672 269.462C593.143 261.461 587.584 255.46 584.495 253.459C586.966 243.858 580.377 240.124 576.774 239.457Z" fill="black"/>
<path d="M529.887 265.518C527.358 252.831 537.064 241 550 241V241C562.936 241 572.642 252.831 570.113 265.518L560.823 312.122C559.794 317.283 555.263 321 550 321V321C544.737 321 540.206 317.283 539.177 312.122L529.887 265.518Z" fill="#45484B"/>
<path d="M540.645 225.049C543.318 219.878 547.995 220.74 550 221.817V262.215C550 262.215 542.775 261.599 537 263.5C532.378 265.021 529.689 269.41 526 267.5C523.103 266 522.603 262.215 522.603 262.215C517.792 260.922 518.817 255.751 519.931 253.327C517.792 248.803 520.821 246.056 522.603 245.248C521.534 240.077 524.831 237.168 526.613 236.36C526.613 231.836 531.067 230.705 533.295 230.705C534.364 224.241 538.64 224.241 540.645 225.049Z" fill="black"/>
<path d="M559.355 225.049C556.682 219.878 552.005 220.74 550 221.817V262.215C550 262.215 557.225 261.599 563 263.5C567.622 265.021 570.311 269.41 574 267.5C576.897 266 577.397 262.215 577.397 262.215C582.208 260.922 581.183 255.751 580.069 253.327C582.208 248.803 579.179 246.056 577.397 245.248C578.466 240.077 575.169 237.168 573.387 236.36C573.387 231.836 568.933 230.705 566.705 230.705C565.636 224.241 561.36 224.241 559.355 225.049Z" fill="black"/>
<path d="M536.184 238C533.591 241.935 527.784 249.403 528.006 257.798C528.284 268.291 532.61 267.484 533.999 266.5C535.914 265.144 538.437 259.765 536.499 259.765C533.863 259.765 535.368 267.197 540.225 266.979C544.671 266.78 547.635 259.5 544.999 259.5C542.776 259.5 544.442 267.307 549.999 267.307C555.557 267.307 557.445 260.093 554.673 260.093C551.901 260.093 555.896 267.307 559.675 267.307C563.558 267.307 565.722 260.093 563.499 260.093C560.258 260.093 562.451 268.9 568.751 267.307C573.937 265.996 574.243 251.407 563.499 238" stroke="black"/>
<ellipse cx="550" cy="310" rx="8" ry="4" fill="black"/>
<line x1="550.5" y1="314" x2="550.5" y2="318" stroke="black"/>
<path d="M555 316C554.5 317 552.8 318.5 550 318.5" stroke="black"/>
<path d="M545 316C545.5 317 547.2 318.5 550 318.5" stroke="black"/>
<circle cx="537" cy="282" r="3" fill="black"/>
<circle cx="563" cy="282" r="3" fill="black"/>
<path d="M532 271.5C538.4 270.7 542 273.167 543 274.5C546.6 278.9 544.5 280.5 543 279C541.8 278.2 537.833 280.667 536 282V280.5C533.6 280.5 530.333 283.5 529 285C529 284.2 530 282.333 530.5 281.5C529.3 280.7 523.667 282.167 521 283C521.4 279.4 526.167 277.833 528.5 277.5L525.5 275.5C527.5 273.5 532.333 274 534.5 274.5L532 271.5Z" fill="#45484B" stroke="black"/>
<path d="M567.988 271.5C561.588 270.7 557.988 273.167 556.988 274.5C553.388 278.9 555.488 280.5 556.988 279C558.188 278.2 562.154 280.667 563.988 282V280.5C566.388 280.5 569.654 283.5 570.988 285C570.988 284.2 569.988 282.333 569.488 281.5C570.688 280.7 576.321 282.167 578.988 283C578.588 279.4 573.821 277.833 571.488 277.5L574.488 275.5C572.488 273.5 567.654 274 565.488 274.5L567.988 271.5Z" fill="#45484B" stroke="black"/>
</svg>
