<svg width="309" height="262" viewBox="0 0 309 262" fill="none" xmlns="http://www.w3.org/2000/svg">
<path d="M293.404 44.6693C294.797 46.8208 295.347 49.4105 294.95 51.9426C294.867 52.4536 294.666 52.8616 294.095 52.8694C293.893 52.8648 293.522 52.639 293.527 52.5344C293.7 49.9109 292.304 47.3014 293.404 44.6693Z" fill="#474848"/>
<path d="M298.751 47.4914C298.838 48.1601 298.886 48.8335 298.894 49.5079C298.853 50.6562 300.065 52.5716 298.422 52.7327C297.172 52.8544 297.519 50.6188 297.286 49.4057C297.204 48.8168 297.2 48.2196 297.275 47.6297C297.288 47.5423 297.319 47.4584 297.365 47.3828C297.411 47.3072 297.471 47.2413 297.543 47.1891C297.614 47.1368 297.695 47.099 297.781 47.0781C297.867 47.0571 297.956 47.0533 298.044 47.0668C298.237 47.0675 298.424 47.2831 298.751 47.4914Z" fill="#474848"/>
<path d="M211.878 113.135C209.687 110.401 210.052 107.889 210.612 105.383C210.662 105.16 211.11 104.935 211.429 104.888C211.519 104.883 211.609 104.898 211.693 104.931C211.776 104.965 211.851 105.017 211.912 105.083C211.973 105.149 212.019 105.228 212.047 105.313C212.074 105.399 212.082 105.49 212.07 105.579C211.818 107.887 212.506 110.246 211.878 113.135Z" fill="#474848"/>
<path d="M206.876 110.831C208.926 112.767 208.926 112.767 208.616 115.836C206.792 114.49 206.912 112.644 206.876 110.831Z" fill="#474848"/>
<path d="M263.466 34.4839C265.26 34.9566 266.677 35.579 268.274 35.7683C270.805 36.0692 271.949 37.1362 272.04 39.6212C272.114 41.1765 272.903 41.4386 274.049 41.5896C276.454 41.8997 278.86 42.177 281.264 42.4871C281.977 42.5747 283.093 42.4002 283.288 43.0128C284.266 45.9791 287.63 45.9922 289.207 48.1161C289.809 48.9237 289.782 49.9578 289.829 50.9224C289.984 53.8296 289.912 56.7444 289.614 59.6404C288.441 70.4797 287.369 81.331 286.094 92.1525C285.265 99.1255 284.169 106.07 283.145 113.018C282.859 114.988 281.442 115.913 279.614 116.116C277.086 116.417 274.533 116.428 272.003 116.149C265.872 115.449 259.771 114.468 253.56 114.542C251.379 114.492 249.206 114.275 247.058 113.893C239.612 112.821 232.101 112.865 224.63 112.362C223.541 112.308 222.457 112.183 221.385 111.987C219.761 111.659 218.652 110.954 219.41 108.969C219.6 108.468 220.1 107.736 219.268 107.462C217.233 106.805 217.669 105.41 218.03 103.963C220.689 93.1107 221.7 81.9958 223.458 70.9958C224.949 61.6701 225.786 52.2376 227.978 43.0227C228.66 40.1413 229.841 39.0685 232.719 38.9967C233.927 38.9208 235.139 38.9527 236.342 39.092C239.249 39.5394 241.846 39.7281 242.917 36.0346C243.411 34.3436 245.237 34.4446 246.654 34.4609C248.834 34.4641 251.011 34.2985 253.165 33.9654C254.482 33.7762 255.189 33.2402 254.933 31.506C254.426 28.1269 256.11 26.5657 259.811 26.487C262.18 26.4348 264.643 29.4079 264.299 32.0619C264.1 32.8942 263.821 33.7054 263.466 34.4839V34.4839ZM263.13 36.9868L263.223 37.0142C260.291 35.827 260.255 35.8327 261.342 33.2626C261.531 32.8197 261.889 32.4374 261.977 31.9632C262.088 31.4252 262.031 30.8662 261.815 30.3612C261.599 29.8562 261.234 29.4292 260.769 29.1375C260.327 28.8085 259.794 28.6255 259.243 28.6139C258.693 28.6024 258.152 28.7629 257.697 29.0731C256.859 29.6204 256.963 30.405 257.092 31.3234C257.534 34.621 256.184 36.2975 252.857 36.3174C250.92 36.311 249.017 36.8547 247.078 36.3912C246.663 36.2912 246.231 36.2864 245.814 36.3769C245.398 36.4674 245.007 36.651 244.671 36.9139C242.282 38.8426 242.985 44.1047 245.846 45.2511C247.747 46.0579 249.798 46.4522 251.863 46.4078C255 46.2015 258.15 46.3034 261.268 46.7122C264.355 47.2163 267.187 46.5537 270.259 46.2308C269.404 44.3397 270.051 42.6822 270.052 41.0245C270.055 39.4887 269.763 38.1921 267.719 38.0342C266.169 37.7979 264.639 37.4465 263.142 36.983L263.13 36.9868ZM272.473 43.8115C272.396 44.3206 272.317 44.9014 272.218 45.482C271.813 47.8143 271.166 48.6081 269.008 48.5777C262.236 48.4951 255.452 48.5327 248.689 47.9893C245.446 47.717 241.767 46.905 241.37 42.3545C241.271 41.2716 240.33 41.1561 239.467 41.099C237.288 40.9853 235.11 40.8134 232.905 40.7538C230.296 40.6657 230.3 40.7936 229.679 43.5261C228.346 49.44 227.768 55.4726 226.676 61.4105C224.186 74.9858 223.36 88.8125 220.329 102.309C219.588 105.596 219.044 105.356 222.984 106.315C226.924 107.273 231.162 107.198 235.248 107.643C247.408 108.948 259.663 108.449 271.816 109.93C276.867 110.541 276.876 110.119 277.704 105.061C280.6 87.4573 281.917 69.7028 282.455 51.9089C282.519 49.6374 283.886 46.8202 282.098 45.1333C280.31 43.4464 277.481 44.0761 275.096 43.6886C274.245 43.4654 273.345 43.5098 272.52 43.8156L272.473 43.8115ZM221.874 108.228C221.759 108.466 221.506 108.775 221.513 109.089C221.52 109.402 221.636 109.912 221.816 110.008C222.384 110.223 222.982 110.348 223.588 110.378C228.152 110.705 232.72 111.024 237.293 111.283C238.857 111.373 240.448 111.075 241.99 111.527C245.995 112.683 250.17 112.455 254.245 112.73C259.523 113.092 264.87 113.193 270.141 114.003C272.78 114.326 275.445 114.392 278.098 114.198C280.442 114.07 281.342 112.832 281.599 110.871C282.522 103.892 284.085 97.032 284.753 90.0216C285.676 80.3803 286.823 70.7552 287.8 61.1217C288.169 57.5053 288.489 53.8791 287.955 50.2442C287.788 49.1126 287.455 48.4744 286.12 48.592C284.902 48.7099 284.406 49.2602 284.422 50.4416C284.431 50.6837 284.337 50.9274 284.338 51.1656C284.418 56.633 283.581 62.0547 283.507 67.5022C283.322 81.7494 280.543 95.6781 278.986 109.752C278.744 111.934 277.814 112.318 275.513 112.245C268.486 112.014 261.58 110.647 254.516 110.539C244.096 110.442 233.693 109.682 223.369 108.264C222.891 108.164 222.437 107.881 221.874 108.228Z" fill="#474848"/>
<path d="M246.867 55.0771C247.513 54.6512 248.043 54.7343 248.163 55.2944C248.554 57.242 249.422 56.5884 250.319 55.7509C251.304 54.8265 252.201 54.7694 253.038 55.9381C253.187 56.2033 253.422 56.4097 253.704 56.523C253.987 56.6363 254.3 56.6497 254.591 56.561C256.01 56.0932 257.422 55.8984 258.736 56.8904C258.787 56.9237 258.845 56.945 258.906 56.953C258.967 56.9609 259.028 56.9551 259.086 56.9362C261.803 55.3959 264.091 56.8405 266.535 57.8595C267.252 58.2077 268.046 58.3667 268.841 58.3212C269.637 58.2757 270.407 58.0273 271.08 57.5996C272.271 56.7941 273.124 57.6606 274.008 58.2271C274.217 58.3538 274.368 58.5578 274.428 58.7951C274.488 59.0323 274.453 59.2837 274.329 59.4947C274.228 59.6392 274.093 59.7565 273.936 59.8364C273.779 59.9162 273.605 59.9562 273.429 59.9527C270.753 59.113 268.035 60.6281 265.332 59.7651C264.446 59.4833 263.367 59.7682 262.902 58.6318C262.787 58.2828 262.375 57.8767 262.123 58.0888C259.645 60.1954 256.715 57.0794 254.219 58.8179C254.118 58.8829 254.003 58.9228 253.883 58.9342C253.764 58.9455 253.643 58.9281 253.531 58.8834C251.801 57.3129 250.235 57.9002 248.486 58.9731C247.526 59.5606 246.926 58.6232 246.821 57.6972C246.716 56.7711 246.149 55.8164 246.867 55.0771Z" fill="#474848"/>
<path d="M231.487 61.0044C233.387 59.411 233.011 57.5487 232.813 55.654C232.182 49.7103 233.455 48.723 239.242 50.5297C240.047 50.7803 240.861 51.0212 241.646 51.3104C243.358 51.9455 244.034 53.1736 243.826 54.9895C243.264 59.9532 241.12 61.6851 236.061 60.7736C234.557 60.5149 233.302 61.6185 231.487 61.0044ZM241.407 53.4011C240.171 52.3706 238.448 52.2487 236.838 51.7863C235.408 51.3613 234.832 52.1379 234.755 53.4468C234.683 54.2879 234.669 55.1329 234.711 55.976C234.897 58.4942 236.69 59.7667 239.112 59.2325C240.899 58.8433 242.537 54.9891 241.415 53.4244L241.407 53.4011Z" fill="#474848"/>
<path d="M274.951 76.21C273.688 77.3678 273.024 76.9937 272.421 76.5928C270.023 74.9716 267.496 74.7211 264.587 74.8547C262.348 74.948 260.043 73.728 257.812 75.1537C256.317 73.2412 255.096 74.8368 253.802 75.4697C253.131 75.8005 252.231 76.2197 251.789 75.6043C250.272 73.5251 248.4 74.555 246.607 74.9848C246.274 74.3858 246.112 73.7071 246.137 73.0224C246.163 72.3377 246.375 71.673 246.751 71.1004C248.374 73.0676 251.029 71.928 252.782 73.5102C252.879 73.5735 252.991 73.612 253.107 73.6222C253.222 73.6323 253.339 73.614 253.446 73.5686C255.665 71.3218 258.77 73.3675 261.163 71.9597C261.317 71.8673 261.489 71.8086 261.668 71.7875C261.847 71.7664 262.028 71.7834 262.199 71.8373C265.238 73.6795 268.68 72.7962 271.897 73.3801C273.488 73.6682 273.312 75.7184 274.951 76.21Z" fill="#474848"/>
<path d="M232.307 66.1315C232.921 65.7835 233.641 65.6721 234.332 65.8186C240.594 66.5075 242.193 68.6954 241.181 75.3095C240.815 77.7194 239.617 78.585 237.168 78.2573C235.624 78.0508 234.268 76.9888 232.591 77.3416C232.111 77.4484 231.736 77.0948 231.622 76.5134C231.102 73.539 230.955 70.5114 231.185 67.5008C231.221 67.1889 231.346 66.8939 231.545 66.6511C231.744 66.4083 232.008 66.2279 232.307 66.1315V66.1315ZM239.201 69.8301C238.551 68.877 234.718 67.4389 233.605 67.7412C233.366 67.7721 233.148 67.8953 232.998 68.0844C232.849 68.2734 232.779 68.5135 232.804 68.7533C232.845 70.549 233.017 72.3392 233.318 74.1098C233.725 75.9103 237.412 77.1388 238.698 76.0314C239.642 75.2173 239.989 70.9889 239.201 69.8301Z" fill="#474848"/>
<path d="M245.613 93.1548C245.209 91.3864 245.154 89.5563 245.449 87.7665C245.553 87.2614 245.793 86.8536 246.399 86.8924C247.005 86.9312 247.143 87.4081 247.137 87.9387C247.119 88.6474 246.776 89.3474 247.261 90.2708C249.198 89.6324 251.193 88.9166 253.002 90.5126C255.837 89.3329 258.717 92.4528 261.53 90.326C261.785 90.1522 262.086 90.0584 262.394 90.0567C262.702 90.055 263.004 90.1454 263.261 90.3163C263.817 90.6888 264.466 90.8987 265.134 90.9221C265.803 90.9456 266.465 90.7817 267.045 90.4489C268.015 89.9486 268.937 90.3216 269.813 90.7486C270.421 91.0256 271.599 90.8049 271.406 91.7648C271.213 92.7247 269.829 93.5354 269.165 92.9484C267.815 91.7684 266.699 92.4716 265.467 92.7618C264.519 92.9775 263.565 93.2338 262.71 92.4776C262.538 92.3279 262.204 92.0964 262.114 92.1581C259.589 93.8287 256.908 92.4041 254.322 92.6183C253.487 92.6871 252.577 93.1934 251.929 92.4205C250.656 90.9057 249.453 91.3665 248.149 92.2995C247.423 92.8596 246.53 93.1607 245.613 93.1548V93.1548Z" fill="#474848"/>
<path d="M231.479 92.6101C230.247 90.437 230.579 87.9225 230.312 85.5666C230.197 84.5147 231.277 83.9586 232.295 83.7586C234.215 83.4269 236.186 83.5502 238.049 84.1185C239.528 84.5534 240.37 85.7975 240.746 87.3113C241.123 88.8251 240.871 90.4491 240.814 92.0156C240.764 92.4939 240.572 92.9462 240.261 93.3133C238.354 95.7026 233.049 95.2588 231.479 92.6101ZM238.518 87.0657C237.622 85.6006 234.751 84.89 233.342 85.7801C232.179 86.5179 231.927 90.1153 232.93 91.9061C233.5 92.9306 236.514 93.4267 237.887 92.7225C239.261 92.0182 239.589 88.8083 238.518 87.0657Z" fill="#474848"/>
<path d="M263.142 36.983C263.152 37.9533 263.314 38.9899 261.792 38.9306C257.876 38.7898 253.993 39.5671 250.027 38.3338L263.229 37.0123L263.142 36.983Z" fill="#474848"/>
<path d="M253.018 41.3842C255.504 40.5133 257.741 40.9429 259.713 40.1768C259.828 40.1355 259.95 40.1232 260.071 40.141C260.191 40.1588 260.305 40.2062 260.402 40.2788C260.5 40.3515 260.578 40.4472 260.629 40.5574C260.68 40.6675 260.704 40.7887 260.697 40.9101C260.7 41.0319 260.679 41.1532 260.635 41.2668C260.591 41.3805 260.525 41.4843 260.441 41.5722C260.356 41.66 260.255 41.7302 260.143 41.7786C260.031 41.827 259.911 41.8526 259.789 41.8541C257.729 41.7078 255.587 42.485 253.018 41.3842Z" fill="#474848"/>
<g clip-path="url(#clip0_67:1700)">
<path d="M95.7469 168.977C95.7469 168.353 96.5202 168.455 96.4719 167.933C94.0021 167.933 91.5322 167.933 89.0576 167.933C88.1924 167.933 87.3224 168.068 86.4621 168.015C79.8356 167.575 73.2092 167.865 66.5779 167.952C62.7692 168 58.9509 167.585 55.1374 167.367C53.9146 167.295 52.6966 167.169 51.4738 167.077C49.7676 166.947 49.5404 166.782 49.2795 165.076C49.0426 163.51 48.917 161.93 48.7333 160.354C48.1146 154.994 47.3945 149.639 46.9015 144.269C46.4955 139.817 46.3553 135.346 46.0943 130.885C46.0508 130.175 46.1523 129.435 45.8865 128.768C45.1566 128.391 45.1421 129.638 44.48 129.368C44.596 127.676 45.0068 126.622 46.2876 124.805L47.6748 127.371C47.9696 127.913 48.5593 128.502 47.2301 128.498C46.9015 128.498 46.9353 129.237 46.9498 129.667C47.119 135.216 47.2156 140.784 48.1871 146.255C48.5013 148.024 48.4385 149.841 48.6705 151.635C49.2456 156.134 49.7048 160.649 50.1495 165.168C50.2365 166.009 50.5844 166.284 51.3529 166.318C57.7571 166.608 64.1322 167.372 70.5702 167.111C75.4035 166.918 80.2368 166.961 85.0701 167.145C88.1586 167.261 91.2664 167.067 94.3646 166.985C94.9107 166.985 95.5584 167.019 95.3699 166.052C95.2974 165.671 95.7614 165.487 96.1625 165.637C96.5749 165.766 96.9694 165.946 97.337 166.173C98.468 166.951 98.4535 167.807 97.279 168.484C96.8429 168.824 96.2999 168.999 95.7469 168.977Z" fill="#474848"/>
<path d="M90.8252 128.648C90.4337 128.474 89.9552 128.773 89.5589 128.411C89.6016 128.21 89.6767 128.017 89.7812 127.841C90.7479 126.69 92.976 125.627 93.5173 126.173C94.571 127.241 94.8562 128.633 94.484 130.354C93.3627 129.465 94.2133 127.937 92.9808 127.169C91.4729 128.957 90.5207 131.127 89.4187 133.191C87.6835 136.439 86.5525 139.958 85.1509 143.341C84.3824 145.202 84.3534 145.274 82.5167 144.491C82.1204 144.327 81.7241 144.148 81.3374 143.96C80.6027 143.602 80.1436 143.776 79.8246 144.564C78.8579 146.903 77.6883 149.136 76.9633 151.567C76.6725 152.61 76.3224 153.634 75.9144 154.637C75.1314 156.464 74.0536 156.768 72.3088 155.758C70.7815 154.878 70.7815 154.873 69.9695 156.362L67.4803 160.92C66.7166 162.317 66.4798 162.37 65.2957 161.195C64.1115 160.021 63.0578 158.75 61.951 157.517C61.7348 157.189 61.404 156.953 61.023 156.855C58.9261 158.701 56.9621 160.692 55.1457 162.814C54.5899 162.114 55.1457 161.804 55.426 161.442C56.9292 159.392 59.0172 157.894 60.6363 155.951C61.1535 155.328 61.603 155.502 62.009 156.106C63.0252 157.514 64.1568 158.835 65.3923 160.055C66.4122 161.123 66.5137 161.108 67.2193 159.871C68.1473 158.247 69.0173 156.584 69.9211 154.941C70.68 153.564 70.7766 153.539 71.9995 154.342C74.4596 155.956 74.8704 155.898 75.7211 153.129C76.6878 149.943 78.1378 146.952 79.3557 143.873C79.9502 142.389 79.9696 142.389 81.3471 142.964C83.9571 144.047 84.0054 144.071 85.1122 141.456C86.857 137.343 88.4327 133.152 90.6754 129.262C90.7509 129.06 90.7933 128.848 90.801 128.633L90.8639 128.551L90.8252 128.648Z" fill="#474848"/>
<path d="M53.053 152.423C52.9418 151.582 53.343 150.866 53.6668 150.151C55.5373 146.091 57.432 142.046 59.3169 137.995C59.3508 137.928 59.3943 137.87 59.4281 137.807C60.3948 136.043 60.6026 136.014 61.6853 137.604C62.4924 138.798 63.2368 140.021 64.0101 141.248L65.0009 142.829C66.1527 142.116 67.2085 141.258 68.1426 140.277C68.8627 139.586 69.3847 139.441 69.9792 140.456C70.8589 141.959 72.1784 143.114 73.3625 144.38C73.986 145.047 74.4887 145.255 75.0252 144.327C75.168 144.079 75.3418 143.85 75.5424 143.646C75.6167 143.567 75.718 143.52 75.8257 143.514C75.9334 143.508 76.0394 143.543 76.1223 143.612C76.1677 143.642 76.2059 143.681 76.2341 143.728C76.2622 143.774 76.2797 143.827 76.2853 143.881C76.2908 143.935 76.2843 143.989 76.2662 144.041C76.248 144.092 76.2187 144.139 76.1803 144.177C75.4602 144.864 75.2137 145.946 74.247 146.536C72.3835 144.776 70.6457 142.888 69.0464 140.886C67.4417 141.819 66.2044 143.08 64.8462 144.467C63.5026 142.002 62.3474 139.706 60.4141 137.763C58.9641 139.735 58.3793 141.915 57.3981 143.892C56.1753 146.338 55.112 148.865 53.9471 151.345C53.749 151.765 53.6378 152.312 52.9805 152.389L53.053 152.423Z" fill="#474848"/>
<path d="M89.9456 157.092C90.8736 155.942 91.0476 154.39 91.6566 153.013C92.4106 153.312 92.0916 153.796 92.0239 154.129C91.7532 155.473 91.0041 156.657 90.7189 157.996C90.5111 158.962 89.8779 159.069 88.9161 158.527C88.5249 158.341 88.1554 158.113 87.8141 157.846C87.4081 157.483 86.4124 157.087 87.8141 156.604C88.2733 156.444 87.9156 155.961 87.7368 155.7C86.2578 153.573 85.1413 151.186 83.2853 149.334C82.6425 148.696 82.4153 147.967 82.106 147.063C82.8551 146.874 83.1064 147.319 83.4013 147.686C85.4796 150.282 87.1471 153.158 88.8774 155.985C89.1094 156.415 89.2254 156.961 89.9456 157.092Z" fill="#474848"/>
<path d="M53.0095 152.389L53.0434 152.534V152.423L53.0095 152.389Z" fill="#474848"/>
</g>
<path d="M144.575 31.971C144.946 31.0477 145.388 30.1549 145.898 29.3008C150.13 23.3176 153.529 16.7831 158.042 10.9897C158.177 10.808 158.322 10.6342 158.477 10.4691C159.028 9.91796 158.514 7.95214 160.149 8.92587C161.269 9.5934 162.121 10.7631 161.374 12.3431C159.9 15.7457 159.269 19.4538 159.536 23.1522C159.775 29.1171 159.892 35.0269 158.575 40.9122C158.458 41.4082 158.275 42.0145 158.728 42.4187C164.068 47.2017 166.879 53.4054 168.496 60.1787C169.721 65.2189 171.117 70.2468 171.295 75.489C171.356 77.1548 172.801 77.0323 173.701 77.6754C176.592 79.7392 177.155 83.1013 178.019 86.1817C178.674 88.515 178.092 90.9402 177.615 93.298C177.498 93.8614 177.333 94.3636 176.8 94.5718C174.963 95.2761 175.263 96.7214 175.484 98.1605C176.5 104.707 178.84 110.868 180.91 117.145C182.979 123.423 185.968 129.29 188.412 135.395C190.463 140.54 194.236 144.679 197.855 148.825C201.979 153.438 206.541 157.64 211.475 161.374C216.454 165.25 220.71 169.948 224.948 174.584C227.673 177.578 230.656 180.334 233.357 183.347C237.282 187.738 239.064 193.066 239.934 198.823C240.741 204.758 240.64 210.782 239.634 216.687C239.498 217.34 239.543 218.017 239.762 218.647C241.661 216.577 243.694 214.617 245.415 212.412C247.761 209.405 250.002 206.288 252.041 203.085C256.665 195.81 259.513 187.959 259.629 179.201C259.678 175.116 259.629 171.136 258.092 167.247C257.369 165.41 257.706 163.395 258.092 161.521C258.9 157.546 263.242 156.811 266.702 159.953C270.555 163.462 271.602 168.068 271.4 172.942C271.308 175.478 271.865 177.933 271.467 180.542C270.573 186.397 269.912 192.258 267.897 197.904C265.515 204.861 262.125 211.431 257.835 217.403C255.385 220.753 253.033 224.293 250.063 227.147C243.841 233.13 237.405 238.967 228.959 241.802C228.672 241.9 228.188 242.133 228.133 242.059C226.767 240.173 225.683 242.059 224.722 242.463C221.739 243.695 218.554 244.366 215.327 244.442C213.012 244.564 210.771 245.268 208.45 245.556C205.908 245.868 203.403 245.556 200.899 245.623C195.999 245.734 191.198 246.885 186.311 247.087C183.751 247.191 181.179 247.259 178.619 247.167C174.608 247.032 171.497 243.155 172.697 239.983C173.518 237.809 175.447 237.178 177.339 237.001C180.401 236.713 183.267 235.727 186.207 235.066C188.944 234.453 189.171 233.326 187.677 230.815C186.335 228.549 184.909 226.326 183.751 223.969C181.637 219.876 180.491 215.352 180.401 210.747C180.494 208.209 179.782 205.708 178.368 203.6C176.243 200.452 175.918 196.367 173.567 193.232C173.466 193.119 173.378 192.996 173.303 192.864C173.08 192.293 172.692 191.801 172.188 191.451C171.684 191.101 171.087 190.908 170.474 190.898C169.249 190.941 169.629 192.527 169.5 193.311C168.974 196.612 169.059 199.974 168.888 203.312C168.508 210.661 167.786 218.01 168.043 225.359C168.165 228.874 168.906 232.346 169.433 235.831C169.831 238.471 170.658 241.11 170.229 243.872C169.892 246.144 168.851 247.155 166.597 246.658C162.954 245.86 159.17 245.961 155.574 246.952C153.639 247.473 152.99 246.677 152.8 244.699C152.536 241.931 154.349 239.928 155.053 237.534C155.167 237.253 155.341 237 155.563 236.795C155.785 236.589 156.051 236.436 156.34 236.345C160.461 235.476 159.812 231.997 159.904 229.333C160.118 223.099 159.291 216.895 158.679 210.679C157.999 203.685 156.095 196.924 155.109 189.998C154.919 187.892 154.6 185.8 154.153 183.733C154.025 183.255 154.116 182.465 153.388 182.508C149.101 182.919 149.254 179.201 147.613 176.605C147.147 178.552 145.224 179.667 145.812 182.19C146.192 183.831 145.677 185.809 145.163 187.518C142.873 195.167 143.326 203.012 143.246 210.789C143.203 216.203 143.209 221.599 142.866 227.012C142.658 230.399 143.387 233.902 143.038 237.301C142.75 240.106 143.883 242.849 143.038 245.63C142.966 246.03 142.779 246.401 142.501 246.697C142.223 246.994 141.865 247.204 141.47 247.301C139.18 247.977 136.751 248.03 134.434 247.455C132.315 246.946 130.104 246.346 127.795 247.014C125.903 247.559 124.812 246.401 125.48 244.564C126.429 241.912 126.95 238.942 129.963 237.54C130.722 237.184 130.967 236.352 130.943 235.421C130.704 227.361 129.767 219.363 129.106 211.341C128.358 202.42 127.274 193.538 125.854 184.695C125.204 180.683 124.561 176.654 123.765 172.703C122.828 168.043 120.844 163.554 118.97 159.132C117.016 154.515 116.318 149.726 115.835 144.802C114.824 134.501 116.202 124.378 117.623 114.224C118.059 110.651 118.745 107.113 119.674 103.636C120.042 102.356 119.742 101.076 119.956 99.8141C120.115 98.8526 119.435 98.5892 118.78 98.5158C115.608 98.0932 113.403 96.1212 111.395 93.892C110.851 93.1942 110.235 92.5558 109.557 91.9875C107.255 90.2911 106.838 87.6454 106.82 85.1345C106.82 81.111 107.175 77.1732 108.743 73.2721C112.276 64.435 115.222 55.3652 116.294 45.8299C116.637 42.7678 116.716 39.6629 116.759 36.5763C116.8 34.7563 117.294 32.9753 118.198 31.3953C121.26 25.8836 124.163 20.2861 126.233 14.3335C127.55 10.5304 129.203 6.75791 129.05 2.55063C129.008 1.51566 129.54 0.272468 130.808 0.456192C132.076 0.639916 131.818 1.7729 131.653 2.80787C130.693 8.96972 131.395 15.2762 133.686 21.0761C134.697 23.7769 135.107 26.7164 135.671 29.5703C135.909 30.7951 136.461 31.1442 137.508 30.7033C140.117 29.6254 142.426 30.5073 144.575 31.971ZM142.487 181.835C144.237 179.493 145.421 176.779 145.947 173.904C146.124 172.801 146.18 171.607 147.294 171.528C148.201 171.466 148.74 172.55 149.015 173.579C149.438 175.094 149.953 176.581 150.558 178.031C150.938 178.993 151.691 179.869 152.745 179.74C153.657 179.648 153.725 178.515 154.037 177.786C155.194 174.957 154.864 171.999 154.968 169.066C154.968 168.417 154.435 167.418 155.58 167.179C156.725 166.941 157.332 167.688 157.552 168.631C157.895 170.137 158.716 171.417 159.389 172.777C159.818 173.677 160.443 174.455 161.735 174.21C163.027 173.965 162.721 172.985 162.96 172.238C163.272 171.215 162.96 169.788 164.399 169.403C166.236 168.882 167.149 167.424 168 165.893C173.652 155.685 175.251 144.612 174.387 133.203C173.585 122.706 170.376 112.748 166.291 103.084C165.948 102.264 165.526 101.431 166.512 100.923C167.498 100.414 167.773 101.468 168.086 102.056C169.457 104.646 170.119 107.518 171.197 110.219C173.212 115.461 174.723 120.883 175.71 126.411C176.925 132.984 177.086 139.709 176.188 146.333C175.575 151.079 174.73 155.795 172.881 160.265C172.446 161.319 170.645 162.525 172.979 163.585C173.138 163.652 173.169 164.356 173.028 164.656C172.03 166.757 172.287 169.066 171.907 171.258C171.106 176.423 170.589 181.628 170.358 186.85C170.302 187.179 170.364 187.516 170.531 187.804C170.699 188.092 170.963 188.311 171.276 188.424C175.257 190.384 177.217 193.887 178.54 197.91C178.919 199.068 179.152 200.36 180.248 201.328C181.473 195.779 182.379 190.304 184.951 185.282C186.767 181.72 189.365 178.615 192.552 176.2C193.005 175.857 193.464 175.588 193.954 176.09C194.444 176.592 193.954 177.009 193.666 177.425C193.325 177.912 192.912 178.343 192.441 178.705C190.389 180.352 188.709 182.414 187.511 184.756C182.367 194.554 181.736 204.965 183.402 215.646C184.192 220.698 187.077 224.832 189.777 228.898C190.855 230.534 192.055 232.72 194.45 233.063C197.052 233.465 199.672 233.732 202.301 233.865C203.765 233.926 205.424 234.588 206.692 233.755C207.721 233.075 208.046 233.828 208.603 234.11C209.675 234.661 208.523 235.396 208.64 236.094C208.756 236.793 207.733 236.982 207.268 236.921C202.442 236.309 197.537 236.309 192.766 235.225C192.19 235.096 191.719 234.716 191.082 235.151C188.767 236.725 186.182 237.399 183.396 237.766C181.175 238.1 178.988 238.631 176.861 239.352C174.859 240.002 174.583 240.994 175.692 242.512C176.255 242.255 176.188 241.618 176.463 241.214C177.015 240.406 177.449 238.991 178.797 239.738C179.924 240.351 179.623 241.398 179.06 242.457C178.295 243.896 178.944 244.852 180.671 244.821C183.91 244.85 187.148 244.701 190.371 244.374C199.257 243.204 208.217 243.027 217.134 242.225C222.174 241.771 226.063 239.775 228.855 235.366C230.295 233.075 230.644 230.466 231.985 228.194C233.326 225.922 234.765 223.552 235.923 221.115C239.089 214.452 239.187 207.391 238.023 200.293C237.411 196.618 236.798 192.944 234.875 189.545C233.038 186.33 230.588 183.831 228.139 181.198C223.405 176.096 219.026 170.627 213.661 166.163C207.2 160.786 200.623 155.556 195.209 149.064C192.239 145.5 189.251 141.979 187.089 137.778C185.252 134.207 184.027 130.429 182.483 126.754C180.034 121.022 177.7 115.216 176.243 109.11C175.318 105.246 174.308 101.406 173.316 97.4746C172.72 97.8364 172.093 98.1438 171.442 98.3933C167.081 99.5691 162.868 101.204 158.397 102.068C154.815 102.766 151.318 103.813 147.711 104.45C144.281 105.062 140.809 104.903 137.41 104.891C133.374 104.891 129.259 105.301 125.204 103.948C121.738 102.79 121.53 103.103 120.752 107.01C118.952 116.025 117.635 125.082 117.506 134.311C117.427 140.35 117.684 146.382 119.037 152.2C120.875 159.965 123.998 167.284 129.106 173.591C130.079 174.816 131.31 174.706 132.168 173.285C133.435 171.16 134.617 168.998 135.842 166.849C136.136 166.341 136.332 165.716 137.122 165.759C137.912 165.802 138.004 166.469 138.188 167.026C138.328 167.449 138.414 167.896 138.531 168.325C139.725 172.734 140.251 177.327 142.487 181.835V181.835ZM158.538 13.8068C157.834 13.7578 157.717 14.0885 157.509 14.4192C155.109 18.2958 152.702 22.1723 150.246 26.0122C147.649 30.0602 145.138 34.1756 143.987 38.8728C143.626 40.3426 142.664 39.4179 142.076 39.7425C141.617 39.9875 141.28 38.8974 141.464 38.2421C141.667 37.7653 141.913 37.3082 142.199 36.8764C143.656 33.9858 143.02 32.8467 139.749 32.5895C138.929 32.5586 138.109 32.6119 137.3 32.7487C136.65 32.8406 135.842 32.6814 136.118 33.9735C136.157 34.2021 136.141 34.4367 136.072 34.6581C136.003 34.8795 135.883 35.0814 135.721 35.2474C135.56 35.4135 135.361 35.5389 135.141 35.6133C134.922 35.6878 134.687 35.7093 134.458 35.6761C133.558 35.5658 133.478 34.7023 133.515 33.7408C133.65 30.2623 133.448 26.7226 132.131 23.5074C130.71 20.0228 130.03 16.4034 129.271 12.3186C127.213 17.9161 124.757 22.8521 122.534 27.9045C120.979 31.4565 118.86 34.7697 118.627 38.8606C118.523 40.6979 118.664 42.4494 118.59 44.2437C118.217 52.7073 114.916 60.4543 112.809 68.4892C111.786 72.3902 109.398 75.8381 109.086 80.0025C108.988 81.3131 108.4 82.7216 110.641 82.6359C110.777 82.6263 110.913 82.6464 111.039 82.6948C111.166 82.7432 111.281 82.8188 111.375 82.9163C111.47 83.0137 111.542 83.1306 111.587 83.2589C111.631 83.3871 111.647 83.5236 111.633 83.6586C111.642 83.8113 111.619 83.9642 111.564 84.1072C111.51 84.2502 111.426 84.38 111.318 84.4882C111.21 84.5964 111.08 84.6804 110.937 84.7348C110.794 84.7892 110.641 84.8127 110.488 84.8038C110.009 84.7832 109.531 84.7238 109.061 84.6262C109.318 90.1992 113.134 92.9122 117.408 95.913C117.227 94.3695 117.39 92.8049 117.886 91.3322C118.238 90.156 118.162 88.8934 117.672 87.7679C116.845 85.8388 116.135 83.8669 115.43 81.8888C114.989 80.6639 115.632 79.6841 116.429 78.8267C117.225 77.9693 118.027 78.5205 118.713 78.8879C119.314 79.2015 119.983 79.3614 120.66 79.3534C125.26 79.4514 128.689 81.4111 130.716 85.6061C131.206 86.6166 130.79 87.5291 130.287 88.4477C129.932 89.0968 129.442 89.3969 128.854 89.0968C126.564 87.9333 124.892 89.9236 122.883 90.1808C120.097 90.5421 119.821 92.6734 119.772 94.9025C119.771 95.018 119.745 95.1319 119.698 95.2373C119.651 95.3426 119.582 95.4371 119.497 95.515C118.339 96.3172 119.154 96.5132 119.858 96.7826C121.512 97.395 123.312 96.9602 124.923 97.3093C129.399 98.2831 132.964 96.4581 136.491 94.2473C137.104 93.8553 137.863 93.5981 138.212 92.8326C139.794 89.517 141.576 86.3 143.546 83.1993C146.437 78.545 148.507 73.4558 150.852 68.5014C152.69 64.6799 155.139 61.0361 155.029 56.5042C154.968 54.4833 154.931 52.4623 154.937 50.4413C154.937 48.1203 154.325 45.4624 155.225 43.5701C156.45 41.0347 156.799 38.4809 157.172 35.8659C158.226 28.5721 156.897 21.1068 158.538 13.8068V13.8068ZM126.35 173.542C126.018 174.795 126.018 176.112 126.35 177.364C128.427 185.873 129.68 194.563 130.092 203.312C130.153 204.849 132.921 207.066 134.238 206.607C134.905 206.374 135.554 205.86 135.952 206.699C136.35 207.538 135.873 208.254 135.193 208.86C133.601 210.287 132.51 208.695 131.108 207.96C131.335 217.722 133.123 227.08 133.08 236.841C135.94 235.427 138.188 237.178 140.588 237.919C140.662 236.499 140.79 235.268 140.778 234.043C140.717 226.528 141.207 219.026 141.139 211.506C141.139 209.056 140.772 206.564 141.041 204.12C141.691 198.296 141.654 192.393 143.124 186.66C143.442 185.399 143.822 184.058 141.654 183.892C140.754 183.825 140.429 182.71 140.104 181.828C138.628 178.014 137.498 174.075 136.73 170.058C135.707 171.607 134.985 172.746 134.213 173.855C131.292 178.068 130.33 178.105 127.06 174.161C126.839 173.937 126.602 173.731 126.35 173.542V173.542ZM172.642 81.8642C171.576 81.8642 171.374 83.5913 170.505 82.9115C170.042 82.5285 169.678 82.0398 169.443 81.4866C169.209 80.9335 169.111 80.3321 169.157 79.7331C169.216 79.0034 169.216 78.2703 169.157 77.5406C168.692 71.9432 167.418 66.5172 166.444 61.0055C165.428 55.2488 162.378 50.4291 159.671 45.4441C159.514 45.1011 159.25 44.8181 158.919 44.6371C158.588 44.4562 158.207 44.3869 157.834 44.4397C157.148 44.6112 157.123 45.4992 157.117 46.1912C157.117 48.0774 157.117 49.9698 157.117 51.856C157.117 54.7037 157.619 57.5698 156.56 60.3563C153.498 68.3544 149.517 75.8871 145.72 83.5239C144.612 85.7592 142.499 87.5107 142.334 90.2604C152.291 91.0627 171.129 85.9184 172.642 81.8459V81.8642ZM228.831 239.071C229.282 239.088 229.734 239.055 230.178 238.973C233.583 237.583 236.841 236.058 239.628 233.461C243.302 230.062 247.699 227.496 250.878 223.479C252.103 221.886 252.978 219.963 254.393 218.61C256.959 216.16 258.808 213.172 260.407 210.202C263.965 203.612 267.015 196.728 268.246 189.22C268.552 187.352 268.907 185.809 266.733 184.848C266.198 184.56 265.737 184.151 265.388 183.653C265.039 183.156 264.812 182.583 264.724 181.982C264.473 179.758 262.887 180.555 262.005 180.634C260.554 180.763 261.319 182.116 261.27 182.98C261.329 183.732 261.329 184.487 261.27 185.24C260.488 189.259 259.212 193.168 257.473 196.875C254.741 202.267 251.586 207.434 248.036 212.327C245.256 216.295 241.055 219.063 238.74 223.436C238.556 223.773 237.895 224.22 237.692 224.122C236.302 223.466 236.125 224.642 235.812 225.347C233.859 229.97 232.058 234.649 228.831 239.071ZM156.817 172.973C156.346 175.331 156.309 177.26 155.329 178.926C155.062 179.453 155.011 180.064 155.188 180.628C156.719 187.977 158.177 195.326 159.634 202.712C159.922 204.188 160.486 204.972 162.084 204.084C162.776 203.704 163.18 204.188 163.554 204.696C164.038 205.394 163.633 205.817 163.15 206.221C162.57 206.71 161.849 207.002 161.092 207.054C160.559 207.097 160.204 207.286 160.394 207.899C160.933 209.595 160.528 211.371 160.81 213.068C161.87 219.608 162.556 226.155 161.833 232.793C161.716 233.816 161.992 234.98 163.492 235.151C164.168 235.214 164.818 235.437 165.391 235.8C166.744 236.737 166.934 236.064 166.849 234.876C166.671 232.555 166.426 230.24 166.31 227.913C165.936 220.447 166.793 213.013 167.026 205.559C167.357 194.787 168.759 184.125 169.831 173.426C170.113 170.634 170.578 167.859 170.958 165.079C170.315 166.236 169.194 167.039 168.851 168.202C168.239 170.235 165.838 170.946 165.44 172.942C165.099 174.483 164.233 175.858 162.99 176.831C161.337 178.295 159.843 178.056 158.703 176.127C158.152 175.214 157.589 174.265 156.817 172.973ZM174.712 83.7505C172.617 86.6472 169.5 87.6393 166.481 88.5763C159.509 90.6867 152.317 91.9814 145.047 92.4345C142.658 92.5999 140.527 92.9489 139.094 95.2026C138.517 95.9034 137.785 96.4609 136.957 96.8316C132.958 99.0792 128.616 99.6242 124.096 99.2813C123.649 99.2813 122.871 98.773 122.828 99.5997C122.828 100.09 122.761 100.959 123.722 101.186C124.947 101.48 126.172 101.933 127.397 102.178C132.462 103.164 137.538 102.601 142.615 102.509C145.238 102.466 147.852 102.202 150.43 101.719C156.437 100.455 162.367 98.8482 168.19 96.9051C170.756 96.0906 173.512 94.8597 174.871 92.8632C176.659 90.3156 176.549 86.9105 174.712 83.7505V83.7505ZM262.967 176.917C263.371 176.562 263.187 176.078 263.255 175.643C263.353 175.031 262.967 174.186 264.026 174.057C265.086 173.928 265.514 174.62 265.906 175.355C266.17 175.845 265.906 176.372 265.906 176.886C265.79 179.256 266.739 181.216 268.576 183.476C268.491 179.722 270.45 176.794 269.403 173.536C269.299 173.218 269.477 172.808 269.501 172.44C269.638 169.187 268.719 165.978 266.88 163.291C265.925 161.79 264.541 160.437 262.593 160.412C260.756 160.412 259.715 163.223 259.966 165.746C260.309 169.268 262.599 172.324 262.213 175.98C262.196 176.092 262.203 176.206 262.232 176.315C262.261 176.424 262.313 176.526 262.384 176.614C262.454 176.702 262.543 176.775 262.643 176.827C262.744 176.879 262.854 176.91 262.967 176.917V176.917ZM164.705 244.05C167.198 244.123 168.661 242.574 167.877 240.724C167.458 239.763 166.829 238.907 166.038 238.219C165.247 237.53 164.313 237.026 163.303 236.744C161.208 236.076 160.994 238.293 159.971 239.193C158.691 240.289 159.359 243.915 160.639 243.774C162.121 243.584 163.462 244.203 164.705 244.05ZM119.135 81.3314C118.247 81.3314 117.868 81.9439 118.48 83.6647C118.823 84.6507 119.093 85.649 119.484 86.6227C120.164 88.4599 121.095 89.1765 123.085 87.9271C124.255 87.1352 125.597 86.6334 126.999 86.4635C128.358 86.3349 128.444 85.4714 127.611 84.4058C125.615 81.9439 122.822 81.6132 119.135 81.3314V81.3314ZM137.018 245.458C139.027 245.385 140.876 245.207 141.146 243.198C141.458 240.871 138.965 238.636 136.405 238.55C135.034 238.507 133.521 240.896 133.515 243.247C133.515 246.132 136.087 244.625 137.018 245.428V245.458ZM154.864 242.855C155.047 243.529 154.974 244.325 155.862 244.448C156.248 244.503 156.958 244.65 156.946 244.08C156.946 242.127 157.558 240.32 158.048 238.489C158.128 238.201 158.134 237.815 157.803 237.742C157.663 237.722 157.52 237.736 157.386 237.782C157.252 237.827 157.131 237.904 157.032 238.005C155.984 239.456 155.519 241.196 154.864 242.825V242.855ZM130.49 239.793C129.828 240.488 129.214 241.227 128.652 242.004C127.868 243.229 129.553 243.474 129.736 244.362C129.736 244.417 131.029 244.778 131.022 244.154C130.98 242.659 132.59 240.981 130.49 239.738V239.793Z" fill="#474848"/>
<path d="M192.349 255.208C187.174 255.704 181.993 256.151 176.825 256.739C175.918 256.843 175.11 257.645 174.191 257.921C173.273 258.196 172.146 258.613 171.778 257.216C171.411 255.82 172.593 255.594 173.536 255.416C178.608 254.498 183.731 253.885 188.877 253.579C191.02 253.426 193.072 252.476 195.289 252.966C195.791 253.077 196.434 252.881 196.612 253.493C196.789 254.105 196.128 254.375 195.803 254.755C194.83 255.888 193.531 255.085 192.349 255.208Z" fill="#474848"/>
<path d="M132.743 254.424C128.652 254.938 124.5 255.036 120.532 256.353C120.186 256.49 119.832 256.605 119.472 256.696C118.86 256.806 118.008 257.149 117.745 256.249C117.482 255.349 118.321 255.079 118.89 254.767C120.493 253.946 122.229 253.415 124.016 253.199C127.189 252.709 130.416 252.525 133.607 252.133C134.617 252.011 135.836 251.705 135.934 253.015C136.032 254.326 134.758 254.491 133.649 254.424C133.349 254.381 133.043 254.424 132.743 254.424Z" fill="#474848"/>
<path d="M271.773 157.62C271.828 156.554 272.055 155.819 273.267 156.493C276.329 158.201 278.448 160.608 279.012 164.173C279.14 164.981 278.914 165.759 278.124 166.01C277.236 166.322 276.832 165.397 276.721 164.877C276.164 162.139 275.411 159.628 272.33 158.673C272.138 158.579 271.98 158.427 271.88 158.237C271.78 158.048 271.742 157.832 271.773 157.62Z" fill="#474848"/>
<path d="M282.38 164.473C281.48 164.675 281.376 164.001 281.419 163.248C281.547 160.939 280.341 159.365 278.694 157.944C278.32 157.626 277.309 157.032 278.081 156.383C278.614 155.942 279.514 155.366 280.335 156.125C282.38 158.03 283.299 160.62 284.309 163.095C284.548 163.676 283.593 164.595 282.38 164.473Z" fill="#474848"/>
<path d="M131.519 258.668C131.895 258.662 132.271 258.636 132.645 258.588C133.484 258.423 134.268 258.331 134.795 259.244C134.904 259.395 134.951 259.583 134.924 259.768C134.898 259.953 134.801 260.121 134.654 260.236C134.042 260.885 133.301 261.46 132.315 261.044C131.523 260.797 130.69 260.712 129.865 260.793C129.106 260.793 128.487 260.726 128.567 259.746C128.634 258.901 129.179 258.582 129.939 258.6C130.539 258.607 131.139 258.668 131.519 258.668Z" fill="#474848"/>
<path d="M186.127 258.796C186.568 258.949 187.879 258.411 187.964 259.531C188.05 260.652 186.868 260.915 185.821 260.842C185.671 260.846 185.521 260.863 185.374 260.891C184.284 261.013 182.575 261.926 182.416 260.278C182.269 258.79 184.186 258.98 185.362 258.778C185.617 258.766 185.873 258.772 186.127 258.796Z" fill="#474848"/>
<path d="M155.776 127.887C155.274 128.646 154.888 129.351 154.392 129.969C152.157 132.768 150.313 132.744 148.121 129.871C146.982 128.377 146.284 126.644 145.414 124.433C144.698 126.601 144.189 128.334 142.799 129.675C140.546 131.837 138.071 131.709 136.222 129.063C135.493 128.028 135.107 126.289 134.183 126.001C133.08 125.621 133.08 127.795 131.966 128.316C131.445 128.605 130.952 128.943 130.496 129.326C128.928 130.465 127.832 130.031 127.654 128.101C127.33 124.611 128.169 121.212 128.659 117.795C128.848 116.515 129.179 115.308 128.659 114.022C128.334 113.183 128.879 112.558 129.479 112.068C129.704 111.92 129.973 111.854 130.24 111.881C130.508 111.907 130.758 112.026 130.949 112.215C131.227 112.421 131.431 112.711 131.529 113.043C131.627 113.374 131.615 113.729 131.494 114.053C130.177 117.55 130.232 121.304 129.473 124.905C129.344 125.517 129.014 126.405 129.798 126.742C130.41 126.999 130.814 126.185 131.108 125.738C131.966 124.427 133.343 123.416 133.178 121.506C133.092 120.508 134.005 119.417 134.96 119.595C135.916 119.773 136.553 120.765 136.057 122.088C135.56 123.41 137.349 127.973 138.567 128.653C139.014 128.945 139.553 129.062 140.081 128.982C140.608 128.902 141.088 128.63 141.427 128.218C143.877 125.768 144.355 122.706 144.349 119.497C144.424 118.317 144.214 117.137 143.736 116.055C143.246 115.1 143.565 114.108 144.649 113.924C145.733 113.74 146.382 114.696 146.302 115.645C146.22 117.455 146.316 119.268 146.59 121.059C146.941 123.813 148.072 126.409 149.848 128.542C151.214 130.276 152.126 130.288 153.308 128.463C153.856 127.49 154.251 126.439 154.478 125.346C154.674 124.617 154.074 123.508 155.299 123.325C156.523 123.141 156.578 124.353 156.934 125.162C157.464 126.484 158.353 127.631 159.5 128.475C160.565 129.204 161.337 129.185 161.876 127.709C163.18 124.219 161.649 117.298 158.765 114.928C158.097 114.383 157.577 114.047 157.92 113.152C158.054 112.809 158.128 112.344 158.599 112.369C158.971 112.407 159.324 112.548 159.62 112.775C159.916 113.002 160.144 113.306 160.277 113.655C162.06 117.041 164.166 120.263 164.264 124.323C164.221 126.045 163.917 127.75 163.364 129.381C162.948 130.845 160.467 131.347 158.857 130.52C157.662 129.847 156.787 128.836 155.776 127.887Z" fill="#474848"/>
<path d="M128.916 155.115C130.667 153.033 131.267 150.828 131.849 148.525C132.155 147.337 132.308 145.463 133.748 145.592C134.899 145.69 135.021 147.398 135.058 148.721C135.115 150.237 135.595 151.707 136.442 152.965C138.139 155.513 139.265 155.525 141.133 153.027C142.432 151.287 142.903 149.217 143.375 147.141C143.528 146.48 143.412 145.39 144.465 145.488C145.224 145.555 145.659 146.327 145.818 147.129C146.36 149.626 147.42 151.982 148.929 154.043C149.219 154.523 149.601 154.94 150.053 155.271C150.505 155.603 151.018 155.841 151.563 155.972C152.371 156.076 152.788 154.747 153.081 153.939C153.957 151.489 155.531 149.199 154.655 146.388C154.619 146.261 154.608 146.129 154.623 145.998C154.639 145.867 154.681 145.74 154.747 145.626C154.813 145.511 154.901 145.411 155.006 145.332C155.111 145.252 155.232 145.195 155.36 145.163C155.614 145.083 155.89 145.102 156.131 145.215C156.373 145.329 156.563 145.529 156.664 145.776C157.256 146.816 157.718 147.924 158.042 149.077C158.334 150.085 158.696 151.071 159.126 152.028C159.277 152.459 159.572 152.824 159.962 153.062C160.352 153.3 160.811 153.395 161.263 153.333C162.317 153.198 162.727 152.273 163.009 151.434C163.146 150.778 163.173 150.103 163.088 149.438C163.088 148.482 163.088 147.368 164.24 147.319C165.391 147.27 165.397 148.703 165.575 149.321C166.236 151.636 163.774 154.76 161.331 155.446C159.457 155.985 158.483 155.139 157.693 153.725C157.16 152.769 156.738 151.753 156.107 150.442C155.58 152.212 155.011 153.474 154.747 154.888C154.484 156.303 153.792 157.632 152.028 158.14C150.264 158.649 149.432 157.436 148.47 156.468C147.743 155.704 147.076 154.885 146.474 154.019C145.861 153.167 145.328 152.255 144.685 151.251C143.344 152.151 143.216 153.78 142.364 154.925C140.215 157.822 137.918 157.987 135.689 155.213C134.707 154.095 134.004 152.76 133.637 151.318C132.566 153.474 131.8 155.378 130.502 156.977C129.92 157.699 129.32 158.373 128.279 158.201C127.238 158.03 127.005 157.056 126.766 156.193C125.315 150.914 125.315 145.555 125.884 140.16C125.964 139.37 126.429 138.592 126.099 137.777C125.768 136.963 126.019 136.381 126.876 136.314C127.734 136.246 128.26 136.871 128.101 137.777C127.675 139.997 127.47 142.254 127.489 144.514C127.685 147.986 126.938 151.569 128.916 155.115Z" fill="#474848"/>
<path d="M188.632 148.776C188.02 148.856 185.839 146.517 185.803 145.788C185.772 145.218 185.98 144.52 186.544 144.661C187.203 144.801 187.821 145.089 188.352 145.504C188.882 145.919 189.311 146.45 189.606 147.056C189.949 147.766 189.189 148.366 188.632 148.776Z" fill="#474848"/>
<path d="M204.095 170.254C203.189 170.174 201.187 167.369 201.327 166.451C201.431 165.838 201.836 165.765 202.301 165.838C203.14 165.979 205.051 168.674 204.959 169.513C204.892 170.039 204.671 170.333 204.095 170.254Z" fill="#474848"/>
<path d="M180.022 133.203C179.844 132.333 180.199 131.635 180.812 131.758C182.649 132.125 182.036 134.005 182.594 135.169C182.665 135.326 182.693 135.498 182.676 135.67C182.658 135.841 182.596 136.005 182.496 136.144C182.395 136.284 182.26 136.395 182.103 136.465C181.946 136.536 181.773 136.564 181.602 136.547C179.666 136.13 180.628 134.183 180.022 133.203Z" fill="#474848"/>
<path d="M214.8 172.985C213.576 172.483 212.235 171.956 211.702 170.615C211.679 170.466 211.69 170.313 211.737 170.169C211.783 170.024 211.862 169.893 211.968 169.785C212.074 169.677 212.203 169.595 212.346 169.545C212.489 169.496 212.642 169.481 212.792 169.501C214.084 169.874 215.297 170.56 215.719 171.95C215.76 172.083 215.767 172.224 215.737 172.36C215.708 172.496 215.644 172.623 215.552 172.727C215.459 172.831 215.342 172.909 215.21 172.955C215.078 173 214.937 173.01 214.8 172.985V172.985Z" fill="#474848"/>
<path d="M204.071 162.978C204.232 162.713 204.44 162.478 204.683 162.286C205.461 161.833 208.229 163.321 208.358 164.234C208.386 164.462 208.342 164.693 208.232 164.895C208.123 165.097 207.952 165.26 207.746 165.361C207.36 165.581 204.089 163.64 204.071 162.978Z" fill="#474848"/>
<path d="M190.414 157.583C189.618 157.497 189.189 157.283 188.981 156.554C188.699 155.495 187.934 154.558 188.222 153.376C188.252 153.259 188.565 153.161 188.761 153.143C189.502 153.063 189.857 153.608 190.065 154.16C190.457 155.188 190.757 156.248 191.045 157.307C190.842 157.415 190.631 157.507 190.414 157.583Z" fill="#474848"/>
<path d="M196.998 158.526C195.999 158.201 195.087 157.73 194.977 156.493C194.934 156.07 195.203 155.727 195.663 155.88C196.636 156.242 197.561 156.775 197.916 157.797C198.131 158.453 197.432 158.397 196.998 158.526Z" fill="#474848"/>
<path d="M147.453 37.7521C147.56 37.4173 147.689 37.0899 147.839 36.7722C149.254 34.1327 150.638 31.4687 151.33 28.5353C151.587 27.4513 152.071 26.9308 153.204 27.2125C154.484 27.5248 154.717 28.5414 154.343 29.4968C153.11 32.4882 152.688 35.7518 153.118 38.9585C153.212 39.3297 153.192 39.7203 153.062 40.0803C152.933 40.4403 152.698 40.7534 152.389 40.9795C151.697 41.3959 151.085 40.8938 150.687 40.3059C150.566 40.1117 150.386 39.9623 150.172 39.8805C149.959 39.7986 149.724 39.7889 149.505 39.8527C147.6 40.2997 147.992 38.6769 147.453 37.7521Z" fill="#474848"/>
<path d="M129.473 34.6656C128.052 34.2308 126.454 34.4084 124.917 34.2185C123.569 34.047 123.233 32.4425 123.735 31.5729C125.156 29.1232 125.658 26.4286 126.46 23.8075C126.68 23.0787 126.846 22.0682 127.948 22.0682C129.173 22.0682 129.302 23.0604 129.4 23.9606C129.615 25.2537 129.715 26.5632 129.7 27.8739C129.602 29.4111 129.553 30.838 130.704 32.0445C130.969 32.3161 131.14 32.6663 131.189 33.0428C131.239 33.4192 131.165 33.8016 130.98 34.1328C130.692 34.7636 130.079 34.5247 129.473 34.6656ZM128.003 27.0839L127.391 26.9247C126.87 28.3455 126.27 29.7418 125.866 31.2116C125.59 32.1731 126.233 32.4364 127.152 32.5528C128.309 32.663 128.138 31.9403 128.101 31.2912C128.003 29.8826 127.654 28.5047 128.003 27.0839Z" fill="#474848"/>
<path d="M143.093 63.5776C141.121 63.5776 137.894 61.0545 137.41 59.3642C137.122 58.3598 137.636 58.0046 138.445 57.7229C139.406 57.3861 139.51 57.9312 139.761 58.6844C140.576 61.1341 141.893 61.6607 144.336 60.5217C145.132 60.1603 145.892 59.7806 146.363 60.9197C146.774 61.8934 146.32 62.5304 145.445 62.8611C144.673 63.1395 143.888 63.3786 143.093 63.5776V63.5776Z" fill="#474848"/>
<path d="M124.219 59.1131C122.663 59.1621 119.478 55.7754 119.656 54.2138C119.699 53.779 119.687 52.9889 120.538 52.8419C121.285 52.695 121.763 52.9155 121.922 53.583C122.461 55.7632 123.447 57.1227 126.013 56.3205C126.172 56.2508 126.346 56.2215 126.519 56.2353C126.692 56.249 126.859 56.3054 127.005 56.3994C127.151 56.4933 127.272 56.622 127.356 56.7738C127.441 56.9257 127.486 57.096 127.489 57.2697C127.475 57.6489 127.343 58.0143 127.113 58.3159C126.883 58.6174 126.565 58.8403 126.203 58.9539C125.548 59.0719 124.884 59.1252 124.219 59.1131V59.1131Z" fill="#474848"/>
<path d="M126.778 92.5631C126.75 92.3977 126.762 92.2278 126.814 92.0682C126.867 91.9087 126.957 91.7643 127.078 91.6477C127.199 91.5312 127.346 91.446 127.507 91.3995C127.669 91.353 127.839 91.3467 128.003 91.3811C128.83 91.424 129.467 91.8711 129.357 92.7958C129.271 93.5429 128.744 93.8981 127.942 93.8981C126.999 93.9288 126.778 93.4327 126.778 92.5631Z" fill="#474848"/>
<path d="M111.744 77.9571C111.718 77.8085 111.725 77.6562 111.764 77.5105C111.802 77.3647 111.872 77.2291 111.968 77.1128C112.064 76.9965 112.184 76.9023 112.32 76.8366C112.455 76.7709 112.603 76.7353 112.754 76.7322C112.922 76.7032 113.093 76.7149 113.255 76.7662C113.417 76.8175 113.564 76.9069 113.684 77.027C113.804 77.1471 113.894 77.2942 113.945 77.4561C113.996 77.6179 114.008 77.7898 113.979 77.9571C113.918 78.5695 113.667 79.139 112.956 79.1819C112.032 79.3411 111.848 78.6797 111.744 77.9571Z" fill="#474848"/>
<path d="M132.339 93.1633C132.688 92.5937 132.437 91.5893 133.441 91.669C133.822 91.6849 134.181 91.8511 134.439 92.1313C134.698 92.4114 134.834 92.7825 134.819 93.1633C134.803 93.469 134.672 93.7574 134.453 93.9717C134.235 94.1859 133.943 94.3105 133.637 94.3207C133.013 94.2901 132.339 93.99 132.339 93.1633Z" fill="#474848"/>
<path d="M136.026 88.8396C135.174 88.6988 134.838 88.3007 134.923 87.5658C134.991 87.0024 134.776 86.2001 135.707 86.2798C136.32 86.3287 137.208 86.4145 137.055 87.376C136.95 87.9884 136.699 88.6804 136.026 88.8396Z" fill="#474848"/>
<path d="M114.065 87.6944C113.834 87.6383 113.623 87.521 113.454 87.3551C113.285 87.1891 113.164 86.9805 113.103 86.7513C112.95 86.1389 113.569 85.5999 114.114 85.5264C114.659 85.453 115.381 85.6305 115.381 86.4144C115.375 86.9778 115.314 87.6638 114.065 87.6944Z" fill="#474848"/>
<path d="M19.5803 192.691C21.4288 192.985 23.3003 193.11 25.1716 193.064C31.6999 192.764 38.2283 192.452 44.7688 192.311C48.9404 192.262 53.0999 191.852 57.2008 191.086C61.5612 190.21 65.0029 191.404 68.0895 194.76C73.6808 200.811 78.868 207.199 84.294 213.384C88.0113 217.622 91.6429 221.915 95.3174 226.196C96.6647 227.757 96.5422 228.847 94.8275 230.103C92.4116 231.807 89.5809 232.829 86.6334 233.061C80.2337 233.643 73.9625 235.118 67.5261 235.51C59.5647 235.994 51.5544 236.57 43.5501 236.833C39.6062 236.962 35.6378 236.962 31.7551 237.733C27.5845 238.566 24.5224 237.348 22.3974 233.569C20.407 230.035 18.0492 226.704 16.1385 223.158C13.3153 217.891 9.63467 213.139 7.26463 207.597C6.05862 204.797 5.0018 201.935 4.0985 199.023C2.95942 195.348 3.66977 194.369 7.49735 193.97C10.3267 193.676 13.1561 193.358 16.0283 193.052C15.9058 192.623 15.8874 192.439 15.8507 192.439C11.9583 192.078 8.03343 192.32 4.21483 193.156C2.58581 193.499 1.85093 194.993 1.55084 196.383C0.9915 198.913 0.582508 201.473 0.326018 204.051C-0.139415 208.632 1.93666 212.331 4.0005 216.097C8.76507 224.812 14.6565 232.816 19.6599 241.377C22.4403 246.136 26.5495 248.298 31.9755 248.114C43.6971 247.728 55.4187 247.501 67.128 246.889C74.5627 246.503 81.8688 244.85 89.1136 243.215C94.9377 241.904 97.7915 238.272 98.1529 231.811C98.3427 228.492 97.173 226.159 94.9438 223.734C89.4321 217.769 84.3368 211.485 79.0211 205.306C75.959 201.717 72.6214 198.3 69.7614 194.534C66.3686 190.076 61.8796 189.022 56.8579 190.02C50.4765 191.319 44.0462 190.78 37.6465 191.245C32.0245 191.649 26.3964 191.858 20.7561 192.011C20.5601 191.986 20.3764 192.194 19.5803 192.691ZM96.2237 231.052C97.1117 236.147 93.3944 241.016 88.9238 241.99C80.7726 243.76 72.5907 245.383 64.2619 245.842C55.0757 246.344 45.7977 246.454 36.5625 246.669C33.874 246.718 31.1426 246.914 28.5031 246.056C26.7761 245.511 26.4516 244.684 26.6659 241.977C26.7761 240.44 27.2048 239.62 29.0237 239.436C34.6211 238.86 40.188 238.162 45.8406 238.101C55.2924 237.96 64.7259 237.224 74.085 235.896C81.4707 234.88 89.2177 235.284 96.2237 231.052ZM25.0063 244.978C23.512 244.525 22.9241 243.57 22.232 242.7C19.6415 239.424 17.8349 235.651 15.4526 232.24C10.6687 225.561 6.50538 218.458 3.01452 211.02C1.44062 207.566 1.52634 204.026 2.61644 200.456C3.69428 202.14 4.21486 203.977 4.93751 205.723C7.69949 212.429 12.0108 218.259 15.4465 224.579C17.7491 228.823 20.0825 233.116 23.169 236.827C25.1777 239.265 25.6125 241.763 25.0063 244.978V244.978Z" fill="#474848"/>
<path d="M39.8083 194.797C37.0279 195.14 34.2415 195.44 31.4672 195.832C29.5136 196.108 29.2319 196.561 29.5136 198.508C29.7464 200.174 30.8303 201.571 30.812 203.359C30.812 204.314 31.6632 204.669 32.5022 204.584C36.9545 204.088 41.4128 203.653 45.8345 202.948C47.7881 202.642 47.9718 201.95 47.3471 200.113C47.2736 199.905 47.2001 199.69 47.1205 199.501C45.369 195.128 44.4933 194.577 39.8083 194.797ZM31.6693 200.37C31.1794 197.418 31.1733 197.308 33.2677 196.996C35.601 196.665 37.9159 196.145 40.3044 196.151C44.0891 196.151 44.4749 196.408 45.9447 200.695C41.2781 196.261 36.5931 197.663 31.6693 200.376V200.37ZM32.6921 202.771C35.895 198.637 41.5292 198.319 44.2054 201.84C42.4294 201.84 40.6595 203.175 39.3061 200.995C39.1285 200.695 38.6509 200.866 38.4794 201.172C37.2178 203.524 35.0744 202.538 32.6921 202.771Z" fill="#474848"/>
<path d="M33.2082 224.83C33.7065 222.769 35.4971 222.541 37.5419 222.555C38.6056 222.564 39.3273 221.735 39.809 220.799C40.5159 219.418 39.6198 217.858 38.1305 218.172C36.3746 218.543 35.3079 217.916 34.2332 216.68C33.2499 215.547 32.418 215.389 31.6264 215.837C30.4386 216.513 29.578 218.201 30.1035 219.336C30.59 220.378 30.3043 221.086 29.7324 221.906C29.3863 222.427 29.1264 223 28.9626 223.603C28.5475 225.084 29.4059 226.059 30.9497 225.931C31.7709 225.862 32.339 225.614 33.2082 224.83ZM32.148 224.327C31.4052 224.977 30.5187 225.187 30.1087 224.725C29.5321 224.092 29.8251 223.5 30.2873 222.894C31.1395 221.782 31.7642 220.667 31.0622 219.127C30.6514 218.222 31.301 216.963 32.0266 216.716C33.0102 216.365 33.5493 217.088 34.0417 217.709C35.0301 218.908 36.1633 219.604 37.7904 219.221C38.2795 219.103 38.8468 219.166 39.0486 219.749C39.2093 220.214 38.8742 220.575 38.5917 220.919C38.1553 221.421 37.5698 221.597 36.9488 221.74C36.455 221.818 35.9516 221.81 35.4605 221.716C34.1729 221.586 33.2604 222.003 32.8365 223.287C32.7404 223.706 32.4992 224.077 32.1557 224.336L32.148 224.327Z" fill="#474848"/>
<path d="M27.7927 222.961C28.3131 222.573 28.6248 222.087 28.5136 221.49C28.46 221.149 28.3085 220.832 28.0776 220.577C27.8467 220.321 27.5464 220.139 27.2134 220.051C26.3677 219.828 25.474 219.87 24.6527 220.17C23.8109 220.457 23.7008 221.229 23.6889 221.996C23.6771 222.764 24.0707 223.244 24.8367 223.45C25.3351 223.59 25.8583 223.619 26.3691 223.535C26.88 223.45 27.366 223.255 27.7927 222.961V222.961ZM24.5701 222.301C24.5184 222.131 24.4939 221.954 24.4973 221.777C24.64 221.048 25.176 220.753 25.8476 220.716C26.5192 220.68 27.214 220.847 27.5503 221.576C27.5894 221.696 27.5852 221.826 27.5384 221.943C27.3397 222.504 26.8288 222.628 26.3402 222.691C25.7311 222.77 25.0816 222.847 24.5701 222.301V222.301Z" fill="#474848"/>
<path d="M38.4365 216.144C39.2023 215.549 39.6068 213.414 39.0922 212.678C38.5776 211.942 37.2997 211.772 36.5399 212.272C36.2435 212.478 35.9936 212.743 35.8065 213.051C35.6194 213.36 35.4993 213.704 35.4539 214.062C35.4085 214.42 35.4389 214.783 35.5431 215.128C35.6473 215.473 35.8229 215.793 36.0586 216.066C36.6377 216.719 37.6481 216.754 38.4365 216.144ZM36.6385 215.478C36.3506 215.137 36.2051 214.697 36.2322 214.251C36.2593 213.805 36.4569 213.387 36.7841 213.083C37.1813 212.767 37.6428 212.472 38.1141 212.914C38.5854 213.357 38.557 214.923 38.0907 215.376C37.6244 215.828 37.1096 215.874 36.6477 215.471L36.6385 215.478Z" fill="#474848"/>
<path d="M25.9152 217.433C26.5044 218.168 28.1136 218.247 28.9388 217.578C29.5581 217.08 29.5911 216.514 29.0444 215.805C28.277 214.812 26.6364 214.249 25.9472 214.745C25.258 215.24 25.234 216.579 25.9152 217.433ZM28.2952 217.034C27.8376 217.46 26.8338 217.396 26.4504 216.871C26.2063 216.536 25.9252 216.11 26.2746 215.705C26.624 215.3 27.8319 215.643 28.2912 216.201C28.3977 216.313 28.4571 216.461 28.4571 216.616C28.4571 216.77 28.3977 216.918 28.2913 217.03L28.2952 217.034Z" fill="#474848"/>
<path d="M31.5482 213.693C32.2012 214.504 33.1125 214.654 33.8265 214.067C34.5405 213.48 34.648 212.035 34.0266 211.354C33.7302 211.075 33.3443 210.911 32.9377 210.89C32.5312 210.869 32.1305 210.993 31.8072 211.241C30.9965 211.838 30.8859 212.866 31.5482 213.693ZM32.1375 213.196C31.7022 212.68 31.8979 212.256 32.3069 211.875C32.6417 211.593 33.0133 211.554 33.2877 211.884C33.3864 211.984 33.4638 212.102 33.5152 212.233C33.5667 212.364 33.591 212.504 33.5869 212.644C33.5828 212.784 33.5502 212.922 33.4912 213.05C33.4321 213.177 33.3479 213.291 33.2434 213.385C32.8574 213.77 32.4476 213.531 32.1414 213.2L32.1375 213.196Z" fill="#474848"/>
<path d="M70.049 218.517C71.4496 217.851 71.7025 216.577 70.6 215.507C70.1563 215.066 69.6437 214.701 69.0823 214.425C68.1765 214 67.574 213.53 67.472 212.385C67.3562 211.146 65.7654 210.115 64.3986 210.126C63.4836 210.132 62.8537 210.678 62.5671 212.16C62.258 213.769 61.6494 214.849 59.9446 215.41C58.4986 215.885 58.5057 217.687 59.8108 218.524C60.6979 219.09 61.741 219.445 62.6559 218.906C64.4149 217.868 66.0777 217.166 67.543 218.698C68.6884 218.941 69.3071 218.87 70.049 218.517ZM67.0804 217.163C66.0699 216.262 65.0593 216.361 64.0228 217.122C63.645 217.449 63.2136 217.709 62.7475 217.889C62.1369 218.086 61.5437 218.219 60.915 218.001C60.4957 217.856 60.0241 217.715 59.9324 217.217C59.8142 216.612 60.2733 216.272 60.7562 216.126C62.3645 215.646 62.9864 214.474 63.2394 212.94C63.3774 212.16 63.4698 211.26 64.4843 211.07C65.2339 210.932 66.4294 211.683 66.5286 212.672C66.6937 214.356 67.7945 215.005 69.0889 215.541C69.7927 215.833 70.3435 216.199 70.162 217.035C70.0307 217.64 69.1673 217.904 68.1985 217.714C67.7727 217.668 67.3768 217.473 67.0804 217.163V217.163Z" fill="#474848"/>
<path d="M74.1039 213.303C74.6669 212.738 74.772 212.144 74.3669 211.473C73.9617 210.801 73.4888 210.202 72.617 210.377C71.7557 210.529 70.9618 210.941 70.3422 211.559C70.1003 211.8 69.9336 212.107 69.862 212.441C69.7904 212.776 69.817 213.124 69.9386 213.443C70.1425 214.012 70.6445 214.275 71.3007 214.354C71.8165 214.395 72.3349 214.322 72.8193 214.14C73.3037 213.959 73.7422 213.673 74.1039 213.303V213.303ZM72.4136 213.403C71.9564 213.593 71.439 213.745 70.9989 213.357C70.9005 213.278 70.8319 213.168 70.8043 213.045C70.7294 212.246 71.2097 211.77 71.8457 211.447C72.4818 211.124 73.0568 211.128 73.546 211.687C73.6385 211.837 73.7061 212.001 73.7463 212.173C73.5756 212.914 72.9768 213.164 72.4136 213.403V213.403Z" fill="#474848"/>
<path d="M60.6794 212.548C60.7468 212.194 60.7388 211.829 60.6558 211.478C60.5729 211.127 60.4169 210.797 60.198 210.51C59.9792 210.223 59.7023 209.986 59.3855 209.813C59.0688 209.641 58.7192 209.537 58.3595 209.508C57.4544 209.458 56.4301 210.288 56.3554 211.14C56.2808 211.992 57.7008 213.678 58.6647 213.809C59.6287 213.94 60.5007 213.403 60.6794 212.548ZM58.576 212.968C57.9481 212.814 57.136 211.464 57.3206 210.851C57.5053 210.238 58.0531 210.258 58.5555 210.329C58.9909 210.429 59.3713 210.693 59.6182 211.065C59.8652 211.438 59.9599 211.891 59.883 212.331C59.674 212.909 59.2003 213.124 58.5781 212.956L58.576 212.968Z" fill="#474848"/>
<path d="M68.7609 206.325C67.9163 206.242 66.7796 207.552 66.6142 208.797C66.4988 209.69 66.8093 210.157 67.5953 210.277C68.6447 210.442 69.9971 209.566 70.1376 208.634C70.3002 207.56 69.6143 206.409 68.7609 206.325ZM67.4644 208.761C67.591 208.046 68.469 207.148 68.9596 207.32C69.4501 207.492 69.4458 208.015 69.393 208.417C69.3244 209.063 68.4887 209.619 67.8819 209.484C67.7328 209.441 67.6062 209.341 67.5289 209.207C67.4516 209.072 67.4296 208.912 67.4674 208.762L67.4644 208.761Z" fill="#474848"/>
<path d="M61.9334 206.238C61.5295 206.186 61.1203 206.28 60.7794 206.503C60.4385 206.726 60.1881 207.063 60.0731 207.453C59.8742 208.353 60.6894 209.549 61.6043 209.699C62.5193 209.848 63.2324 209.262 63.3873 208.232C63.5421 207.202 62.937 206.351 61.9334 206.238ZM61.7792 208.831C61.6419 208.802 61.5117 208.746 61.3967 208.666C61.2816 208.586 61.1841 208.483 61.11 208.364C61.0359 208.245 60.9868 208.112 60.9656 207.973C60.9445 207.834 60.9518 207.693 60.987 207.557C61.0623 207.132 61.3964 206.965 61.831 207.058C62.3803 207.173 62.7476 207.439 62.6431 208.115C62.5308 208.543 62.2821 208.95 61.7674 208.829L61.7792 208.831Z" fill="#474848"/>
<path d="M64.0794 95.8378C65.2613 94.9005 66.3635 94.186 67.3608 93.2796C68.0429 92.668 68.9727 92.198 69.7068 91.6028C72.7316 89.2521 75.1145 86.1765 76.6353 82.6605C77.3092 81.1056 78.1631 79.6455 78.9556 78.1279C79.3422 77.3947 79.4482 76.5636 79.7406 75.8166C80.3698 74.2222 80.493 72.5288 80.9281 70.9051C81.0797 70.3426 81.2576 70.2015 81.9559 70.4468C83.274 70.9228 84.6697 71.1466 86.0705 71.1068C86.6205 71.0861 86.971 71.0026 87.0272 71.9547C87.1547 74.083 86.2455 75.9007 85.7833 77.8529C85.1593 80.464 84.3207 83.0191 83.2761 85.4922C82.0239 88.5601 80.2939 91.4104 78.1505 93.9374C77.0068 95.2681 75.367 96.0549 73.938 97.0605C71.8012 98.5775 69.3128 99.0716 66.8691 99.7165C66.1369 99.9118 65.9471 100.202 66.2893 100.881C67.4812 103.243 67.5257 105.797 67.5388 108.359C67.5465 109.455 67.9754 110.505 67.7499 111.645C67.1068 114.879 66.6784 118.218 64.5435 120.879C62.9686 122.853 61.0668 124.26 58.2598 124.564C55.8116 124.83 53.8016 124.057 52.0697 122.834C50.694 121.864 49.351 120.446 49.4895 118.291C49.6618 115.573 49.8055 112.866 50.7385 110.287C51.3903 108.541 52.2353 106.873 53.2576 105.315C54.1944 103.911 55.2076 102.56 56.2927 101.268C56.8718 100.624 57.5302 100.056 58.252 99.5775C58.7967 99.1801 58.9322 98.8001 58.62 98.1868C58.234 97.5013 57.6611 96.9395 56.968 96.5671C56.275 96.1947 55.4904 96.0269 54.7056 96.0834C53.233 96.1715 51.8099 96.6478 50.5809 97.4639C49.5647 98.1578 48.5629 98.9674 47.5043 99.4827C45.5642 100.426 45.2681 102.275 44.4412 103.861C42.6443 107.296 42.4926 111.129 41.7682 114.833C41.1314 118.097 40.7245 121.407 39.6665 124.596C38.9828 126.656 38.4572 128.769 37.4928 130.732C35.6633 134.453 33.345 137.848 30.7985 141.121C29.6908 142.539 28.5395 141.976 27.5213 141.637C26.5032 141.297 25.4032 140.995 24.3295 140.721C24.0635 140.637 23.4696 140.555 23.6977 140.204C23.9258 139.853 23.3084 139.341 24.1358 138.994C25.3043 138.481 26.241 137.553 26.7645 136.389C26.9791 135.92 27.441 135.967 27.7325 135.677C28.6083 134.783 29.0816 133.674 29.6187 132.594C30.5799 130.672 31.651 128.784 32.4064 126.769C33.0973 124.908 33.931 123.098 34.3523 121.114C34.8457 118.79 35.7855 116.563 36.3855 114.253C37.0566 111.668 37.5437 109.031 38.1359 106.423C38.5374 104.642 39.1487 102.914 39.957 101.276C40.7916 99.5842 41.6823 97.9164 42.6474 96.2847C43.5519 94.7547 44.9261 93.8526 46.4098 93.1883C48.3036 92.3417 50.2312 91.4486 52.4076 91.5014C52.6723 91.5085 52.9419 91.2882 53.2104 91.1725C53.357 91.1106 53.6108 90.9808 53.634 90.9881C54.2344 91.8669 54.8534 91.1528 55.4474 91.0125C56.9488 90.6879 58.5136 90.8323 59.9302 91.4261C61.3468 92.02 62.5468 93.0346 63.3678 94.3328C63.6278 94.7993 64.0308 95.1645 64.0794 95.8378ZM53.2172 95.1984C53.1304 95.1711 53.0495 95.1456 53.1054 95.2808L53.2053 95.1756C54.8751 95.3836 55.2616 95.1556 55.7658 93.7157C55.8678 93.3919 55.9037 92.8438 56.3639 93.0173C56.6476 93.1257 56.7125 93.6769 56.6029 94.0651C56.5346 94.282 56.3546 94.4701 56.3122 94.6855C56.2698 94.901 56.2174 95.2087 56.5118 95.384C58.0343 96.2417 58.1557 96.2195 59.3702 94.7649C59.442 94.6556 59.5362 94.5629 59.6465 94.4928C59.8654 94.3932 59.9605 94.0004 60.2935 94.1943C60.6266 94.3882 60.4434 94.7278 60.4546 94.9951C60.4657 95.2624 60.2237 95.3547 60.0498 95.5033C59.2287 96.1728 58.6643 96.8754 59.4498 97.9841C59.7002 98.3395 59.7806 98.5586 60.2158 98.2666C61.0549 97.7013 61.8929 97.1293 62.7705 96.6333C63.3452 96.3121 63.2533 96.0289 62.991 95.5395C61.8273 93.371 60.0902 92.0644 57.6053 91.8509C56.1003 91.6952 54.5847 92.0188 53.2745 92.7755C52.158 93.4346 51.165 94.317 50.1402 95.1289C49.033 96.0007 48.1109 97.1628 47.9476 97.8933C49.4143 96.7278 51.3711 96.3778 52.3422 94.6463C52.4865 94.3899 52.7488 94.3644 53.0307 94.4786C53.4378 94.629 53.2539 94.9303 53.2172 95.1984V95.1984ZM28.514 136.203C29.5389 136.713 30.6224 136.775 31.6702 137C32.4804 137.172 33.0708 137.044 33.4357 136.218C33.6635 135.75 33.9319 135.302 34.238 134.881C35.6145 132.89 36.7706 130.755 37.6859 128.514C39.4826 123.918 40.3377 119.083 41.0772 114.221C41.5136 111.412 41.8373 108.577 42.791 105.862C43.1717 104.774 43.741 103.783 44.2059 102.741C45.3427 100.103 46.8786 97.6562 48.7598 95.4857C49.8156 94.2926 51.0979 93.3392 52.378 92.3725C48.8881 92.5448 45.9745 93.9952 43.3848 96.3453C43.4727 96.4094 43.5678 96.4629 43.6684 96.5045C44.0677 96.5889 44.7626 96.2897 44.7309 96.9758C44.7036 97.5774 44.0763 97.4498 43.6172 97.4037C43.0987 97.3549 42.6963 97.4316 42.4946 98.0419C42.3407 98.5305 41.994 98.9553 41.7843 99.4296C41.6863 99.6498 41.2982 100.065 42.038 100.037C42.3311 100.024 42.3929 100.394 42.3589 100.653C42.3249 100.912 42.0726 101.138 41.9049 101.085C40.6552 100.714 40.6374 101.719 40.3912 102.42C40.1918 102.993 39.4239 103.575 39.8681 104.163C40.2287 104.632 41.0172 104.651 41.6915 104.67C42.2872 104.686 42.295 105.267 42.2131 105.648C42.1313 106.029 41.7883 105.988 41.4242 105.832C40.9221 105.62 40.3451 105.575 39.857 105.338C39.3689 105.102 39.2561 105.298 39.1694 105.675C39.0208 106.308 38.9165 106.952 38.7477 107.579C38.6205 108.054 38.4746 108.447 39.2301 108.449C39.3193 108.449 39.8084 108.631 39.7502 109.049C39.7407 109.123 39.715 109.194 39.6749 109.258C39.6349 109.321 39.5815 109.375 39.5184 109.416C39.4554 109.457 39.3842 109.483 39.3099 109.493C39.2355 109.504 39.1599 109.498 39.0881 109.476C38.3221 109.133 38.284 109.667 38.1557 110.136C38.0518 110.516 37.918 110.89 37.8266 111.272C37.7352 111.653 37.5744 112.072 38.2135 112.162C38.2708 112.161 38.3277 112.172 38.3804 112.195C38.4331 112.217 38.4804 112.251 38.5191 112.293C38.5579 112.335 38.5871 112.386 38.605 112.44C38.6228 112.494 38.6289 112.552 38.6227 112.609C38.5791 112.929 38.3558 112.992 38.1017 113.103C37.8475 113.214 37.4454 113.078 37.3276 113.543C37.0993 114.399 36.7805 115.23 36.5455 116.087C36.4654 116.341 36.3133 116.824 36.9594 116.64C37.0288 116.61 37.1047 116.598 37.1798 116.606C37.255 116.614 37.327 116.64 37.3891 116.683C37.4511 116.726 37.5012 116.784 37.5347 116.852C37.5681 116.92 37.5838 116.995 37.5802 117.071C37.6121 117.433 37.3646 117.826 37.0461 117.757C35.9606 117.52 36.0185 118.346 35.8159 118.959C35.6775 119.399 35.5427 119.827 35.4007 120.278C34.86 122.116 34.8618 122.11 36.7699 122.52C37.177 122.61 37.7306 122.689 37.5973 123.264C37.4405 123.923 36.9653 123.656 36.5149 123.502C34.9614 122.965 34.4691 123.226 33.9707 124.789C33.8915 125.04 33.8296 125.297 33.734 125.54C33.538 126.032 33.4213 126.453 34.1191 126.669C34.4285 126.767 34.697 127.055 34.5153 127.43C34.3587 127.755 34.0391 127.68 33.7418 127.615C33.4444 127.55 33.0496 127.33 32.8292 127.798C32.6088 128.266 32.3935 128.748 32.1722 129.219C31.9305 129.734 32.0443 130.059 32.6583 130.026C33.076 130.002 33.4227 130.041 33.3842 130.547C33.3457 131.053 33.0416 131.272 32.5618 131.08C31.584 130.683 31.1672 131.219 30.8642 132.02C30.7601 132.223 30.6429 132.42 30.5135 132.609C30.2162 133.179 30.0254 133.695 31.0181 133.661C31.2529 133.652 31.4943 133.753 31.4801 134.051C31.4871 134.167 31.463 134.283 31.4103 134.386C31.3576 134.49 31.2781 134.577 31.1802 134.64C31.0002 134.713 30.7999 134.717 30.6167 134.653C29.8622 134.374 29.369 134.578 29.0951 135.347C28.9356 135.654 28.7406 135.941 28.514 136.203V136.203ZM63.9724 99.8818C64.703 99.9942 64.8254 99.1111 65.3309 99.07C66.861 98.9448 68.243 98.2803 69.7349 97.9936C71.9217 97.5793 73.705 96.2561 75.5107 95.0131C77.5356 93.6294 78.9013 91.7043 80.1727 89.6955C81.099 88.1646 81.9191 86.5719 82.6272 84.9287C83.6584 82.6631 84.3428 80.2979 85.0984 77.9487C85.2041 77.6132 85.3933 77.0626 84.6902 76.9842C83.5068 76.8563 82.4697 76.2437 81.3334 75.9463C81.1108 75.8762 80.862 75.7375 80.7023 75.9319C80.3054 76.3949 80.2423 77.0393 80.2119 77.57C80.1814 78.0404 80.8559 77.7252 81.1982 77.8393C81.6059 77.9677 82.1494 77.8464 82.3077 78.4238C82.3615 78.6061 82.5003 78.8214 82.3112 78.978C81.906 79.3462 81.503 79.0413 81.1155 78.9193C79.7253 78.5197 79.7136 78.5065 79.1808 79.7848C79.0877 80.0097 78.7541 80.1304 78.8856 80.48C79.0616 80.545 79.2472 80.5798 79.4348 80.5831C79.9484 80.5064 80.0091 80.9292 80.1884 81.2177C80.3245 81.4417 80.1294 81.5868 79.9935 81.7157C79.6905 82.0016 79.3966 81.7438 79.2004 81.5899C78.6194 81.1336 78.312 81.3832 77.9889 81.9045C77.7706 82.2648 77.7358 82.7083 77.3246 83.0047C77.5325 83.0902 77.7472 83.1578 77.9666 83.2069C78.4564 83.2562 78.8673 83.4651 78.7275 83.9899C78.5876 84.5148 78.1897 84.4563 77.708 84.1997C77.4894 84.0864 77.0176 83.7376 76.7185 84.314C76.2546 85.2422 75.7376 86.1473 75.2428 87.0625C75.0038 87.5085 75.0142 87.7883 75.5961 88.0097C76.5053 88.3756 77.3921 88.7949 78.2518 89.2655C78.5797 89.4354 79.0325 89.6829 78.7463 90.1681C78.46 90.6532 78.1017 90.4386 77.7429 90.1954C77.2174 89.8455 76.7056 89.5128 76.1637 89.215C74.7627 88.456 74.2626 88.5401 73.2305 89.7184C73.1252 89.841 72.9897 89.9382 72.8834 90.0636C72.5665 90.4342 71.9505 90.6344 71.899 91.1108C71.8129 91.9291 72.6735 91.5581 73.0567 91.8249C73.1821 91.8944 73.2773 92.0079 73.3238 92.1435C73.3704 92.2791 73.365 92.4271 73.3086 92.559C73.2202 92.8903 72.9877 93.0332 72.7313 92.838C71.2826 91.7462 70.0726 92.2678 68.9196 93.3255C68.8811 93.3637 68.8449 93.4043 68.8114 93.4471C69.1059 93.6491 69.3881 93.8685 69.6565 94.1041C69.7535 94.1941 69.8115 94.3184 69.818 94.4506C69.8245 94.5827 69.779 94.7121 69.6913 94.8111C69.6555 94.8581 69.6094 94.8961 69.5565 94.9223C69.5036 94.9486 69.4454 94.9623 69.3864 94.9625C69.3273 94.9626 69.269 94.9492 69.216 94.9232C69.163 94.8973 69.1167 94.8595 69.0806 94.8127C68.336 93.8568 67.684 94.2617 67.0041 94.8867C66.6765 95.1904 66.2962 95.4393 65.9138 95.7352C66.0248 95.8369 66.0872 95.9011 66.1611 95.9593C66.4709 96.1967 67.0447 96.3424 66.6158 96.8971C66.1869 97.4517 65.8918 97.1776 65.5695 96.7074C65.5239 96.628 65.4598 96.5607 65.3826 96.5115C65.3053 96.4622 65.2173 96.4324 65.1261 96.4246C65.0348 96.4168 64.943 96.4312 64.8585 96.4667C64.7741 96.5021 64.6994 96.5574 64.641 96.628C64.2666 96.9339 63.8537 97.1896 63.4131 97.3887C62.7387 97.7135 62.7671 98.0371 63.357 98.3944C63.9469 98.7518 64.3259 99.1731 63.9724 99.8818ZM61.3039 102.855C59.6385 104.381 58.1256 106.066 56.7867 107.885C55.8637 109.11 55.5596 110.54 54.9045 111.844C53.7097 114.264 53.4922 117.051 54.2971 119.627C54.5118 120.368 54.4777 121.486 55.9301 121.072C56.5933 120.884 57.2405 120.766 57.8127 120.352C60.3184 118.541 61.0387 115.739 61.9656 113.028C62.3915 111.776 62.1241 110.576 61.9982 109.351C61.7681 107.226 61.9247 105.063 61.3085 102.841L61.3039 102.855ZM55.703 122.227C56.4216 122.942 57.3837 123.358 58.3965 123.393C61.5569 123.521 63.5214 121.622 64.8625 119.14C66.7517 115.603 67.1723 111.734 66.7999 107.748C66.5538 105.42 66.0979 103.118 65.4377 100.871C65.3104 100.427 65.1497 100.332 64.7689 100.552C64.0938 100.95 63.4128 101.336 62.7417 101.741C62.4551 101.915 61.9286 102.083 62.2366 102.498C62.4856 102.827 62.3628 103.681 63.2266 103.391C63.2959 103.36 63.3716 103.346 63.4473 103.351C63.523 103.355 63.5965 103.378 63.6618 103.416C63.7271 103.455 63.7822 103.509 63.8225 103.573C63.8629 103.637 63.8873 103.71 63.8938 103.785C63.9018 103.86 63.8923 103.936 63.8662 104.007C63.8401 104.078 63.7981 104.142 63.7433 104.194C63.6885 104.246 63.6225 104.284 63.5504 104.306C63.4783 104.329 63.402 104.334 63.3275 104.322C62.6062 104.251 62.6857 104.705 62.6104 105.186C62.4348 106.329 63.2456 106.308 63.9516 106.388C64.2581 106.424 64.4707 106.465 64.4325 106.819C64.3943 107.172 64.1921 107.41 63.8369 107.267C62.5614 106.735 62.7755 107.609 62.8075 108.325C62.8235 108.648 62.8539 108.975 62.8553 109.294C62.8568 109.612 62.9233 109.633 63.2906 109.749C64.2072 110.037 65.1472 110.231 66.062 110.526C66.1344 110.539 66.2032 110.568 66.2635 110.61C66.3238 110.652 66.3742 110.707 66.4113 110.771C66.4483 110.834 66.4712 110.905 66.4782 110.979C66.4852 111.052 66.4762 111.126 66.4519 111.195C66.3602 111.618 66.0432 111.413 65.8171 111.425C65.4435 111.44 65.1376 111.211 64.8051 111.106C64.2632 110.922 63.692 110.84 63.1203 110.865C62.993 110.875 62.8498 111.663 62.8618 112.089C62.8905 113.007 61.6865 114.227 63.4636 114.771C63.6371 114.825 63.7074 115.076 63.6189 115.287C63.6071 115.337 63.5826 115.384 63.5477 115.422C63.5129 115.46 63.4687 115.489 63.4196 115.506C63.3704 115.522 63.3179 115.526 63.267 115.516C63.2161 115.506 63.1685 115.484 63.1288 115.45C62.1366 114.655 61.9104 115.404 61.6389 116.144C61.5114 116.549 61.3088 116.93 61.1331 117.317C60.8176 118.006 60.682 118.608 61.6828 118.831C62.1842 118.945 62.0011 119.405 61.9064 119.645C61.774 119.985 61.4452 119.757 61.2798 119.616C60.4954 118.918 59.9583 119.251 59.4828 120.004C59.383 120.209 59.2452 120.393 59.0767 120.547C58.6701 120.829 58.5881 121.029 59.0716 121.33C59.17 121.394 59.2412 121.492 59.2713 121.606C59.3013 121.719 59.2881 121.84 59.2343 121.944C59.2221 121.984 59.2009 122.02 59.1724 122.051C59.1438 122.081 59.1087 122.105 59.0697 122.119C59.0307 122.134 58.9888 122.14 58.9473 122.136C58.9058 122.132 58.8658 122.118 58.8303 122.096C57.7873 121.361 56.8028 122.005 55.703 122.227ZM59.9248 99.6148C59.9878 99.7172 60.0103 99.7974 60.0556 99.8149C60.5258 100.007 60.7689 100.386 60.4989 100.809C60.1822 101.31 59.918 100.817 59.6484 100.634C59.4961 100.515 59.3196 100.431 59.1313 100.388C58.4152 100.28 58.0535 100.783 57.6317 101.245C57.135 101.813 57.7597 101.847 57.9655 102.113C58.1713 102.378 58.5714 102.51 58.2627 102.915C57.9155 103.371 57.6107 103.027 57.3442 102.804C56.9339 102.461 56.5156 102.276 56.2124 102.835C55.9631 103.294 54.8996 103.623 55.8738 104.375C56.1302 104.57 56.2701 104.852 55.99 105.136C55.71 105.42 55.5524 105.224 55.3333 105.021C54.9535 104.673 54.6483 104.653 54.3538 105.215C53.8605 106.166 53.2638 107.062 52.7105 107.981C53.1978 108.452 53.9611 108.228 54.4117 108.745C54.7128 109.091 54.8334 109.425 54.5037 109.775C54.174 110.126 54.0222 109.76 53.8063 109.578C52.9243 108.836 52.4142 108.952 51.7827 109.948C51.5603 110.386 51.3717 110.84 51.2186 111.306C50.9167 112.002 51.1085 112.291 51.8606 112.144C52.2237 112.07 52.4477 112.166 52.4646 112.547C52.4815 112.927 52.3648 113.116 51.9511 113.087C51.7215 113.088 51.4923 113.109 51.2666 113.152C50.2753 113.272 50.9172 114.1 50.6755 114.555C50.4579 114.963 50.7252 115.123 51.1635 115.074C51.2211 115.062 51.2805 115.063 51.3376 115.077C51.3946 115.091 51.4479 115.118 51.4936 115.155C51.5394 115.191 51.5764 115.238 51.6022 115.291C51.6279 115.343 51.6418 115.401 51.6427 115.46C51.6513 115.592 51.6137 115.724 51.5363 115.831C51.4589 115.939 51.3465 116.017 51.2182 116.051C50.1142 116.196 50.4055 117.047 50.3274 117.709C50.2817 118.076 50.3595 118.314 50.8365 118.283C51.1602 118.264 51.6164 118.077 51.7194 118.618C51.8084 119.072 51.4387 119.267 51.1137 119.381C50.7886 119.494 50.7099 119.603 50.902 119.911C51.8141 121.365 52.8958 122.583 54.7577 122.807C54.7244 122.712 54.6844 122.62 54.638 122.531C53.2197 120.156 52.7032 117.35 53.1829 114.626C53.6623 111.981 54.7329 109.478 56.3148 107.304C58.3205 104.481 60.8119 102.037 63.6729 100.086C61.8491 97.9546 62.2951 97.9615 59.9248 99.6148V99.6148ZM82.8633 75.5794C83.5 75.7375 84.1348 75.8951 84.7676 76.052C85.3028 76.1792 85.6197 76.031 85.7228 75.431C85.8803 74.5271 86.2691 73.6961 86.3575 72.7895C86.4101 72.3198 86.2662 72.2014 85.8687 72.1716C84.7735 72.0969 83.7518 71.6575 82.6647 71.4964C81.9764 71.3909 81.7427 71.6892 81.6614 72.1594C81.6108 72.4613 81.5791 72.8041 81.5067 73.115C81.0689 74.9795 81.0689 74.9795 82.8633 75.5794ZM25.2052 139.706C25.9079 139.927 26.5985 140.116 27.2698 140.356C29.4664 141.162 29.4943 141.165 30.9842 139.441C31.0767 139.349 31.1644 139.253 31.2469 139.152C31.4847 138.81 31.9364 138.415 31.8875 138.127C31.8203 137.664 31.2183 138.011 30.8703 137.844C28.7322 136.812 26.9253 137.12 25.5726 139.196C25.466 139.362 25.1922 139.384 25.2052 139.706Z" fill="#474848"/>
<path d="M70.2912 115.264C70.6496 114.045 70.4961 113.009 70.3065 111.986C70.2543 111.771 70.2309 111.55 70.237 111.328C70.2486 111.196 70.301 111.071 70.3869 110.97C70.4728 110.869 70.588 110.797 70.7166 110.764C71.054 110.702 71.0771 111.053 71.1149 111.306C71.4081 112.876 71.3802 114.489 71.033 116.048C70.893 116.619 70.5553 117.123 70.0797 117.47C69.7747 117.692 69.6034 117.883 69.29 117.606C68.9767 117.329 69.0466 117.037 69.2504 116.723C69.6429 116.173 70.2532 115.799 70.2912 115.264Z" fill="#474848"/>
<path d="M26.7636 131.297C27.006 131.002 26.7245 130.22 27.3329 130.367C27.9413 130.514 27.7027 131.211 27.6168 131.636C27.3289 133.055 26.2953 134.026 25.4124 135.073C25.248 135.273 25.0884 135.477 24.9268 135.677C24.7653 135.877 24.5921 136.185 24.2323 136.116C24.1908 136.112 24.1506 136.099 24.1143 136.078C24.078 136.057 24.0463 136.029 24.0214 135.996C23.9964 135.962 23.9787 135.924 23.9692 135.883C23.9598 135.842 23.9589 135.8 23.9665 135.759C24.0721 135.424 23.7669 135 24.2265 134.732C25.5655 133.961 26.0995 132.579 26.7636 131.297Z" fill="#474848"/>
<path d="M26.121 131.168C25.3187 132.504 24.3114 133.503 23.355 134.562C23.3244 134.602 23.2839 134.632 23.2375 134.651C23.1912 134.67 23.1407 134.676 23.0912 134.669C23.0417 134.662 22.995 134.642 22.9559 134.61C22.9168 134.579 22.8866 134.538 22.8686 134.492C22.7098 134.168 22.5899 133.701 22.8608 133.507C23.846 132.791 24.2514 131.634 25.062 130.796C25.2514 130.598 25.4725 130.29 25.805 130.506C25.9228 130.566 26.0174 130.664 26.0745 130.784C26.1315 130.903 26.1479 131.038 26.121 131.168V131.168Z" fill="#474848"/>
<path d="M73.2044 115.168C73.1728 115.316 73.1094 115.455 73.0185 115.576C72.8309 115.768 72.6603 116.118 72.3127 115.971C71.9651 115.823 72.0676 115.477 72.1608 115.201C72.4158 114.392 72.6835 113.602 72.2352 112.765C72.1934 112.694 72.1676 112.614 72.1595 112.532C72.1513 112.449 72.1611 112.366 72.1881 112.288C72.2152 112.21 72.2588 112.139 72.316 112.079C72.3732 112.019 72.4427 111.973 72.5197 111.942C72.8707 111.837 73.0779 112.188 73.2238 112.482C73.4493 112.896 73.4409 114.346 73.2044 115.168Z" fill="#474848"/>
<defs>
<clipPath id="clip0_67:1700">
<rect width="53.6884" height="44.1764" fill="white" transform="translate(44.4595 124.81)"/>
</clipPath>
</defs>
</svg>
