<svg width="149" height="79" viewBox="0 0 149 79" fill="none" xmlns="http://www.w3.org/2000/svg">
<path d="M23.4672 59.5445L11.7561 44.1613V59.5445H3.27049V24.7089H11.7561V39.9929L23.3679 24.7089H33.3422L19.8447 41.7794L33.8385 59.5445H23.4672ZM59.5566 53.3912H46.5552L44.4711 59.5445H35.5885L48.1928 24.7089H58.0182L70.6226 59.5445H61.6407L59.5566 53.3912ZM57.3731 46.8409L53.0559 34.0877L48.7883 46.8409H57.3731ZM82.9443 24.7089V59.5445H74.4587V24.7089H82.9443ZM97.5793 52.9942H108.695V59.5445H89.0937V24.7089H97.5793V52.9942ZM129.217 59.8919C125.942 59.8919 122.932 59.131 120.186 57.6092C117.473 56.0874 115.306 53.9702 113.685 51.2574C112.097 48.5116 111.303 45.4349 111.303 42.0275C111.303 38.62 112.097 35.5599 113.685 32.8472C115.306 30.1344 117.473 28.0172 120.186 26.4954C122.932 24.9736 125.942 24.2127 129.217 24.2127C132.492 24.2127 135.486 24.9736 138.199 26.4954C140.945 28.0172 143.095 30.1344 144.65 32.8472C146.238 35.5599 147.032 38.62 147.032 42.0275C147.032 45.4349 146.238 48.5116 144.65 51.2574C143.062 53.9702 140.912 56.0874 138.199 57.6092C135.486 59.131 132.492 59.8919 129.217 59.8919ZM129.217 52.1506C131.996 52.1506 134.213 51.2243 135.867 49.3717C137.554 47.5191 138.398 45.071 138.398 42.0275C138.398 38.9508 137.554 36.5027 135.867 34.6832C134.213 32.8306 131.996 31.9043 129.217 31.9043C126.405 31.9043 124.156 32.8141 122.469 34.6336C120.814 36.4531 119.987 38.9177 119.987 42.0275C119.987 45.1041 120.814 47.5688 122.469 49.4214C124.156 51.2409 126.405 52.1506 129.217 52.1506Z" fill="#474848"/>
<path d="M75.8784 19.7147C92.3289 20.6598 94.0051 -0.421724 76.7391 1.45216C65.6473 3.44737 65.7308 16.2085 75.8784 19.7147Z" fill="#474848" stroke="#474848" stroke-width="0.708905" stroke-linecap="round" stroke-linejoin="round"/>
<path d="M73.9688 12.7347C75.5951 10.077 71.4945 5.26616 69.9198 9.48912C69.0085 11.8269 71.9876 13.9852 73.9688 12.7347Z" fill="#474848" stroke="white" stroke-width="0.708905" stroke-linecap="round" stroke-linejoin="round"/>
<path d="M86.702 13.0444C85.674 9.41436 78.6517 7.1329 78.3538 12.1343C78.9178 16.9421 86.7408 15.7839 86.702 13.0444Z" fill="#474848" stroke="white" stroke-width="0.708905" stroke-linecap="round" stroke-linejoin="round"/>
</svg>
