<svg width="1202" height="378" viewBox="0 0 1202 378" fill="none" xmlns="http://www.w3.org/2000/svg">
<rect width="214" height="378" rx="12" fill="#A9EBDF"/>
<rect x="5" y="46" width="204" height="327" rx="12" fill="white"/>
<path d="M82.2805 14.1V28H80.0005V18.48L75.7605 28H74.1805L69.9205 18.48V28H67.6405V14.1H70.1005L74.9805 25L79.8405 14.1H82.2805ZM89.9753 28.18C88.9353 28.18 87.9953 27.9467 87.1553 27.48C86.3153 27 85.6553 26.3333 85.1753 25.48C84.6953 24.6133 84.4553 23.6133 84.4553 22.48C84.4553 21.36 84.7019 20.3667 85.1953 19.5C85.6886 18.6333 86.3619 17.9667 87.2153 17.5C88.0686 17.0333 89.0219 16.8 90.0753 16.8C91.1286 16.8 92.0819 17.0333 92.9353 17.5C93.7886 17.9667 94.4619 18.6333 94.9553 19.5C95.4486 20.3667 95.6953 21.36 95.6953 22.48C95.6953 23.6 95.4419 24.5933 94.9353 25.46C94.4286 26.3267 93.7353 27 92.8553 27.48C91.9886 27.9467 91.0286 28.18 89.9753 28.18ZM89.9753 26.2C90.5619 26.2 91.1086 26.06 91.6153 25.78C92.1353 25.5 92.5553 25.08 92.8753 24.52C93.1953 23.96 93.3553 23.28 93.3553 22.48C93.3553 21.68 93.2019 21.0067 92.8953 20.46C92.5886 19.9 92.1819 19.48 91.6753 19.2C91.1686 18.92 90.6219 18.78 90.0353 18.78C89.4486 18.78 88.9019 18.92 88.3953 19.2C87.9019 19.48 87.5086 19.9 87.2153 20.46C86.9219 21.0067 86.7753 21.68 86.7753 22.48C86.7753 23.6667 87.0753 24.5867 87.6753 25.24C88.2886 25.88 89.0553 26.2 89.9753 26.2ZM103.427 16.8C104.294 16.8 105.067 16.98 105.747 17.34C106.441 17.7 106.981 18.2333 107.367 18.94C107.754 19.6467 107.947 20.5 107.947 21.5V28H105.687V21.84C105.687 20.8533 105.441 20.1 104.947 19.58C104.454 19.0467 103.781 18.78 102.927 18.78C102.074 18.78 101.394 19.0467 100.887 19.58C100.394 20.1 100.147 20.8533 100.147 21.84V28H97.8672V16.98H100.147V18.24C100.521 17.7867 100.994 17.4333 101.567 17.18C102.154 16.9267 102.774 16.8 103.427 16.8ZM110.013 22.44C110.013 21.3333 110.24 20.3533 110.693 19.5C111.16 18.6467 111.787 17.9867 112.573 17.52C113.373 17.04 114.26 16.8 115.233 16.8C115.953 16.8 116.66 16.96 117.353 17.28C118.06 17.5867 118.62 18 119.033 18.52V13.2H121.333V28H119.033V26.34C118.66 26.8733 118.14 27.3133 117.473 27.66C116.82 28.0067 116.067 28.18 115.213 28.18C114.253 28.18 113.373 27.94 112.573 27.46C111.787 26.9667 111.16 26.2867 110.693 25.42C110.24 24.54 110.013 23.5467 110.013 22.44ZM119.033 22.48C119.033 21.72 118.873 21.06 118.553 20.5C118.247 19.94 117.84 19.5133 117.333 19.22C116.827 18.9267 116.28 18.78 115.693 18.78C115.107 18.78 114.56 18.9267 114.053 19.22C113.547 19.5 113.133 19.92 112.813 20.48C112.507 21.0267 112.353 21.68 112.353 22.44C112.353 23.2 112.507 23.8667 112.813 24.44C113.133 25.0133 113.547 25.4533 114.053 25.76C114.573 26.0533 115.12 26.2 115.693 26.2C116.28 26.2 116.827 26.0533 117.333 25.76C117.84 25.4667 118.247 25.04 118.553 24.48C118.873 23.9067 119.033 23.24 119.033 22.48ZM123.486 22.44C123.486 21.3333 123.713 20.3533 124.166 19.5C124.633 18.6467 125.259 17.9867 126.046 17.52C126.846 17.04 127.726 16.8 128.686 16.8C129.553 16.8 130.306 16.9733 130.946 17.32C131.599 17.6533 132.119 18.0733 132.506 18.58V16.98H134.806V28H132.506V26.36C132.119 26.88 131.593 27.3133 130.926 27.66C130.259 28.0067 129.499 28.18 128.646 28.18C127.699 28.18 126.833 27.94 126.046 27.46C125.259 26.9667 124.633 26.2867 124.166 25.42C123.713 24.54 123.486 23.5467 123.486 22.44ZM132.506 22.48C132.506 21.72 132.346 21.06 132.026 20.5C131.719 19.94 131.313 19.5133 130.806 19.22C130.299 18.9267 129.753 18.78 129.166 18.78C128.579 18.78 128.033 18.9267 127.526 19.22C127.019 19.5 126.606 19.92 126.286 20.48C125.979 21.0267 125.826 21.68 125.826 22.44C125.826 23.2 125.979 23.8667 126.286 24.44C126.606 25.0133 127.019 25.4533 127.526 25.76C128.046 26.0533 128.593 26.2 129.166 26.2C129.753 26.2 130.299 26.0533 130.806 25.76C131.313 25.4667 131.719 25.04 132.026 24.48C132.346 23.9067 132.506 23.24 132.506 22.48ZM147.639 16.98L140.879 33.18H138.519L140.759 27.82L136.419 16.98H138.959L142.059 25.38L145.279 16.98H147.639Z" fill="black"/>
<rect x="247" width="214" height="378" rx="12" fill="#A9EBDF"/>
<rect x="252" y="46" width="204" height="327" rx="12" fill="white"/>
<path d="M321.699 14.1V15.96H317.999V28H315.719V15.96H311.999V14.1H321.699ZM333.906 16.98V28H331.626V26.7C331.266 27.1533 330.792 27.5133 330.206 27.78C329.632 28.0333 329.019 28.16 328.366 28.16C327.499 28.16 326.719 27.98 326.026 27.62C325.346 27.26 324.806 26.7267 324.406 26.02C324.019 25.3133 323.826 24.46 323.826 23.46V16.98H326.086V23.12C326.086 24.1067 326.332 24.8667 326.826 25.4C327.319 25.92 327.992 26.18 328.846 26.18C329.699 26.18 330.372 25.92 330.866 25.4C331.372 24.8667 331.626 24.1067 331.626 23.12V16.98H333.906ZM346.932 22.22C346.932 22.6333 346.905 23.0067 346.852 23.34H338.432C338.499 24.22 338.825 24.9267 339.412 25.46C339.999 25.9933 340.719 26.26 341.572 26.26C342.799 26.26 343.665 25.7467 344.172 24.72H346.632C346.299 25.7333 345.692 26.5667 344.812 27.22C343.945 27.86 342.865 28.18 341.572 28.18C340.519 28.18 339.572 27.9467 338.732 27.48C337.905 27 337.252 26.3333 336.772 25.48C336.305 24.6133 336.072 23.6133 336.072 22.48C336.072 21.3467 336.299 20.3533 336.752 19.5C337.219 18.6333 337.865 17.9667 338.692 17.5C339.532 17.0333 340.492 16.8 341.572 16.8C342.612 16.8 343.539 17.0267 344.352 17.48C345.165 17.9333 345.799 18.5733 346.252 19.4C346.705 20.2133 346.932 21.1533 346.932 22.22ZM344.552 21.5C344.539 20.66 344.239 19.9867 343.652 19.48C343.065 18.9733 342.339 18.72 341.472 18.72C340.685 18.72 340.012 18.9733 339.452 19.48C338.892 19.9733 338.559 20.6467 338.452 21.5H344.552ZM353.094 28.18C352.227 28.18 351.447 28.0267 350.754 27.72C350.074 27.4 349.534 26.9733 349.134 26.44C348.734 25.8933 348.52 25.2867 348.494 24.62H350.854C350.894 25.0867 351.114 25.48 351.514 25.8C351.927 26.1067 352.44 26.26 353.054 26.26C353.694 26.26 354.187 26.14 354.534 25.9C354.894 25.6467 355.074 25.3267 355.074 24.94C355.074 24.5267 354.874 24.22 354.474 24.02C354.087 23.82 353.467 23.6 352.614 23.36C351.787 23.1333 351.114 22.9133 350.594 22.7C350.074 22.4867 349.62 22.16 349.234 21.72C348.86 21.28 348.674 20.7 348.674 19.98C348.674 19.3933 348.847 18.86 349.194 18.38C349.54 17.8867 350.034 17.5 350.674 17.22C351.327 16.94 352.074 16.8 352.914 16.8C354.167 16.8 355.174 17.12 355.934 17.76C356.707 18.3867 357.12 19.2467 357.174 20.34H354.894C354.854 19.8467 354.654 19.4533 354.294 19.16C353.934 18.8667 353.447 18.72 352.834 18.72C352.234 18.72 351.774 18.8333 351.454 19.06C351.134 19.2867 350.974 19.5867 350.974 19.96C350.974 20.2533 351.08 20.5 351.294 20.7C351.507 20.9 351.767 21.06 352.074 21.18C352.38 21.2867 352.834 21.4267 353.434 21.6C354.234 21.8133 354.887 22.0333 355.394 22.26C355.914 22.4733 356.36 22.7933 356.734 23.22C357.107 23.6467 357.3 24.2133 357.314 24.92C357.314 25.5467 357.14 26.1067 356.794 26.6C356.447 27.0933 355.954 27.48 355.314 27.76C354.687 28.04 353.947 28.18 353.094 28.18ZM358.935 22.44C358.935 21.3333 359.162 20.3533 359.615 19.5C360.082 18.6467 360.709 17.9867 361.495 17.52C362.295 17.04 363.182 16.8 364.155 16.8C364.875 16.8 365.582 16.96 366.275 17.28C366.982 17.5867 367.542 18 367.955 18.52V13.2H370.255V28H367.955V26.34C367.582 26.8733 367.062 27.3133 366.395 27.66C365.742 28.0067 364.989 28.18 364.135 28.18C363.175 28.18 362.295 27.94 361.495 27.46C360.709 26.9667 360.082 26.2867 359.615 25.42C359.162 24.54 358.935 23.5467 358.935 22.44ZM367.955 22.48C367.955 21.72 367.795 21.06 367.475 20.5C367.169 19.94 366.762 19.5133 366.255 19.22C365.749 18.9267 365.202 18.78 364.615 18.78C364.029 18.78 363.482 18.9267 362.975 19.22C362.469 19.5 362.055 19.92 361.735 20.48C361.429 21.0267 361.275 21.68 361.275 22.44C361.275 23.2 361.429 23.8667 361.735 24.44C362.055 25.0133 362.469 25.4533 362.975 25.76C363.495 26.0533 364.042 26.2 364.615 26.2C365.202 26.2 365.749 26.0533 366.255 25.76C366.762 25.4667 367.169 25.04 367.475 24.48C367.795 23.9067 367.955 23.24 367.955 22.48ZM372.408 22.44C372.408 21.3333 372.635 20.3533 373.088 19.5C373.555 18.6467 374.181 17.9867 374.968 17.52C375.768 17.04 376.648 16.8 377.608 16.8C378.475 16.8 379.228 16.9733 379.868 17.32C380.521 17.6533 381.041 18.0733 381.428 18.58V16.98H383.728V28H381.428V26.36C381.041 26.88 380.515 27.3133 379.848 27.66C379.181 28.0067 378.421 28.18 377.568 28.18C376.621 28.18 375.755 27.94 374.968 27.46C374.181 26.9667 373.555 26.2867 373.088 25.42C372.635 24.54 372.408 23.5467 372.408 22.44ZM381.428 22.48C381.428 21.72 381.268 21.06 380.948 20.5C380.641 19.94 380.235 19.5133 379.728 19.22C379.221 18.9267 378.675 18.78 378.088 18.78C377.501 18.78 376.955 18.9267 376.448 19.22C375.941 19.5 375.528 19.92 375.208 20.48C374.901 21.0267 374.748 21.68 374.748 22.44C374.748 23.2 374.901 23.8667 375.208 24.44C375.528 25.0133 375.941 25.4533 376.448 25.76C376.968 26.0533 377.515 26.2 378.088 26.2C378.675 26.2 379.221 26.0533 379.728 25.76C380.235 25.4667 380.641 25.04 380.948 24.48C381.268 23.9067 381.428 23.24 381.428 22.48ZM396.561 16.98L389.801 33.18H387.441L389.681 27.82L385.341 16.98H387.881L390.981 25.38L394.201 16.98H396.561Z" fill="black"/>
<rect x="494" width="214" height="378" rx="12" fill="#A9EBDF"/>
<rect x="499" y="46" width="204" height="327" rx="12" fill="white"/>
<path d="M560.606 14.1L556.486 28H553.906L550.986 17.48L547.886 28L545.326 28.02L541.386 14.1H543.806L546.686 25.42L549.806 14.1H552.366L555.266 25.36L558.166 14.1H560.606ZM572.504 22.22C572.504 22.6333 572.478 23.0067 572.424 23.34H564.004C564.071 24.22 564.398 24.9267 564.984 25.46C565.571 25.9933 566.291 26.26 567.144 26.26C568.371 26.26 569.238 25.7467 569.744 24.72H572.204C571.871 25.7333 571.264 26.5667 570.384 27.22C569.518 27.86 568.438 28.18 567.144 28.18C566.091 28.18 565.144 27.9467 564.304 27.48C563.478 27 562.824 26.3333 562.344 25.48C561.878 24.6133 561.644 23.6133 561.644 22.48C561.644 21.3467 561.871 20.3533 562.324 19.5C562.791 18.6333 563.438 17.9667 564.264 17.5C565.104 17.0333 566.064 16.8 567.144 16.8C568.184 16.8 569.111 17.0267 569.924 17.48C570.738 17.9333 571.371 18.5733 571.824 19.4C572.278 20.2133 572.504 21.1533 572.504 22.22ZM570.124 21.5C570.111 20.66 569.811 19.9867 569.224 19.48C568.638 18.9733 567.911 18.72 567.044 18.72C566.258 18.72 565.584 18.9733 565.024 19.48C564.464 19.9733 564.131 20.6467 564.024 21.5H570.124ZM573.906 22.44C573.906 21.3333 574.133 20.3533 574.586 19.5C575.053 18.6467 575.679 17.9867 576.466 17.52C577.266 17.04 578.153 16.8 579.126 16.8C579.846 16.8 580.553 16.96 581.246 17.28C581.953 17.5867 582.513 18 582.926 18.52V13.2H585.226V28H582.926V26.34C582.553 26.8733 582.033 27.3133 581.366 27.66C580.713 28.0067 579.959 28.18 579.106 28.18C578.146 28.18 577.266 27.94 576.466 27.46C575.679 26.9667 575.053 26.2867 574.586 25.42C574.133 24.54 573.906 23.5467 573.906 22.44ZM582.926 22.48C582.926 21.72 582.766 21.06 582.446 20.5C582.139 19.94 581.733 19.5133 581.226 19.22C580.719 18.9267 580.173 18.78 579.586 18.78C578.999 18.78 578.453 18.9267 577.946 19.22C577.439 19.5 577.026 19.92 576.706 20.48C576.399 21.0267 576.246 21.68 576.246 22.44C576.246 23.2 576.399 23.8667 576.706 24.44C577.026 25.0133 577.439 25.4533 577.946 25.76C578.466 26.0533 579.013 26.2 579.586 26.2C580.173 26.2 580.719 26.0533 581.226 25.76C581.733 25.4667 582.139 25.04 582.446 24.48C582.766 23.9067 582.926 23.24 582.926 22.48ZM593.699 16.8C594.565 16.8 595.339 16.98 596.019 17.34C596.712 17.7 597.252 18.2333 597.639 18.94C598.025 19.6467 598.219 20.5 598.219 21.5V28H595.959V21.84C595.959 20.8533 595.712 20.1 595.219 19.58C594.725 19.0467 594.052 18.78 593.199 18.78C592.345 18.78 591.665 19.0467 591.159 19.58C590.665 20.1 590.419 20.8533 590.419 21.84V28H588.139V16.98H590.419V18.24C590.792 17.7867 591.265 17.4333 591.839 17.18C592.425 16.9267 593.045 16.8 593.699 16.8ZM611.145 22.22C611.145 22.6333 611.118 23.0067 611.065 23.34H602.645C602.712 24.22 603.038 24.9267 603.625 25.46C604.212 25.9933 604.932 26.26 605.785 26.26C607.012 26.26 607.878 25.7467 608.385 24.72H610.845C610.512 25.7333 609.905 26.5667 609.025 27.22C608.158 27.86 607.078 28.18 605.785 28.18C604.732 28.18 603.785 27.9467 602.945 27.48C602.118 27 601.465 26.3333 600.985 25.48C600.518 24.6133 600.285 23.6133 600.285 22.48C600.285 21.3467 600.512 20.3533 600.965 19.5C601.432 18.6333 602.078 17.9667 602.905 17.5C603.745 17.0333 604.705 16.8 605.785 16.8C606.825 16.8 607.752 17.0267 608.565 17.48C609.378 17.9333 610.012 18.5733 610.465 19.4C610.918 20.2133 611.145 21.1533 611.145 22.22ZM608.765 21.5C608.752 20.66 608.452 19.9867 607.865 19.48C607.278 18.9733 606.552 18.72 605.685 18.72C604.898 18.72 604.225 18.9733 603.665 19.48C603.105 19.9733 602.772 20.6467 602.665 21.5H608.765ZM617.307 28.18C616.44 28.18 615.66 28.0267 614.967 27.72C614.287 27.4 613.747 26.9733 613.347 26.44C612.947 25.8933 612.733 25.2867 612.707 24.62H615.067C615.107 25.0867 615.327 25.48 615.727 25.8C616.14 26.1067 616.653 26.26 617.267 26.26C617.907 26.26 618.4 26.14 618.747 25.9C619.107 25.6467 619.287 25.3267 619.287 24.94C619.287 24.5267 619.087 24.22 618.687 24.02C618.3 23.82 617.68 23.6 616.827 23.36C616 23.1333 615.327 22.9133 614.807 22.7C614.287 22.4867 613.833 22.16 613.447 21.72C613.073 21.28 612.887 20.7 612.887 19.98C612.887 19.3933 613.06 18.86 613.407 18.38C613.753 17.8867 614.247 17.5 614.887 17.22C615.54 16.94 616.287 16.8 617.127 16.8C618.38 16.8 619.387 17.12 620.147 17.76C620.92 18.3867 621.333 19.2467 621.387 20.34H619.107C619.067 19.8467 618.867 19.4533 618.507 19.16C618.147 18.8667 617.66 18.72 617.047 18.72C616.447 18.72 615.987 18.8333 615.667 19.06C615.347 19.2867 615.187 19.5867 615.187 19.96C615.187 20.2533 615.293 20.5 615.507 20.7C615.72 20.9 615.98 21.06 616.287 21.18C616.593 21.2867 617.047 21.4267 617.647 21.6C618.447 21.8133 619.1 22.0333 619.607 22.26C620.127 22.4733 620.573 22.7933 620.947 23.22C621.32 23.6467 621.513 24.2133 621.527 24.92C621.527 25.5467 621.353 26.1067 621.007 26.6C620.66 27.0933 620.167 27.48 619.527 27.76C618.9 28.04 618.16 28.18 617.307 28.18ZM623.148 22.44C623.148 21.3333 623.375 20.3533 623.828 19.5C624.295 18.6467 624.922 17.9867 625.708 17.52C626.508 17.04 627.395 16.8 628.368 16.8C629.088 16.8 629.795 16.96 630.488 17.28C631.195 17.5867 631.755 18 632.168 18.52V13.2H634.468V28H632.168V26.34C631.795 26.8733 631.275 27.3133 630.608 27.66C629.955 28.0067 629.202 28.18 628.348 28.18C627.388 28.18 626.508 27.94 625.708 27.46C624.922 26.9667 624.295 26.2867 623.828 25.42C623.375 24.54 623.148 23.5467 623.148 22.44ZM632.168 22.48C632.168 21.72 632.008 21.06 631.688 20.5C631.382 19.94 630.975 19.5133 630.468 19.22C629.962 18.9267 629.415 18.78 628.828 18.78C628.242 18.78 627.695 18.9267 627.188 19.22C626.682 19.5 626.268 19.92 625.948 20.48C625.642 21.0267 625.488 21.68 625.488 22.44C625.488 23.2 625.642 23.8667 625.948 24.44C626.268 25.0133 626.682 25.4533 627.188 25.76C627.708 26.0533 628.255 26.2 628.828 26.2C629.415 26.2 629.962 26.0533 630.468 25.76C630.975 25.4667 631.382 25.04 631.688 24.48C632.008 23.9067 632.168 23.24 632.168 22.48ZM636.621 22.44C636.621 21.3333 636.848 20.3533 637.301 19.5C637.768 18.6467 638.394 17.9867 639.181 17.52C639.981 17.04 640.861 16.8 641.821 16.8C642.688 16.8 643.441 16.9733 644.081 17.32C644.734 17.6533 645.254 18.0733 645.641 18.58V16.98H647.941V28H645.641V26.36C645.254 26.88 644.728 27.3133 644.061 27.66C643.394 28.0067 642.634 28.18 641.781 28.18C640.834 28.18 639.968 27.94 639.181 27.46C638.394 26.9667 637.768 26.2867 637.301 25.42C636.848 24.54 636.621 23.5467 636.621 22.44ZM645.641 22.48C645.641 21.72 645.481 21.06 645.161 20.5C644.854 19.94 644.448 19.5133 643.941 19.22C643.434 18.9267 642.888 18.78 642.301 18.78C641.714 18.78 641.168 18.9267 640.661 19.22C640.154 19.5 639.741 19.92 639.421 20.48C639.114 21.0267 638.961 21.68 638.961 22.44C638.961 23.2 639.114 23.8667 639.421 24.44C639.741 25.0133 640.154 25.4533 640.661 25.76C641.181 26.0533 641.728 26.2 642.301 26.2C642.888 26.2 643.434 26.0533 643.941 25.76C644.448 25.4667 644.854 25.04 645.161 24.48C645.481 23.9067 645.641 23.24 645.641 22.48ZM660.774 16.98L654.014 33.18H651.654L653.894 27.82L649.554 16.98H652.094L655.194 25.38L658.414 16.98H660.774Z" fill="black"/>
<rect x="741" width="214" height="378" rx="12" fill="#A9EBDF"/>
<rect x="746" y="46" width="204" height="327" rx="12" fill="white"/>
<path d="M811.579 14.1V15.96H807.879V28H805.599V15.96H801.879V14.1H811.579ZM819.507 16.8C820.347 16.8 821.093 16.98 821.747 17.34C822.413 17.7 822.933 18.2333 823.307 18.94C823.693 19.6467 823.887 20.5 823.887 21.5V28H821.627V21.84C821.627 20.8533 821.38 20.1 820.887 19.58C820.393 19.0467 819.72 18.78 818.867 18.78C818.013 18.78 817.333 19.0467 816.827 19.58C816.333 20.1 816.087 20.8533 816.087 21.84V28H813.807V13.2H816.087V18.26C816.473 17.7933 816.96 17.4333 817.547 17.18C818.147 16.9267 818.8 16.8 819.507 16.8ZM836.693 16.98V28H834.413V26.7C834.053 27.1533 833.58 27.5133 832.993 27.78C832.42 28.0333 831.806 28.16 831.153 28.16C830.286 28.16 829.506 27.98 828.813 27.62C828.133 27.26 827.593 26.7267 827.193 26.02C826.806 25.3133 826.613 24.46 826.613 23.46V16.98H828.873V23.12C828.873 24.1067 829.12 24.8667 829.613 25.4C830.106 25.92 830.78 26.18 831.633 26.18C832.486 26.18 833.16 25.92 833.653 25.4C834.16 24.8667 834.413 24.1067 834.413 23.12V16.98H836.693ZM841.899 18.58C842.232 18.02 842.672 17.5867 843.219 17.28C843.779 16.96 844.439 16.8 845.199 16.8V19.16H844.619C843.726 19.16 843.046 19.3867 842.579 19.84C842.126 20.2933 841.899 21.08 841.899 22.2V28H839.619V16.98H841.899V18.58ZM851.213 28.18C850.346 28.18 849.566 28.0267 848.873 27.72C848.193 27.4 847.653 26.9733 847.253 26.44C846.853 25.8933 846.64 25.2867 846.613 24.62H848.973C849.013 25.0867 849.233 25.48 849.633 25.8C850.046 26.1067 850.56 26.26 851.173 26.26C851.813 26.26 852.306 26.14 852.653 25.9C853.013 25.6467 853.193 25.3267 853.193 24.94C853.193 24.5267 852.993 24.22 852.593 24.02C852.206 23.82 851.586 23.6 850.733 23.36C849.906 23.1333 849.233 22.9133 848.713 22.7C848.193 22.4867 847.74 22.16 847.353 21.72C846.98 21.28 846.793 20.7 846.793 19.98C846.793 19.3933 846.966 18.86 847.313 18.38C847.66 17.8867 848.153 17.5 848.793 17.22C849.446 16.94 850.193 16.8 851.033 16.8C852.286 16.8 853.293 17.12 854.053 17.76C854.826 18.3867 855.24 19.2467 855.293 20.34H853.013C852.973 19.8467 852.773 19.4533 852.413 19.16C852.053 18.8667 851.566 18.72 850.953 18.72C850.353 18.72 849.893 18.8333 849.573 19.06C849.253 19.2867 849.093 19.5867 849.093 19.96C849.093 20.2533 849.2 20.5 849.413 20.7C849.626 20.9 849.886 21.06 850.193 21.18C850.5 21.2867 850.953 21.4267 851.553 21.6C852.353 21.8133 853.006 22.0333 853.513 22.26C854.033 22.4733 854.48 22.7933 854.853 23.22C855.226 23.6467 855.42 24.2133 855.433 24.92C855.433 25.5467 855.26 26.1067 854.913 26.6C854.566 27.0933 854.073 27.48 853.433 27.76C852.806 28.04 852.066 28.18 851.213 28.18ZM857.054 22.44C857.054 21.3333 857.281 20.3533 857.734 19.5C858.201 18.6467 858.828 17.9867 859.614 17.52C860.414 17.04 861.301 16.8 862.274 16.8C862.994 16.8 863.701 16.96 864.394 17.28C865.101 17.5867 865.661 18 866.074 18.52V13.2H868.374V28H866.074V26.34C865.701 26.8733 865.181 27.3133 864.514 27.66C863.861 28.0067 863.108 28.18 862.254 28.18C861.294 28.18 860.414 27.94 859.614 27.46C858.828 26.9667 858.201 26.2867 857.734 25.42C857.281 24.54 857.054 23.5467 857.054 22.44ZM866.074 22.48C866.074 21.72 865.914 21.06 865.594 20.5C865.288 19.94 864.881 19.5133 864.374 19.22C863.868 18.9267 863.321 18.78 862.734 18.78C862.148 18.78 861.601 18.9267 861.094 19.22C860.588 19.5 860.174 19.92 859.854 20.48C859.548 21.0267 859.394 21.68 859.394 22.44C859.394 23.2 859.548 23.8667 859.854 24.44C860.174 25.0133 860.588 25.4533 861.094 25.76C861.614 26.0533 862.161 26.2 862.734 26.2C863.321 26.2 863.868 26.0533 864.374 25.76C864.881 25.4667 865.288 25.04 865.594 24.48C865.914 23.9067 866.074 23.24 866.074 22.48ZM870.527 22.44C870.527 21.3333 870.754 20.3533 871.207 19.5C871.674 18.6467 872.301 17.9867 873.087 17.52C873.887 17.04 874.767 16.8 875.727 16.8C876.594 16.8 877.347 16.9733 877.987 17.32C878.641 17.6533 879.161 18.0733 879.547 18.58V16.98H881.847V28H879.547V26.36C879.161 26.88 878.634 27.3133 877.967 27.66C877.301 28.0067 876.541 28.18 875.687 28.18C874.741 28.18 873.874 27.94 873.087 27.46C872.301 26.9667 871.674 26.2867 871.207 25.42C870.754 24.54 870.527 23.5467 870.527 22.44ZM879.547 22.48C879.547 21.72 879.387 21.06 879.067 20.5C878.761 19.94 878.354 19.5133 877.847 19.22C877.341 18.9267 876.794 18.78 876.207 18.78C875.621 18.78 875.074 18.9267 874.567 19.22C874.061 19.5 873.647 19.92 873.327 20.48C873.021 21.0267 872.867 21.68 872.867 22.44C872.867 23.2 873.021 23.8667 873.327 24.44C873.647 25.0133 874.061 25.4533 874.567 25.76C875.087 26.0533 875.634 26.2 876.207 26.2C876.794 26.2 877.341 26.0533 877.847 25.76C878.354 25.4667 878.761 25.04 879.067 24.48C879.387 23.9067 879.547 23.24 879.547 22.48ZM894.68 16.98L887.92 33.18H885.56L887.8 27.82L883.46 16.98H886L889.1 25.38L892.32 16.98H894.68Z" fill="black"/>
<rect x="988" width="214" height="378" rx="12" fill="#A9EBDF"/>
<rect x="993" y="46" width="204" height="327" rx="12" fill="white"/>
<path d="M1073.89 14.1V15.96H1067.99V20.06H1072.59V21.92H1067.99V28H1065.71V14.1H1073.89ZM1078.2 18.58C1078.53 18.02 1078.97 17.5867 1079.52 17.28C1080.08 16.96 1080.74 16.8 1081.5 16.8V19.16H1080.92C1080.03 19.16 1079.35 19.3867 1078.88 19.84C1078.43 20.2933 1078.2 21.08 1078.2 22.2V28H1075.92V16.98H1078.2V18.58ZM1084.67 15.52C1084.26 15.52 1083.91 15.38 1083.63 15.1C1083.35 14.82 1083.21 14.4733 1083.21 14.06C1083.21 13.6467 1083.35 13.3 1083.63 13.02C1083.91 12.74 1084.26 12.6 1084.67 12.6C1085.07 12.6 1085.41 12.74 1085.69 13.02C1085.97 13.3 1086.11 13.6467 1086.11 14.06C1086.11 14.4733 1085.97 14.82 1085.69 15.1C1085.41 15.38 1085.07 15.52 1084.67 15.52ZM1085.79 16.98V28H1083.51V16.98H1085.79ZM1087.95 22.44C1087.95 21.3333 1088.17 20.3533 1088.63 19.5C1089.09 18.6467 1089.72 17.9867 1090.51 17.52C1091.31 17.04 1092.19 16.8 1093.17 16.8C1093.89 16.8 1094.59 16.96 1095.29 17.28C1095.99 17.5867 1096.55 18 1096.97 18.52V13.2H1099.27V28H1096.97V26.34C1096.59 26.8733 1096.07 27.3133 1095.41 27.66C1094.75 28.0067 1094 28.18 1093.15 28.18C1092.19 28.18 1091.31 27.94 1090.51 27.46C1089.72 26.9667 1089.09 26.2867 1088.63 25.42C1088.17 24.54 1087.95 23.5467 1087.95 22.44ZM1096.97 22.48C1096.97 21.72 1096.81 21.06 1096.49 20.5C1096.18 19.94 1095.77 19.5133 1095.27 19.22C1094.76 18.9267 1094.21 18.78 1093.63 18.78C1093.04 18.78 1092.49 18.9267 1091.99 19.22C1091.48 19.5 1091.07 19.92 1090.75 20.48C1090.44 21.0267 1090.29 21.68 1090.29 22.44C1090.29 23.2 1090.44 23.8667 1090.75 24.44C1091.07 25.0133 1091.48 25.4533 1091.99 25.76C1092.51 26.0533 1093.05 26.2 1093.63 26.2C1094.21 26.2 1094.76 26.0533 1095.27 25.76C1095.77 25.4667 1096.18 25.04 1096.49 24.48C1096.81 23.9067 1096.97 23.24 1096.97 22.48ZM1101.42 22.44C1101.42 21.3333 1101.64 20.3533 1102.1 19.5C1102.56 18.6467 1103.19 17.9867 1103.98 17.52C1104.78 17.04 1105.66 16.8 1106.62 16.8C1107.48 16.8 1108.24 16.9733 1108.88 17.32C1109.53 17.6533 1110.05 18.0733 1110.44 18.58V16.98H1112.74V28H1110.44V26.36C1110.05 26.88 1109.52 27.3133 1108.86 27.66C1108.19 28.0067 1107.43 28.18 1106.58 28.18C1105.63 28.18 1104.76 27.94 1103.98 27.46C1103.19 26.9667 1102.56 26.2867 1102.1 25.42C1101.64 24.54 1101.42 23.5467 1101.42 22.44ZM1110.44 22.48C1110.44 21.72 1110.28 21.06 1109.96 20.5C1109.65 19.94 1109.24 19.5133 1108.74 19.22C1108.23 18.9267 1107.68 18.78 1107.1 18.78C1106.51 18.78 1105.96 18.9267 1105.46 19.22C1104.95 19.5 1104.54 19.92 1104.22 20.48C1103.91 21.0267 1103.76 21.68 1103.76 22.44C1103.76 23.2 1103.91 23.8667 1104.22 24.44C1104.54 25.0133 1104.95 25.4533 1105.46 25.76C1105.98 26.0533 1106.52 26.2 1107.1 26.2C1107.68 26.2 1108.23 26.0533 1108.74 25.76C1109.24 25.4667 1109.65 25.04 1109.96 24.48C1110.28 23.9067 1110.44 23.24 1110.44 22.48ZM1125.57 16.98L1118.81 33.18H1116.45L1118.69 27.82L1114.35 16.98H1116.89L1119.99 25.38L1123.21 16.98H1125.57Z" fill="black"/>
</svg>
