<svg width="343" height="309" viewBox="0 0 343 309" fill="none" xmlns="http://www.w3.org/2000/svg">
<path d="M81.625 191.333C83.7537 191.935 84.3388 192.997 83.4121 194.878C82.8324 196.05 82.6927 197.23 83.9605 198.432C85.2284 199.635 84.0623 200.95 83.2046 201.913C82.3469 202.876 81.5262 203.851 82.2016 205.385C82.7754 206.677 82.058 207.677 81.0425 208.489C79.8533 209.512 78.5601 210.407 77.1841 211.161C75.1637 212.21 74.6224 213.82 75.655 215.697C79.6271 222.9 82.4188 230.642 85.8526 238.109L86.4422 239.428C86.7432 240.09 86.4695 240.553 85.9633 240.988C85.3754 241.5 84.8754 241.256 84.3386 240.923C82.1805 239.6 80.0145 238.302 77.8775 236.965C75.3347 235.385 75.2112 235.457 73.0216 237.609C71.5808 239.001 71.0049 240.88 70.0306 242.528C69.6318 243.204 69.7932 244.478 68.6634 244.359C67.2308 244.212 67.3314 243.044 67.3027 241.872C67.2722 240.461 67.0712 239.082 65.7827 238.012C62.9907 235.652 61.7044 235.581 59.5478 238.476C58.6085 239.745 57.4445 240.808 56.5988 242.114C56.1244 242.831 55.5988 243.216 54.8386 242.801C54.563 242.663 54.3417 242.436 54.2096 242.158C54.0776 241.879 54.0425 241.564 54.11 241.264C55.427 235.163 54.2189 229.002 54.6035 222.888C54.7319 220.914 54.0077 219.405 52.97 217.875C52.2152 216.774 51.4713 216.351 50.3027 217.081C48.9703 217.924 47.973 217.376 47.1932 216.303C46.8367 215.755 46.3485 215.306 45.7733 214.996C45.198 214.686 44.5542 214.526 43.9008 214.529C41.0697 214.381 40.7566 214.02 41.049 211.213C41.1843 209.853 40.9528 209.339 39.6449 208.862C36.9295 207.871 36.5216 206.933 37.8119 204.224C38.5757 202.615 39.0826 201.653 37.1219 200.435C35.05 199.14 36.6423 197.326 37.4101 196.008C38.0589 194.867 38.7461 194.164 37.4471 193.025C36.769 192.421 37.3309 191.703 37.9949 191.267C38.8027 190.739 39.6244 190.226 40.4414 189.719C41.0633 189.313 41.7453 188.805 41.4746 187.998C40.5811 185.316 42.8003 184.798 44.2348 183.933C44.6137 182.939 43.8763 182.444 43.6808 181.784C43.3832 180.765 43.676 179.819 44.7162 180.039C46.5982 180.445 48.0987 178.68 49.9325 179.38C50.0425 179.421 50.1612 179.433 50.2771 179.415C51.5628 179.14 51.5176 176.345 53.5803 177.618C54.9135 178.448 56.0778 177.993 57.3422 177.506C58.0213 177.243 58.7582 177.621 59.4536 177.654C61.4943 177.76 63.3993 178.391 65.6458 177.974C66.7489 177.814 67.8741 177.917 68.9297 178.275C69.9853 178.632 70.9415 179.234 71.7201 180.032C72.2408 180.601 72.8138 181.092 73.5569 180.562C74.4956 179.896 75.3847 179.402 76.5174 180.146C77.6501 180.89 79.0505 181.662 79.4235 183.208C79.5717 184.152 80.0803 185.003 80.8426 185.58C83.7079 187.695 83.6565 187.703 81.625 191.333ZM46.1714 181.47C47.3504 183.575 47.2266 184.934 44.9001 185.439C44.0794 185.619 43.2296 186.329 43.5223 187.278C44.1857 189.417 42.7362 190.032 41.3307 190.782C40.5845 191.178 39.5468 191.695 40.0251 192.633C40.9798 194.498 39.8839 195.51 38.8699 196.748C38.2139 197.54 37.3744 198.734 38.7181 199.556C40.9712 200.964 40.5955 202.473 39.5194 204.37C38.8697 205.506 38.7983 207.015 40.4596 207.203C43.0027 207.495 43.4718 208.716 42.871 210.926C42.5445 212.147 43.0226 212.857 44.3584 212.604C45.4951 212.388 46.5119 212.418 47.2636 213.46C48.2089 214.771 49.3837 215.333 51.0183 214.742C51.4116 214.599 52.1779 214.674 52.3639 214.932C54.2435 217.824 57.2457 216.238 59.6619 216.731C61.4758 217.112 61.6619 214.527 63.3146 214.166C64.8091 213.842 66.474 215.305 67.7613 213.714C68.6461 212.624 69.4839 212.442 70.8891 212.98C72.2942 213.518 73.7144 213.129 74.2133 211.245C74.5767 209.808 75.6316 209.364 77.1859 209.201C79.3503 208.972 81.2042 206.352 80.2941 204.889C79.2599 203.229 80.0157 202.592 81.0654 201.623C81.7017 201.045 83.058 200.356 82.1414 199.345C80.9135 197.984 81.3842 196.636 81.6421 195.274C81.8772 194.067 81.8192 193.199 80.4958 192.66C79.8222 192.39 79.2575 191.611 79.8374 190.895C81.4586 188.89 81.4751 187.443 78.8784 186.31C78.1257 185.982 78.1059 184.868 77.7143 184.15C76.9013 182.672 75.9143 181.28 73.7871 182.281C73.3488 182.503 72.8518 182.581 72.3665 182.505C71.8812 182.429 71.4322 182.202 71.083 181.856C68.5544 179.497 65.3302 180.895 62.495 180.227C60.9852 181.817 59.7924 182.2 59.1745 179.522C59.1418 179.311 58.3715 179.02 58.3148 179.07C56.4603 181.193 52.5446 177.579 51.4043 181.563C51.3578 181.717 50.5115 181.654 50.0355 181.64C48.958 181.596 47.8876 181.521 46.16 181.472L46.1714 181.47ZM83.6535 237.583C80.9219 230.534 78.1196 223.518 74.5442 216.839C74.2932 216.426 73.9755 216.058 73.6038 215.75C72.4728 214.713 69.6069 214.301 68.759 215.327C67.5134 216.847 66.3089 216.776 64.6641 216.164C63.3742 215.69 62.5511 216.308 62.9316 217.864C63.1289 218.688 63.2242 219.533 63.4491 220.347C64.7312 224.865 65.9627 229.396 67.0768 233.963C67.5625 235.935 67.8005 238.122 69.0822 239.907C70.5303 239.017 70.7859 237.603 71.527 236.529C73.6081 233.522 74.8774 233.18 78.1316 234.971C79.295 235.611 80.3618 236.382 81.4958 237.097C82.0731 237.464 82.6159 238.024 83.6421 237.585L83.6535 237.583ZM65.6187 234.825C64.7336 229.956 63.5231 225.151 61.9955 220.443C61.6296 219.247 58.4065 217.96 57.0848 218.38C55.4788 218.892 55.9322 220.313 55.9226 221.426C55.8927 225.632 55.8743 229.835 55.9672 234.039C56.0061 235.618 56.0679 237.27 56.9825 238.837C61.8262 233.527 61.8262 233.527 65.6072 234.827L65.6187 234.825Z" fill="#474848"/>
<path d="M106.611 210.669C101.537 211.333 96.3834 210.36 91.9017 207.889C93.5726 207.117 95.087 207.983 96.6033 208.521C98.1905 209.052 99.8177 209.454 101.469 209.725C103.187 210.05 105.018 209.745 106.611 210.669Z" fill="#474848"/>
<path d="M10.1764 200.175C12.2788 198.634 16.9181 197.573 21.4463 197.383C17.3531 199.103 13.935 200.344 10.1764 200.175Z" fill="#474848"/>
<path d="M99.5605 170.962C96.4238 172.481 93.4048 174.232 90.5283 176.2C91.4507 173.419 94.5705 171.609 99.5605 170.962Z" fill="#474848"/>
<path d="M74.6488 169.476C74.8259 166.226 77.2917 164.576 79.2456 162.566C78.3751 165.303 76.4792 167.386 74.6488 169.476Z" fill="#474848"/>
<path d="M27.8667 182.387C25.3295 183.498 22.8669 182.515 20.3689 181.947C19.8418 181.829 19.5208 181.492 19.7852 180.931C20.0496 180.369 20.549 180.573 20.9935 180.686L27.8667 182.387Z" fill="#474848"/>
<path d="M24.7769 211.501C23.019 212.62 21.2752 213.755 19.4949 214.843C19.4004 214.915 19.2893 214.962 19.1719 214.979C19.0545 214.997 18.9346 214.985 18.8232 214.943C18.7118 214.902 18.6127 214.834 18.5349 214.744C18.4571 214.654 18.4032 214.546 18.3782 214.43C18.335 214.15 18.4908 213.606 18.7048 213.514C20.6233 212.639 22.3978 211.4 24.7769 211.501Z" fill="#474848"/>
<path d="M93.7914 189.953C96.415 188.226 99.3468 188.687 102.209 188.62C99.4305 189.23 96.7976 190.706 93.7914 189.953Z" fill="#474848"/>
<path d="M37.5349 160.834C40.1732 162.767 42.2936 164.453 42.4783 167.583C41.7146 166.392 40.8091 165.298 39.7818 164.325C38.9317 163.48 37.6083 162.865 37.5349 160.834Z" fill="#474848"/>
<path d="M62.4176 212.789C59.3251 213.408 56.1204 213.131 53.1797 211.992C45.0223 209.097 41.1291 198.348 46.9211 190.387C49.4991 186.848 52.5364 184.162 56.9072 183.066C58.5959 182.636 60.1664 182.312 61.8095 183.14C63.7089 184.076 65.8117 183.599 67.8147 184.144C72.8736 185.499 75.1654 189.054 76.8519 193.614C79.5238 200.807 72.3748 211.007 64.5802 212.473C63.8545 212.585 63.1376 212.678 62.4176 212.789ZM62.5484 211.324C67.3631 209.996 71.8753 207.732 74.3615 202.347C76.5591 197.632 76.0331 192.857 72.6048 189.028C69.1053 185.115 64.0345 185.769 59.7101 184.283C52.5258 185.041 47.6071 189.866 46.233 195.975C45.7938 197.944 45.4325 199.924 46.1288 202.011C48.5748 209.332 54.8428 212.191 62.5484 211.324Z" fill="#474848"/>
<path d="M74.3744 229.578C71.9548 226.295 70.6617 222.615 69.4237 218.308C71.3246 219.67 74.4285 226.668 74.3744 229.578Z" fill="#474848"/>
<path d="M59.9489 222.952C59.8918 225.161 61.1605 227.241 60.5216 229.697C58.9486 227.465 58.7556 225.418 59.9489 222.952Z" fill="#474848"/>
<path d="M69.7122 200.765C70.1502 203.377 69.3498 204.407 66.7791 204.505C66.1871 204.557 65.5907 204.523 65.0084 204.404C62.7592 203.78 60.825 203.833 59.2975 206.028C58.3108 207.444 56.7132 207.176 55.3441 206.492C53.9749 205.808 54.2842 204.438 54.5584 203.296C55.4834 199.357 57.148 196.04 61.6965 195.186C65.2331 194.523 69.1176 197.177 69.7122 200.765ZM56.4598 204.623C57.2917 205.01 57.9157 204.504 58.3507 203.986C59.8717 202.166 61.8076 202.049 63.9143 202.432C64.378 202.553 64.8506 202.636 65.3277 202.682C67.4056 202.765 68.1775 201.739 67.5846 199.754C66.9916 197.768 64.648 196.457 62.455 196.842C58.1215 197.61 56.4643 199.761 56.4598 204.623V204.623Z" fill="#474848"/>
<path d="M59.8296 191.239C59.5731 188.856 59.9957 188.03 61.5021 187.974C62.3472 187.946 63.1704 188.244 63.8017 188.807C64.4329 189.369 64.8238 190.153 64.8935 190.996C64.9579 192.436 64.4968 193.619 62.8771 193.928C61.2573 194.236 60.0295 193.103 59.8296 191.239ZM62.8973 191.935C63.2978 191.838 63.3929 191.356 63.3242 190.91C63.2095 190.167 62.7609 189.534 61.9635 189.675C61.2778 189.781 61.2316 190.543 61.3874 191.098C61.5433 191.653 62.0261 192.052 62.8964 191.93L62.8973 191.935Z" fill="#474848"/>
<path d="M66.5811 192.947C66.6325 191.839 66.1685 190.272 67.8484 189.785C69.0923 189.429 70.7622 191.342 71.054 193.081C71.2797 194.544 70.7429 195.388 69.3007 195.633C67.8585 195.879 66.8246 194.98 66.5811 192.947ZM68.7386 192.029C68.5395 192.155 68.391 192.348 68.3188 192.573C68.2467 192.798 68.2554 193.041 68.3435 193.26C68.4884 193.705 68.8859 194.083 69.353 193.736C69.5171 193.572 69.6207 193.357 69.6468 193.127C69.6729 192.896 69.62 192.664 69.4967 192.467C69.3554 192.121 69.1478 191.837 68.7369 192.017L68.7386 192.029Z" fill="#474848"/>
<path d="M53.6544 195.502C52.5708 195.57 50.959 193.882 51.0613 192.498C51.1435 191.362 51.2145 189.964 52.6377 189.557C53.9101 189.197 55.9885 191.217 56.0476 192.699C56.0543 193.88 54.7151 195.438 53.6544 195.502ZM54.3937 192.217C54.1614 191.774 53.9321 191.16 53.1779 191.352C53.0921 191.377 53.0121 191.42 52.9428 191.476C52.8734 191.533 52.8159 191.602 52.7737 191.681C52.7315 191.76 52.7053 191.847 52.6967 191.936C52.6881 192.025 52.6973 192.115 52.7237 192.2C52.8804 192.761 53.104 193.452 53.7955 193.421C54.3129 193.4 54.4418 192.795 54.3937 192.217Z" fill="#474848"/>
<path d="M49.635 196.942C50.6446 196.698 52.3205 197.891 52.5553 199.147C52.7038 199.739 52.6124 200.365 52.301 200.89C51.9897 201.415 51.4836 201.795 50.8931 201.949C50.6044 202.024 50.3036 202.041 50.0082 201.999C49.7128 201.957 49.4286 201.857 49.1722 201.704C48.9158 201.552 48.6921 201.35 48.5143 201.11C48.3365 200.871 48.2079 200.598 48.1362 200.309C47.8855 199.025 48.7137 197.189 49.635 196.942ZM50.1868 200.139C50.4408 199.965 50.7656 199.833 50.7506 199.736C50.7501 199.422 50.6347 199.119 50.4263 198.885C50.0899 198.638 49.8486 198.933 49.8501 199.284C49.9163 199.584 50.0259 199.872 50.1753 200.14L50.1868 200.139Z" fill="#474848"/>
<path d="M309.853 244.189C312.231 244.975 310.65 247.262 310.257 249.106C309.865 250.95 310.098 252.837 310.153 254.688C310.343 260.718 312.072 266.404 313.665 272.133C314.055 273.57 314.621 274.954 315.351 276.251C316.938 279.054 318.415 281.912 320.119 284.66C321.015 286.28 322.18 287.735 323.564 288.963C325.739 290.764 325.831 292.178 323.827 294.268C320.536 297.698 316.264 298.232 311.826 297.661C310.642 297.444 309.439 297.339 308.235 297.347C305.17 297.513 303.724 295.368 304.882 292.43C305.495 290.942 306.273 289.276 307.622 288.563C309.516 287.555 309.264 286.326 308.713 284.875C308.161 283.424 307.444 281.925 306.764 280.468C305.507 277.752 304.398 274.969 303.442 272.133C302.682 275.292 302.829 278.538 302.4 281.703C301.983 284.98 300.561 287.703 299.194 290.53C299.071 290.82 298.848 291.056 298.565 291.195C298.283 291.334 297.96 291.366 297.656 291.286C294.867 290.672 292.33 291.323 289.688 292.313C288.285 292.848 286.366 293.223 285.22 291.655C283.994 289.934 284.147 287.862 284.779 285.945C285.343 284.217 286.991 283.627 288.56 283.431C291.355 283.08 292.814 282.115 292.342 279.693C291.251 274.044 291.447 268.34 291.006 262.666C290.995 261.852 290.752 261.059 290.306 260.379C289.86 259.699 289.228 259.162 288.487 258.831C284.578 256.946 281.046 254.359 278.067 251.196C274.12 247.145 269.291 244.361 264.951 240.894C258.545 235.833 252.999 229.763 248.531 222.92C247.269 220.966 246.889 220.849 245.167 222.306C244.293 223 243.503 223.794 242.813 224.672C239.467 229.11 236.071 233.548 233.472 238.472C231.398 242.278 228.605 245.641 225.247 248.375C220.957 251.946 216.844 255.671 212.039 258.542C203.115 263.865 193.523 266.637 183.091 266.324C180.866 266.256 178.629 266.324 176.411 266.158C174.866 266.041 174.192 266.342 174.235 268.106C174.308 271.389 174.793 274.524 176.3 277.468C177.753 280.283 176.999 282.576 173.959 283.369C170.398 284.297 166.837 285.348 163.129 285.631C157.086 286.092 151.036 286.473 145.017 287.149C139.728 287.764 134.224 288.465 129.695 291.102C124.362 294.175 118.901 294.175 113.257 294.003C110.682 293.942 108.323 292.817 107.164 290.487C106.534 289.179 105.442 288.152 104.1 287.604C101.685 286.449 100.723 284.463 101.035 281.906C101.068 281.215 101.289 280.546 101.673 279.972C102.058 279.398 102.592 278.94 103.217 278.648C105.932 277.554 108.733 276.06 111.669 276.472C116.211 277.087 119.637 274.727 122.965 272.637C126.641 270.393 130.532 268.525 134.58 267.061C135.965 266.551 137.405 266.176 138.766 265.617C143.13 263.816 143.117 263.773 141.977 259.169C141.844 258.692 141.756 258.205 141.714 257.712C141.759 257.048 141.854 256.389 141.996 255.739C143.577 258.419 144.656 260.656 146.035 262.611C146.648 263.478 145.765 264.523 144.686 264.836C141.125 265.881 137.945 267.91 134.335 268.869C130.724 269.827 127.501 271.745 124.485 273.915C120.691 276.644 116.787 278.753 111.865 278.218C109.763 277.997 107.765 278.753 105.798 279.626C104.333 280.271 103.622 281.144 103.609 282.699C102.206 283.892 103.07 284.697 104.149 285.588C104.382 284.433 104.523 283.412 103.493 282.638C105.632 282.509 106.202 284.008 106.637 285.994C107.164 281.513 110.713 281.365 113.379 281.494C120.299 281.826 126.373 279.134 132.753 277.302C137.712 275.876 142.615 274.186 147.708 273.19C150.705 272.606 153.61 271.53 156.65 270.651C155.198 266.287 153.715 262.218 153.794 257.816C153.832 257.505 153.764 257.191 153.603 256.923C153.442 256.654 153.197 256.448 152.906 256.335C150.957 255.665 149.768 254.061 148.56 252.647C148.268 252.773 147.992 252.934 147.739 253.126C144.595 256.814 142.75 256.814 139.93 253.052C138.273 251.016 137.197 248.566 136.817 245.965C135.861 237.218 134.365 228.526 134.322 219.693C134.209 215.1 133.669 210.527 132.71 206.035C132.306 203.939 131.337 202.199 128.91 201.621C125.202 200.73 123.394 198.271 122.138 194.565C120.912 190.975 121.525 187.502 121.139 183.998C121.112 183.749 121.155 183.497 121.263 183.271C121.372 183.045 121.541 182.854 121.752 182.72C123.94 181.232 125.662 178.829 128.959 179.277C128.573 175.454 128.346 171.901 127.543 168.397C127.253 166.822 126.577 165.343 125.576 164.094C124.067 162.448 122.88 160.531 122.076 158.445C121.359 156.411 119.815 154.917 118.172 153.528C114.464 150.454 110.554 147.553 107.348 143.945C103.003 139.027 98.3017 134.442 94.7284 128.86C92.0194 124.631 92.4545 120.869 95.2739 116.886C96.9476 114.604 98.2814 112.091 99.2333 109.424C100.368 106.485 102.553 104.075 105.362 102.662C107.924 101.31 109.205 101.924 110.266 104.611C110.372 104.834 110.445 105.072 110.48 105.318C110.744 110.235 114.525 112.3 117.915 114.655C119.845 115.989 121.929 117.113 123.933 118.343C128.726 121.281 134.151 121.951 139.55 122.547C143.841 123.027 147.8 124.268 151.196 126.85C153.733 128.786 156.228 129.039 159.071 127.723C162.706 126.045 166.77 125.953 170.539 124.748C174.529 123.469 178.697 122.461 180.548 117.986C180.576 117.899 180.621 117.818 180.682 117.749C180.742 117.68 180.816 117.624 180.899 117.585C180.981 117.546 181.071 117.524 181.163 117.521C181.254 117.518 181.345 117.534 181.43 117.568C181.729 117.771 181.965 118.054 182.111 118.386C182.19 118.619 182.219 118.867 182.197 119.113C182.175 119.358 182.102 119.597 181.982 119.812C180.64 124.072 179.451 128.387 177.906 132.567C177.293 134.263 175.902 135.677 174.842 137.214C174.167 138.191 173.107 138.966 173.132 140.644C175.804 140.269 177.949 139.415 179.089 136.87C179.518 135.929 180.119 135.407 181.099 136.021C181.908 136.525 181.712 137.251 181.289 137.97C180.866 138.689 180.444 139.482 180.002 140.232C177.735 143.914 175.832 147.809 174.321 151.862C172.758 156.239 170.386 160.468 166.426 163.338C165.759 163.777 165.245 164.414 164.956 165.16C164.667 165.906 164.617 166.724 164.814 167.5C164.996 168.347 165.121 169.205 165.188 170.069C165.243 171.778 165.746 172.141 167.64 172.061C173.646 171.821 178.127 176.364 178.795 183.027C179.04 185.43 179.512 188.037 177.275 189.985C176.552 190.6 176.803 191.325 177.354 191.928C177.739 192.421 178.213 192.838 178.752 193.157C183.226 195.241 187.228 198.271 192.009 199.74C199.848 202.15 206.841 200.503 213.222 195.517C217.264 192.284 220.831 188.495 223.819 184.262C227.414 179.207 232.003 174.944 237.303 171.735C238.897 170.801 240.312 169.571 241.894 168.625C244.571 167.073 247.497 166.002 250.542 165.459C257.345 164.15 264.167 162.883 271.135 163.449C278.347 163.943 285.208 166.756 290.699 171.471C292.017 172.596 293.421 173.37 295.076 173.057C303.092 171.52 309.393 167.623 312.372 159.601C314.014 155.181 312.985 149.833 310.643 145.863C309.454 143.853 307.8 141.892 305.581 141.142C303.362 140.392 301.769 138.339 299.452 137.749C297.325 137.202 295.045 137.859 292.967 138.363C292.486 138.483 292.014 138.633 291.551 138.812C288.879 139.82 286.293 140.355 284.08 137.81C281.408 134.737 280.893 131.663 282.505 128.239C285.858 121.121 293.972 115.435 302.731 116.818C306.739 117.433 310.809 117.402 314.719 118.908C317.994 120.104 320.897 122.141 323.141 124.816C325.689 127.866 327.804 131.257 329.423 134.89C330.259 136.696 330.664 138.672 330.606 140.662C330.447 144.135 330.483 147.614 330.299 151.112C329.987 155.964 328.531 160.672 326.052 164.85C323.6 169.116 320.297 172.503 315.424 174.224C310.08 176.112 304.9 178.441 299.151 179.044C296.314 179.339 296.301 179.566 297.178 182.326C299.139 188.473 298.925 194.78 298.201 201.099C297.521 207.006 295.75 212.698 295.137 218.648C294.843 221.586 295.443 224.279 295.701 227.057C295.946 229.725 296.963 232.251 297.196 235.005C297.399 237.464 299.648 239.203 301.37 240.998C303.889 243.648 306.519 243.291 309.681 244.17L309.853 244.189ZM176.521 141.75C172.338 142.835 168.087 143.634 163.797 144.141C162.504 144.289 161.413 144.584 160.732 145.881C160.408 146.496 159.697 147.264 159.022 146.397C157.876 144.922 156.785 145.826 155.743 146.311C153.843 147.196 151.919 148.069 150.35 149.545C149.896 149.975 149.234 150.276 148.726 149.661C148.113 148.887 148.585 148.241 149.247 147.817C151.559 146.375 153.993 145.141 156.522 144.129C159.825 142.814 160.322 141.836 158.845 138.597C157.07 134.475 154.146 130.955 150.423 128.461C145.796 125.387 140.617 124.447 135.309 124.041C130.36 123.684 125.589 122.042 121.463 119.277C118.399 117.243 115.334 115.11 112.27 113.032C108.666 115.952 104.756 116.216 100.667 111.993C99.2333 114.194 97.8726 116.364 96.4261 118.478C95.7335 119.492 95.3659 120.464 96.181 121.552C96.9042 122.504 97.5049 123.709 99.0494 122.388C99.5029 122.006 100.888 122.67 100.373 123.451C99.1046 125.424 100.643 126.192 101.667 127.071C103.444 128.608 105.344 129.985 107.244 131.405C108.371 132.169 109.262 133.234 109.818 134.479C109.936 134.7 109.971 134.957 109.917 135.203C109.863 135.448 109.724 135.667 109.524 135.819C109.314 135.961 109.056 136.014 108.807 135.967C108.558 135.92 108.338 135.776 108.194 135.566C107.011 133.722 105.172 132.641 103.64 131.214C100.87 128.639 97.9707 126.205 94.8081 123.432C94.5997 125.891 95.6109 127.428 96.7264 128.922C103.037 137.516 110.49 145.205 118.877 151.776C121.063 153.403 122.81 155.552 123.958 158.027C126.269 163.111 130.259 166.553 135.413 168.612C137.223 169.416 139.087 170.092 140.991 170.635C145.103 171.63 149.081 172.239 153.096 169.608C156.362 167.469 159.838 165.705 163.043 163.357C165.42 161.638 167.548 159.599 169.368 157.296C172.978 152.741 173.512 146.785 176.564 142.002C176.601 141.935 176.496 141.769 176.46 141.677L176.57 141.886L176.521 141.75ZM308.909 246.5C306.102 245.824 303.393 245.449 301.554 243.5C297.417 239.148 293.445 234.63 293.378 228.078C293.381 227.828 293.357 227.578 293.304 227.334C292.079 221.728 292.691 216.171 294.23 210.737C296.233 204.078 297.078 197.123 296.73 190.176C296.326 183.519 294.187 177.587 289.468 172.755C285.3 168.489 279.845 166.897 274.28 165.68C267.096 164.107 260.005 165.502 252.92 166.713C248.574 167.457 244.731 169.301 240.95 171.52C235.875 174.489 231.701 178.497 227.466 182.486C225.48 184.367 223.911 186.592 222.17 188.682C217.347 194.479 212.333 200.029 204.445 201.91C200.357 202.881 196.397 203.361 192.426 201.984C189.476 201.048 186.671 199.705 184.09 197.995C182.393 196.733 180.539 195.7 178.574 194.921C176.821 194.306 176.257 191.067 173.444 192.696C171.659 193.822 169.717 194.677 167.683 195.235C167.438 195.29 167.18 195.278 166.947 195.351C164.226 196.175 161.523 197.066 158.789 197.81C156.951 198.339 156.338 199.599 156.338 201.382C156.381 203.957 157.417 206.231 158.667 208.371C160.683 211.813 162.124 215.507 163.736 219.134C165.954 224.113 168.124 229.116 170.429 234.052C172.641 238.786 172.991 243.439 170.956 248.393C168.743 253.778 165.752 256.151 159.807 254.399C157.355 253.673 156.007 254.448 155.848 256.931C155.523 261.959 156.044 266.852 160.138 270.547C160.506 270.879 160.941 271.124 160.855 271.721C160.732 272.526 160.083 272.624 159.482 272.686C157.139 272.814 154.809 273.122 152.513 273.608C142.437 276.146 132.533 279.232 122.665 282.472C120.213 283.277 117.872 283.916 115.114 283.086C114.028 282.773 112.869 282.83 111.818 283.248C110.768 283.666 109.885 284.422 109.309 285.398C108.864 286.129 108.681 286.992 108.793 287.842C108.904 288.692 109.303 289.478 109.922 290.069C110.652 289.565 110.474 288.883 110.615 288.305C110.787 287.617 110.823 286.818 111.792 286.719C112.723 287.217 112.276 287.949 112.215 288.668C111.927 291.932 112.294 292.356 115.5 292.356C120.93 292.356 125.858 290.315 130.822 288.582C137.031 286.424 143.344 284.857 149.933 284.488C154.622 284.23 159.317 284.021 163.981 283.566C167.067 283.272 170.103 282.584 173.015 281.519C175.222 280.707 175.528 280.148 174.621 277.874C171.44 269.944 173.076 261.689 172.733 253.532C173.916 254.509 174.026 255.837 174.094 257.152C174.161 258.468 174.094 259.888 174.094 261.253C174.161 263.877 174.161 263.951 176.729 264.215C182.135 264.756 187.59 265.205 192.928 263.969C199.554 262.433 206.014 260.423 211.929 256.833C216.415 254.11 220.172 250.514 224.254 247.293C226.833 245.347 229.017 242.924 230.69 240.156C233.037 236.075 235.593 232.128 238.087 228.151C240.098 224.973 242.268 221.968 245.179 219.65C246.46 218.636 246.215 217.911 245.651 216.89C244.057 213.796 242.931 210.482 242.31 207.055C241.873 205.024 241.825 202.927 242.169 200.877C242.715 201.129 243.083 201.197 243.101 201.332C244.186 207.479 244.56 213.878 249.059 218.869C248.813 222.422 251.51 224.463 253.349 226.86C258.097 233.096 263.957 238.395 270.633 242.486C278.51 247.145 286.929 250.814 295.701 253.409C296.148 253.534 296.566 253.747 296.932 254.035C297.297 254.323 297.601 254.68 297.828 255.087C300.003 258.4 301.505 262.15 302.884 265.703C305.115 271.327 306.807 277.161 309.798 282.484C310.309 283.471 310.738 284.499 311.079 285.557C312.304 289.073 312.304 289.08 308.933 290.752C307.285 291.569 306.322 293.137 306.623 294.538C306.653 294.72 306.741 294.888 306.873 295.017C307.005 295.145 307.176 295.227 307.358 295.251C307.732 295.313 308.155 295.251 308.265 294.839C308.376 294.427 308.327 293.856 308.425 293.376C308.47 293.063 308.63 292.778 308.874 292.577C309.118 292.376 309.427 292.273 309.742 292.288C309.898 292.272 310.056 292.29 310.203 292.343C310.351 292.395 310.484 292.481 310.595 292.592C310.705 292.704 310.788 292.839 310.839 292.987C310.89 293.136 310.907 293.294 310.889 293.45C310.76 294.618 311.581 294.778 312.329 295.251C315.393 297.157 318.09 295.608 320.714 294.403C322.865 293.407 322.834 292.516 321.179 290.432C321.039 290.241 320.92 290.034 320.824 289.817C317.085 282.441 312.593 275.458 310.662 267.227C309.148 260.478 307.977 253.704 308.921 246.518L308.909 246.5ZM133.832 202.42C134.445 206.44 135.321 210.086 135.536 213.774C136.141 224.285 137.144 234.757 138.545 245.191C138.806 247.787 139.898 250.228 141.659 252.149C144.172 254.86 145.336 254.608 147.028 251.215C147.592 250.096 147.028 248.492 148.787 247.428C149.504 249.623 150.013 251.682 151.379 253.305C153.218 255.487 155.388 255.149 156.424 252.444C156.681 251.786 156.534 250.907 157.649 250.809C158.245 251.397 158.889 251.934 159.574 252.413C163.448 254.737 167.241 253.477 168.155 249.635C168.492 248.227 167.842 246.955 167.72 245.615C167.658 244.926 165.948 244.269 167.487 243.623C168.529 243.187 168.866 244.324 169.166 245.141C169.319 245.547 169.534 245.756 170.141 245.289C170.87 243.537 170.465 241.601 170.269 239.621C169.981 236.708 168.565 234.181 167.395 231.63C164.11 224.426 161.67 216.841 157.821 209.895C156.381 207.43 155.278 204.781 154.542 202.021C153.77 198.824 153.249 199.408 151.055 200.078C146.691 201.4 142.333 202.844 137.632 202.261C136.565 202.125 135.444 202.353 133.844 202.439L133.832 202.42ZM294.702 174.815C294.824 176.984 295.578 177.851 297.57 177.458C300.702 176.843 303.944 176.843 306.954 175.515C309.093 174.58 311.292 173.787 313.536 173.143C319.151 171.483 322.73 167.69 325.231 162.551C328.43 156.005 328.908 149.028 329.074 141.929C329.155 139.562 328.647 137.213 327.596 135.093C325.929 131.78 324.146 128.491 321.565 125.774C320.082 124.201 318.636 122.474 316.049 121.631C316.282 125.037 314.701 127.164 311.642 128.393C312.93 129.622 313.739 130.649 313.671 132.149C313.604 133.649 312.654 134.251 311.63 135.007C310.251 136.021 312.856 137.509 311.33 138.622C310.38 139.316 309.442 140.035 308.351 140.847C312.813 143.957 314.235 148.838 314.67 153.516C315.216 159.367 312.752 164.58 308.247 168.643C304.441 172.085 299.838 173.714 294.714 174.833L294.702 174.815ZM129.321 168.053C130.375 174.052 131.288 179.978 130.645 186.051C130.338 188.971 131.73 190.126 134.831 190.274C145.569 190.778 156.038 189.801 165.795 184.742C168.204 183.512 168.461 183.42 166.69 181.164C164.097 177.957 162.853 173.862 163.221 169.75C163.255 169.186 163.171 168.622 162.976 168.093C162.781 167.564 162.478 167.082 162.087 166.676C159.182 168.871 156.007 170.499 152.893 172.208C150.657 173.558 148.002 174.029 145.44 173.53C141.07 172.62 136.78 171.575 132.839 169.368C131.828 168.797 130.859 167.93 129.333 168.096L129.321 168.053ZM301.75 118.546C293.721 117.679 288.101 121.724 284.086 128.854C282.554 131.571 283.118 133.735 284.699 136.077C286.28 138.419 288.377 137.552 290.387 137.245C290.745 137.153 291.095 137.033 291.435 136.888C296.05 135.376 300.469 136.009 304.747 138.117C305.159 138.393 305.587 138.643 306.028 138.867C307.254 139.279 309.602 138.572 309.626 137.742C309.675 136.237 308.253 136.704 307.444 136.341C306.966 136.126 306.586 135.812 306.69 135.241C306.794 134.669 307.303 134.491 307.818 134.509C308.943 134.559 310.052 134.218 310.956 133.544C312.458 132.456 312.347 130.747 310.65 130.083C309.359 129.666 308.037 129.352 306.696 129.143C306.515 129.117 306.347 129.031 306.219 128.898C306.091 128.766 306.011 128.595 305.991 128.412C305.893 127.748 306.39 127.514 306.892 127.588C308.236 127.819 309.618 127.646 310.864 127.09C312.648 126.297 314.278 125.504 314.235 123.199C314.235 121.355 313.144 120.328 310.668 119.511C307.904 118.607 305.048 118.718 301.762 118.589L301.75 118.546ZM125.662 181.933C122.83 184.576 122.885 186.076 122.928 189.629C123.02 196.224 126.514 200.324 132.526 200.693C138.704 201.068 144.895 200.908 150.779 198.609C152.293 197.995 153.88 197.81 155.394 197.288C161.063 195.321 166.99 194.104 172.372 191.27C177.593 188.51 178.648 184.748 175.436 179.683C174.606 181.193 173.403 182.463 171.943 183.371C163.791 188.006 155.29 191.534 145.747 191.749C140.316 191.866 134.88 192.143 129.456 191.362C127.617 191.098 126.354 190.022 125.104 188.903C123.982 187.864 125.509 186.906 125.362 185.83C125.214 184.754 125.521 183.641 125.674 181.976L125.662 181.933ZM278.772 249.426C280.127 250.655 281.408 252.02 282.867 253.114C284.436 254.307 286.035 255.763 287.849 256.243C292.011 257.355 292.587 260.38 292.753 263.859C292.802 265.088 292.82 266.318 292.82 267.547C292.78 270.637 293.111 273.72 293.807 276.73C294.144 278.12 295.155 280.652 294.463 282.078C293.715 283.609 291.141 284.058 289.657 284.34C288.174 284.623 286.464 285.182 285.907 286.609C285.741 287.106 285.66 287.627 285.667 288.151C285.667 288.6 285.588 290.924 286.66 290.389C286.852 290.258 287.008 290.082 287.115 289.876C287.222 289.67 287.276 289.441 287.273 289.209C287.264 288.745 287.396 288.29 287.653 287.906C287.757 287.784 287.898 287.7 288.054 287.667C288.21 287.634 288.373 287.653 288.517 287.721C289.002 287.998 288.824 288.717 288.922 289.264C289.29 291.305 291.827 289.774 292.881 289.621C294.794 289.344 296.35 289.971 297.662 288.391C299.196 286.486 300.293 284.266 300.874 281.888C301.738 277.099 301.566 272.274 301.609 267.449C301.642 266.449 301.387 265.46 300.874 264.603C299.766 262.809 298.939 260.857 298.422 258.812C298.243 257.96 297.828 257.176 297.224 256.551C296.62 255.925 295.852 255.484 295.008 255.278C289.394 253.864 284.399 250.833 278.785 249.469L278.772 249.426ZM178.795 122.799C173.947 126.106 168.841 127.434 163.582 128.258C161.744 128.547 160.07 129.389 158.293 129.893C157.607 130.09 156.718 130.409 156.957 131.307C157.233 132.333 158.183 132.407 159.09 132.161C159.448 132.069 159.799 131.948 160.138 131.798C163.503 130.188 167.364 130.249 170.723 128.614C170.881 128.52 171.057 128.461 171.24 128.441C171.423 128.422 171.608 128.442 171.782 128.5C171.957 128.558 172.117 128.654 172.251 128.779C172.386 128.905 172.491 129.059 172.562 129.229C172.905 129.936 172.359 130.458 171.869 130.753C168.332 132.972 165.813 136.544 161.774 138.13C160.169 138.744 161.578 140.3 161.499 141.412C161.431 142.34 162.075 142.642 162.951 142.599C166.2 142.426 169.289 141.941 171.471 139.101C175.062 134.491 178.016 129.549 178.807 122.83L178.795 122.799ZM106.79 113.474C109.242 113.511 110.069 112.565 109.61 110.02C109.383 108.676 109.066 107.35 108.66 106.049C108.557 105.553 108.267 105.116 107.85 104.83C107.432 104.545 106.921 104.433 106.423 104.518C104.884 104.721 102.132 107.893 102.255 109.288C102.419 110.401 102.959 111.424 103.785 112.186C104.61 112.947 105.671 113.402 106.79 113.474ZM173.168 178.079C173.076 177.802 172.905 177.224 172.696 176.653C171.71 173.997 169.191 174.384 167.137 173.923C165.801 173.622 165.44 174.354 165.758 175.651C166.224 177.55 167.842 178.644 168.823 180.199C169.344 181.048 170.11 181.736 171.274 181.293C172.555 180.789 173.07 179.744 173.168 178.079V178.079ZM166.849 132.044C164.612 132.207 162.429 132.813 160.426 133.827C159.611 134.202 159.47 134.749 159.856 135.603C160.316 136.63 160.824 136.747 161.836 136.261C163.828 135.292 165.55 133.843 166.849 132.044V132.044ZM128.377 187.981C128.046 186.426 129.241 184.908 128.377 182.855C127.139 184.834 127.035 186.383 128.377 187.957V187.981Z" fill="#474848"/>
<path d="M89.8148 299.407C95.5162 298.333 101.218 298.606 106.925 298.873C109.692 299.001 112.497 299.08 115.239 299.171C115.641 299.171 116.056 299.304 116.118 299.65C116.146 299.771 116.147 299.897 116.122 300.018C116.096 300.14 116.044 300.255 115.97 300.355C115.895 300.455 115.8 300.539 115.69 300.601C115.58 300.662 115.458 300.7 115.332 300.712C112.967 300.92 110.592 300.995 108.219 300.936C104.729 300.742 101.23 300.73 97.7386 300.9C95.0396 301.021 92.3096 300.924 89.8148 299.407Z" fill="#474848"/>
<path d="M314.352 303.278C307.68 300.945 301.642 301.188 295.652 300.835C293.603 300.719 291.551 300.932 289.547 301.467C288.908 301.637 288.232 301.585 288.057 300.731C287.882 299.878 288.486 299.458 289.155 299.451C297.148 299.355 305.147 299.178 312.952 301.843C313.206 301.968 313.417 302.336 314.352 303.278Z" fill="#474848"/>
<path d="M342.089 302.014H324.4C322.894 301.892 321.381 302.044 319.91 302.466C319.821 302.5 319.727 302.512 319.634 302.499C319.541 302.486 319.452 302.45 319.371 302.392C319.29 302.334 319.219 302.256 319.163 302.163C319.107 302.07 319.066 301.964 319.044 301.851C319.003 301.701 318.989 301.543 319.002 301.386C319.016 301.229 319.056 301.077 319.12 300.941C319.185 300.806 319.272 300.689 319.376 300.6C319.48 300.511 319.599 300.451 319.723 300.424C320.331 300.22 320.963 300.144 321.591 300.198C326.574 300.619 331.631 300.198 336.62 301.126C338.489 301.469 340.357 301.43 342.226 301.57L342.089 302.014Z" fill="#474848"/>
<path d="M112.268 296.923C118.54 295.457 128.739 296.833 132.399 298.793C132.192 299.704 131.509 299.353 130.966 299.276C125.555 298.471 120.235 296.667 114.629 297.798C114.143 297.836 113.655 297.773 113.196 297.614C113.013 297.566 112.842 297.346 112.268 296.923Z" fill="#474848"/>
<path d="M283.381 110.513C281.219 111.932 278.688 112.367 276.635 113.891C274.582 115.416 274.376 118.011 272.656 119.777C271.656 115.063 277.392 110.072 283.381 110.513Z" fill="#474848"/>
<path d="M275.663 124.423C275.305 118.806 278.885 115.205 285.704 114.357C283.779 116.391 281.174 116.6 279.446 118.192C277.665 119.908 276.361 122.055 275.663 124.423V124.423Z" fill="#474848"/>
<path d="M315.126 308.272C311.545 308.154 307.959 308.297 304.401 308.698C303.971 307.562 304.861 307.681 305.298 307.562C308.279 306.892 311.309 307.216 314.32 307.318C314.878 307.318 314.926 307.937 315.084 308.329L315.126 308.272Z" fill="#474848"/>
<path d="M279.247 130.617C277.903 129.935 277.767 128.954 278.143 127.991C278.938 125.909 280.203 124.034 281.843 122.509C282.182 122.192 282.663 121.857 283.119 122.35C283.207 122.438 283.275 122.543 283.32 122.658C283.365 122.774 283.386 122.897 283.381 123.02C283.375 123.143 283.345 123.264 283.29 123.376C283.236 123.487 283.159 123.586 283.064 123.666C280.987 125.454 279.632 127.922 279.247 130.617V130.617Z" fill="#474848"/>
<path d="M332.934 308.698C330.847 308.196 328.649 308.475 326.482 308.435C322.723 308.365 318.965 308.402 315.188 308.405C315.165 308.422 315.145 308.44 315.126 308.458C315.404 308.28 315.754 308.138 316.149 308.046C316.544 307.954 316.974 307.913 317.404 307.926C322.062 308.259 326.752 308.056 331.422 308.186C331.731 308.179 332.036 308.221 332.301 308.306C332.566 308.392 332.78 308.518 332.916 308.668L332.934 308.698Z" fill="#474848"/>
<path d="M212.923 211.429C210.67 213.508 207.967 214.048 205.88 212.796C205.5 212.566 205.062 212.222 205.21 211.648C205.358 211.073 205.909 211.073 206.33 211.228C207.419 211.683 208.604 211.88 209.787 211.803C210.848 211.762 211.808 211.033 212.923 211.429Z" fill="#474848"/>
<path d="M221.44 208.818C222.683 207.172 223.94 205.524 225.212 203.874C225.351 203.643 225.567 203.481 225.813 203.422C226.059 203.363 226.315 203.412 226.529 203.558C227.151 203.997 226.759 204.676 226.461 204.985C225.007 206.459 223.901 208.399 221.44 208.818Z" fill="#474848"/>
<path d="M203.564 207.634C201.256 208.423 199.14 208.216 197.438 205.721L203.632 206.744L203.564 207.634Z" fill="#474848"/>
<path d="M230.731 198.215C232.277 196.62 233.074 194.101 236.925 194.107L231.222 198.752L230.731 198.215Z" fill="#474848"/>
<path d="M241.571 174.75C242.475 172.85 244.214 172.334 246.991 172.44C245.441 173.583 243.577 174.377 241.571 174.75V174.75Z" fill="#474848"/>
<path d="M232.28 180.17C232.146 180.986 231.846 181.759 231.404 182.428C230.962 183.097 230.389 183.646 229.728 184.034C229.64 184.092 229.194 183.793 229.188 183.649C229.064 181.323 231.271 181.343 232.28 180.17Z" fill="#474848"/>
<path d="M237.7 182.493C238.177 180.706 239.48 180.012 241.571 180.199C241.442 180.589 241.455 180.878 241.306 180.944C240.126 181.485 238.906 181.981 237.7 182.493Z" fill="#474848"/>
<path d="M230.731 187.912C230.196 189.781 228.983 190.826 226.86 191.784C227.77 189.486 229.576 188.998 230.731 187.912Z" fill="#474848"/>
<path d="M223.763 197.978C223.279 199.334 222.408 200.192 220.666 201.075C221.319 198.919 222.184 198.036 223.763 197.978Z" fill="#474848"/>
<path d="M210.6 206.283C211.5 205.508 212.31 204.508 213.697 205.153C212.877 206.567 211.797 206.709 210.6 206.283Z" fill="#474848"/>
<path d="M241.571 185.59C240.821 187.417 240.084 188.182 238.474 188.687C238.678 186.883 239.849 186.518 241.571 185.59Z" fill="#474848"/>
<path d="M222.88 191.784C223.417 191.784 223.698 192.027 223.743 192.349C223.903 193.479 223.052 193.909 221.997 194.107C221.837 194.107 221.427 193.892 221.44 193.807C221.472 193.391 221.62 192.988 221.871 192.635C222.122 192.282 222.469 191.99 222.88 191.784V191.784Z" fill="#474848"/>
<path d="M214.523 199.649C214.704 199.308 214.93 198.816 215.457 198.757C215.984 198.697 216.044 199.222 216.014 199.595C215.954 200.265 215.432 200.33 214.945 200.292C214.694 200.287 214.337 200.227 214.523 199.649Z" fill="#474848"/>
<path d="M153.358 158.897C153.167 157.978 153.101 156.377 151.901 155.471C150.212 154.195 151.167 153.392 152.247 152.812C154.182 151.839 156.242 151.147 158.367 150.757C161.632 150.062 165.029 149.723 167.668 147.276C167.765 147.156 167.885 147.059 168.022 146.99C168.159 146.921 168.308 146.883 168.461 146.877C168.613 146.871 168.765 146.899 168.906 146.957C169.048 147.015 169.175 147.104 169.28 147.216C169.877 147.941 169.435 148.642 168.856 149.101C164.761 152.322 161.358 156.244 157.865 160.088C156.838 161.218 155.203 161.254 153.931 161.544C152.492 161.87 153.149 160.299 153.358 158.897ZM162.856 151.947C162.516 151.845 162.289 151.694 162.104 151.736C160.588 152.104 159.077 152.497 157.573 152.902C153.191 154.111 153.191 154.111 155.018 158.123C155.181 158.366 155.369 158.591 155.579 158.794C158.743 157.283 160.898 154.782 162.856 151.947V151.947Z" fill="#474848"/>
<path d="M134.246 131.391C133.584 129.552 134.246 128.135 134.14 126.74C134.147 126.627 134.182 126.516 134.242 126.415C134.302 126.314 134.387 126.224 134.491 126.153C134.594 126.081 134.714 126.029 134.843 125.999C134.972 125.97 135.107 125.963 135.239 125.981C135.509 125.999 135.761 126.104 135.944 126.274C136.127 126.444 136.227 126.667 136.225 126.898C136.345 127.727 136.228 128.568 135.884 129.35C135.539 130.133 134.977 130.833 134.246 131.391V131.391Z" fill="#474848"/>
<path d="M127.754 141.457C128.832 139.668 130.539 138.911 131.571 136.811C131.842 140.197 131.173 140.916 127.754 141.457Z" fill="#474848"/>
<path d="M102.292 117.463C102.712 117.556 103.036 117.817 102.968 118.227C102.962 118.345 102.929 118.46 102.872 118.564C102.815 118.668 102.736 118.76 102.639 118.832C102.542 118.904 102.431 118.955 102.312 118.982C102.193 119.008 102.069 119.01 101.949 118.986C101.855 118.958 101.768 118.912 101.693 118.852C101.618 118.791 101.556 118.716 101.511 118.632C101.466 118.548 101.439 118.456 101.431 118.362C101.423 118.267 101.435 118.172 101.466 118.083C101.475 117.988 101.503 117.897 101.55 117.814C101.597 117.73 101.662 117.658 101.739 117.6C101.817 117.541 101.906 117.499 102.001 117.476C102.096 117.452 102.195 117.448 102.292 117.463V117.463Z" fill="#474848"/>
<path d="M106.849 124.111C106.849 123.441 107.021 122.953 107.485 122.892C107.949 122.831 108.3 122.892 108.384 123.654C108.405 123.836 108.401 124.024 108.371 124.204C108.341 124.383 108.287 124.551 108.212 124.696C108.136 124.84 108.042 124.958 107.934 125.041C107.827 125.124 107.709 125.171 107.589 125.178C107.155 125.307 106.923 124.759 106.849 124.111Z" fill="#474848"/>
<path d="M145.69 216.828C147.279 216.774 147.279 218.039 147.586 219.056C147.991 220.345 148.427 221.592 149.513 222.537C151.354 224.141 152.275 223.856 152.925 221.326C153.072 220.72 153.054 220.115 153.797 219.782C155.349 220.194 155.46 222.518 157.651 222.585C158.32 221.277 158.007 219.94 157.602 218.547C156.571 214.957 154.288 212.003 152.594 208.758C152.367 208.335 151.98 207.996 151.741 207.548C151.697 207.467 151.67 207.379 151.663 207.288C151.655 207.197 151.666 207.105 151.695 207.018C151.724 206.932 151.771 206.852 151.833 206.783C151.895 206.715 151.97 206.66 152.054 206.622C152.397 206.416 152.901 206.458 153.029 206.767C154.92 211.513 158.663 215.43 159.4 220.69C159.472 221.175 159.505 221.665 159.498 222.155C159.436 224.607 158.418 225.394 156.251 224.322C154.907 223.657 154.054 222.972 153.029 224.734C152.379 225.848 151.047 225.624 150.028 225.019C149.01 224.413 148.04 223.596 147.12 222.918C146.87 222.968 146.633 223.067 146.422 223.208C146.211 223.349 146.031 223.531 145.892 223.741C143.173 226.726 140.854 226.599 138.988 223.015C136.957 219.104 136.693 214.83 137.399 210.514C137.521 209.776 137.84 208.964 138.822 209.303C139.663 209.6 139.743 210.441 139.436 211.119C137.834 214.558 139.006 217.851 139.982 221.12C140.657 223.366 142.21 224.534 143.542 224.092C144.873 223.65 146.174 221.217 145.825 219.558C145.573 218.68 144.923 217.797 145.69 216.828Z" fill="#474848"/>
<path d="M157.518 228.2C158.956 228.086 159.394 228.362 159.638 228.8C161.618 232.082 162.886 235.598 162.538 239.45C162.295 242.072 160.918 242.696 158.438 241.742C157.219 241.286 156.451 240.362 155.361 239.474C154.751 240.446 154.331 241.874 152.923 241.742C151.881 241.67 150.87 241.142 149.767 240.824C149.185 241.886 148.532 242.908 147.811 243.884C146.355 245.606 144.582 245.624 143.058 244.082C140.164 241.154 139.177 233.42 141.23 229.448C142.486 230.048 141.937 231.032 141.779 231.938C141.074 235.289 141.63 238.777 143.345 241.754C143.905 242.708 144.448 243.758 145.782 243.656C147.116 243.554 147.519 242.384 148 241.442C148.701 240.092 148.554 238.64 148.195 237.188C147.909 236.054 147.202 234.938 147.835 233.702C149.011 233.546 149.353 234.338 149.517 235.202C149.735 236.395 150.147 237.546 150.736 238.61C151.162 239.372 151.747 240.038 152.765 239.882C153.667 239.744 153.807 238.922 153.984 238.256C154.155 237.452 154.279 236.638 154.355 235.82C156.086 235.436 156.183 236.726 156.652 237.62C157.822 239.762 159.65 241.088 160.43 240.374C161.765 239.174 161.43 237.53 161.1 235.958C160.534 233.264 159.736 230.666 157.518 228.2Z" fill="#474848"/>
<path d="M52.9787 64.0299C49.6228 62.2726 49.1308 61.237 49.8247 57.6657C50.3861 54.8916 51.8685 53.379 54.7197 53.2723C56.2336 53.2159 57.4069 53.2221 57.9557 51.5213C58.1257 51.1068 58.4056 50.746 58.7655 50.4774C59.1255 50.2088 59.5519 50.0425 59.9994 49.9961C60.5906 49.9265 61.1542 49.7085 61.6375 49.3626C62.1208 49.0168 62.5078 48.5545 62.7623 48.0191C64.3141 45.2512 68.143 45.7973 70.458 48.8538C69.2974 49.6321 68.8621 48.289 68.0547 48.0317C65.4243 47.1969 64.0491 48.2011 64.3961 50.969C64.579 52.469 64.0744 52.8518 62.756 52.4627C59.2551 51.4397 59.2046 51.4522 59.9868 54.7598C60.3022 56.0778 59.6777 56.354 58.599 56.1783C58.2458 56.1218 57.9683 55.8142 57.5961 55.6699C55.0729 54.628 53.7041 54.7912 52.4425 56.241C51.1809 57.6908 51.0484 60.1763 51.9505 61.9525C52.2848 62.5801 53.4139 62.6993 52.9787 64.0299Z" fill="#474848"/>
<path d="M64.718 43.4945C63.4918 43.7207 63.3018 42.761 62.7133 42.3881C60.5982 41.0433 59.8196 41.2267 58.6731 43.6106C58.1643 44.662 57.5022 44.9371 56.6684 44.3442C55.3154 43.4769 53.8188 42.856 52.2482 42.5103C51.1758 42.1805 50.0236 42.2171 48.9744 42.6143C46.5222 43.5434 46.0011 44.7171 46.9942 47.1438C47.2149 47.6818 47.9077 48.1341 47.4111 48.7759C46.9145 49.4178 46.185 49.4484 45.4309 49.0877C44.7749 48.7821 44.0699 48.5803 43.3588 48.3236C43.5795 47.315 45.0447 47.7551 45.0018 46.2942C44.8976 42.8466 46.3628 41.4589 49.6917 41.1472C51.0509 41.0292 52.4202 41.1366 53.7441 41.465C54.3572 41.6056 54.9396 41.7768 55.5465 41.8868C55.896 41.9541 56.4906 42.058 56.5826 41.8868C58.4218 38.7938 61.9775 41.41 64.2949 39.5212C66.4836 37.7424 67.8446 38.2314 69.6838 41.0616C68.3044 41.0616 67.3848 39.8391 66.1955 40.2242C64.5586 40.7988 65.6253 42.5226 64.718 43.4945Z" fill="#474848"/>
<path d="M64.264 56.2873C65.389 54.6127 67.0189 53.3085 68.9357 52.5491C69.0678 52.4736 69.2164 52.4288 69.3697 52.4183C69.523 52.4078 69.6767 52.432 69.8185 52.4888C69.9604 52.5457 70.0865 52.6336 70.1867 52.7456C70.2869 52.8577 70.3584 52.9907 70.3956 53.1341C70.5903 53.7659 70.3287 54.4094 69.6353 54.4621C67.9746 54.5966 66.5938 55.6087 64.264 56.2873Z" fill="#474848"/>
<path d="M59.6183 61.8106C59.9071 60.2679 60.7735 59.1276 61.6025 58.0342C61.8645 57.6787 62.1747 57.8665 62.4422 58.0879C62.5099 58.1399 62.5682 58.2091 62.6134 58.291C62.6587 58.3728 62.6898 58.4656 62.7049 58.5634C62.72 58.6612 62.7187 58.7619 62.7011 58.859C62.6835 58.9561 62.6499 59.0476 62.6026 59.1276C61.8485 60.2947 61.0302 61.3947 60.2387 62.4814L59.6183 61.8106Z" fill="#474848"/>
<path d="M81.5959 80.0366C81.1815 80.1999 80.767 80.345 80.3769 80.466C78.5227 81.0745 76.5462 81.2213 74.6213 80.8933C72.6965 80.5653 70.8825 79.7727 69.3392 78.5853C65.0118 75.1262 65.2556 68.3049 66.95 63.5517C70.4667 53.6704 84.3874 56.1256 88.7086 63.8782C89.7282 65.6516 90.0578 67.734 89.6351 69.732C88.9951 73.8502 85.521 78.4764 81.5959 80.0366ZM79.9259 78.7123C81.0898 78.3388 82.228 77.8903 83.333 77.3698C84.1153 77.0042 84.7503 76.3874 85.1353 75.6191C85.5202 74.8508 85.6325 73.9761 85.454 73.1367C84.6739 68.6677 82.4066 65.2147 78.3108 63.0981C74.7819 61.284 70.3875 62.0822 68.6748 64.749C66.5843 68.0388 67.5899 74.6606 70.552 77.2488C71.179 77.8272 71.9258 78.2627 72.7401 78.5248C75.1232 79.2444 77.5185 79.7826 79.9564 78.7123H79.9259ZM72.7523 59.5786C76.0314 59.9294 79.0605 60.6792 81.6691 62.8079C84.3996 65.0393 86.1671 67.7908 87.3495 71.776C89.2328 66.0069 85.3565 59.4214 79.1336 58.7804C78.056 58.5855 76.9621 58.4924 75.8668 58.5022C74.9647 58.5808 73.4837 59.6814 72.7523 59.5786V59.5786Z" fill="#474848"/>
<path d="M70.7935 69.4498C71.4544 71.9085 72.6582 74.0974 73.5552 76.4182C70.705 74.9369 69.9261 72.5262 70.7935 69.4498Z" fill="#474848"/>
<path d="M77.4264 75.6439C75.7528 75.3497 75.061 74.4361 75.1057 72.5468C75.7359 72.8491 76.2768 73.2892 76.6813 73.829C77.0858 74.3688 77.3415 74.9918 77.4264 75.6439V75.6439Z" fill="#474848"/>
<path d="M79.7629 73.3211C80.8468 73.705 81.1286 74.7481 81.2977 76.4182C80.0968 75.8039 79.6632 74.94 79.7629 73.3211Z" fill="#474848"/>
<path d="M288.143 43.4717C291.039 48.5723 289.86 53.3726 287.122 58.0832C284.385 62.7939 280.509 66.3818 276.692 70.0228C273.967 72.6151 270.84 73.8295 266.952 73.103C264.266 72.5954 261.47 73.1121 258.749 72.4277C251.77 70.607 249.141 65.358 251.968 58.7509C255.105 51.4151 260.887 46.5905 267.47 42.5998C271.051 40.4237 274.686 38.2944 278.78 37.0587C279.835 36.7407 281.18 36.5935 280.911 34.992C280.665 33.5269 280.063 32.1136 278.549 31.6155C277.904 31.4082 277.129 31.8567 276.383 31.291C268.122 25.1317 259.804 27.1795 251.326 30.9637C243.622 34.3877 237.496 39.803 231.488 45.4685C225.24 51.3505 218.552 56.7464 211.482 61.6091C210.458 62.3083 209.135 62.7855 208.784 64.3549C211.897 63.6034 214.225 61.555 216.873 60.0973C223.72 56.3345 229.305 51.0208 235.024 45.7714C240.208 40.8859 245.929 36.6041 252.077 33.0083C256.868 30.284 262.421 29.2098 267.881 29.9508C271.038 30.313 273.955 32.6821 275.95 36.1753C275.422 36.1516 274.8 36.313 274.548 36.0759C267.552 29.4143 259.955 31.0163 252.637 35.002C245.958 38.6405 240.079 43.5171 234.621 48.872C228.813 54.4897 222.343 59.3799 215.355 63.435C211.115 65.9441 210.929 70.7326 208.541 74.2501C208.185 74.7835 208.842 75.4245 209.157 75.981C210.915 79.101 210.482 82.5792 210.682 85.9363C210.806 87.7706 202.612 97.6814 200.781 97.8888C198.395 98.19 195.724 98.6146 193.652 97.2579C186.648 92.6821 179.309 88.5268 173.77 82.0113C171.84 79.7403 171.746 77.8938 173.31 75.1387C175.013 72.2133 177.119 69.5415 179.565 67.2016C183.174 63.6181 190.543 63.244 195.395 66.3681C197.056 67.4417 198.076 67.7661 199.308 66.0076C199.797 65.3526 200.468 64.8562 201.238 64.5806C207.105 62.592 211.644 58.4558 216.652 55.1094C224.394 49.9528 230.567 43.0388 237.505 36.9754C248.092 27.7221 259.906 23.2143 274.09 26.7566C277.831 27.6881 280.738 29.4191 282.188 32.969C283.209 35.4691 284.651 36.2997 287.393 36.1016C289.77 35.9428 292.206 36.5293 294.599 36.9266C298.529 37.593 302.356 41.9086 302.636 46.2078C303.372 57.5174 299.489 66.9557 291.325 74.8891C285.253 80.7942 278.42 85.6442 271.719 90.7242C266.688 94.5556 262.214 99.0689 258.428 104.134C257.268 105.681 255.919 107.077 254.412 108.288C250.67 111.314 245.854 112.901 242.872 116.955C242.555 117.333 242.122 117.595 241.642 117.701C236.142 118.936 236.143 123.288 236.142 127.545C236.138 129.31 236.626 131.039 236.781 132.85C236.866 133.981 236.703 135.219 235.284 135.527C234.192 135.756 233.449 135.063 232.933 134.183C232.417 133.303 232.097 132.558 231.524 131.431C229.077 133.722 226.946 135.866 224.693 137.821C220.202 141.709 214.645 141.552 210.286 137.506C208.23 135.598 207.721 131.823 209.265 128.429C210.715 125.147 213.277 122.482 216.499 120.904C221.432 118.46 226.287 115.91 231.303 113.655C231.976 113.43 232.585 113.048 233.081 112.539C233.576 112.031 233.942 111.411 234.149 110.733C234.385 109.863 234.805 109.054 235.38 108.36C235.955 107.666 236.671 107.103 237.481 106.709C241.245 105.197 243.717 102.262 246.551 99.6364C248.417 97.9008 250.44 96.1446 253.138 95.7294C254.519 95.5267 255.394 94.6004 256.406 93.7943C264.976 86.9183 273.652 80.1855 282.147 73.2206C287.148 69.1092 291.611 64.5187 294.203 58.2694C295.653 54.6533 295.704 50.6265 294.345 46.9751C293.213 43.5559 292.305 43.1486 288.118 43.5676L286.584 43.537C284.808 42.7118 283.069 43.0159 281.178 43.4412C283.779 51.6865 281.235 57.8433 274.947 63.1957C271.655 66.0241 267.605 67.7092 264.641 70.8636L264.43 70.6825L264.532 70.8194C269.714 72.1107 273.564 69.8033 276.927 66.1995C279.123 63.8436 281.57 61.669 283.416 59.0614C286.331 54.9807 288.946 50.6393 286.386 45.2623C286.165 44.7807 286.509 44.0351 286.592 43.4054L288.143 43.4717ZM211.533 130.883C211.407 130.916 211.289 130.974 211.187 131.055C211.085 131.135 211.001 131.236 210.94 131.351C210.879 131.466 210.843 131.592 210.833 131.721C210.824 131.851 210.841 131.981 210.885 132.104C210.716 135.782 210.886 136.012 214.333 136.767C214.816 137.238 215.293 137.115 215.777 136.767C218.067 139.109 219.522 139.227 222.575 136.845C228.122 132.522 232.101 126.912 235.162 120.633C235.77 119.385 235.917 118.15 234.697 117.126C232.66 115.425 230.801 116.492 228.946 117.526C227.639 118.233 227.078 118.907 227.984 120.549C228.483 121.393 228.744 122.357 228.738 123.338C228.733 124.319 228.461 125.28 227.952 126.119C224.89 130.781 221.854 135.635 215.725 136.931C215.27 136.719 214.813 136.479 214.311 136.802L210.756 132.112C210.991 131.688 211.228 131.253 211.448 130.821L211.196 130.727L211.533 130.883ZM234.898 131.488C234.625 130.39 234.9 129.108 233.905 127.88C233.064 129.763 234.102 130.555 234.959 131.415L234.673 131.51L234.898 131.488ZM256.768 69.0971C254.476 63.8876 256.855 60.2028 259.012 56.9996C266.062 46.5298 275.305 39.8875 288.847 40.9198C292.048 41.1724 294.442 42.0404 295.48 44.6816C297.204 48.9922 298.464 53.549 296.19 58.1962C295.252 60.4313 294.122 62.5811 292.814 64.6214C287.947 71.388 281.765 76.8061 274.918 81.4159C269.254 85.2286 264.521 90.1439 258.996 94.0938C257.62 95.1111 257.779 96.1591 258.749 97.3674C259.938 98.8575 260.698 97.7368 261.436 96.9506C266.083 91.9448 271.555 87.9759 277.175 84.1676C284.871 78.9488 291.582 72.6965 296.637 64.8178C300.099 59.4863 301.573 53.1058 300.799 46.7961C300.39 43.131 298.482 40.1989 294.796 39.3422C287.922 37.7421 281.072 37.5018 274.493 40.9505C270.448 42.9906 266.582 45.3689 262.937 48.0601C258.841 51.1944 255.112 54.8762 253.273 59.9429C251.913 63.6255 252.761 66.2824 256.754 69.0785L256.768 69.0971ZM182.101 68.4562C179.432 70.4868 177.909 72.9712 176.288 75.3635C174.222 78.4032 174.321 79.2153 177.034 81.9856C181.451 86.423 186.764 89.8707 191.592 93.8602C192.388 94.412 193.258 94.848 194.177 95.1554C197.667 96.6194 199.887 96.2102 202.458 93.462C204.1 91.6985 205.545 89.7448 207.174 87.9627C207.644 87.4088 207.989 86.7602 208.187 86.061C208.384 85.3617 208.429 84.6282 208.318 83.9101C208.2 82.1486 207.925 80.3968 207.779 78.6367C207.778 78.1537 207.66 77.6781 207.435 77.2509C207.21 76.8237 206.884 76.4576 206.486 76.1842C202.247 73.3292 198.213 70.062 193.687 67.7563C191.884 66.777 189.842 66.3234 187.794 66.4471C185.745 66.5709 183.773 67.2669 182.101 68.4562V68.4562ZM269.551 48.4753C263.757 52.0084 260.374 57.3309 258.218 63.5957C257.893 64.3395 257.785 65.1602 257.908 65.9625C258.031 66.7649 258.379 67.516 258.912 68.1284C259.895 69.2114 261.378 68.9629 262.55 68.4908C269.583 65.6306 275.41 61.2832 279.144 54.4687C280.318 52.3229 280.598 49.8009 279.924 47.4497C279.043 44.0182 278.161 43.5151 274.858 45.1294C273.024 46.1375 271.251 47.2548 269.551 48.4753V48.4753ZM215.133 124.514C212.366 126.136 213.178 128.771 213.472 131.057C213.859 134.055 215.618 134.988 218.283 133.566C221.95 131.597 224.346 128.274 226.062 124.618C227.093 122.43 225.659 120.881 223.111 121.225C220.19 121.612 217.661 123.126 215.133 124.514V124.514ZM247.775 106.358C248.74 106.79 248.764 108.997 250.727 108.566C253.639 107.906 257.13 103.264 256.969 100.234C256.865 98.3084 255.572 97.3287 253.67 98.09C251.453 98.9543 249.455 100.3 247.82 102.03C246.351 103.598 245.508 104.645 247.775 106.358V106.358ZM238.841 108.9C238.433 109.159 238.044 109.446 237.677 109.761C236.106 111.269 235.386 114.228 236.474 115.388C238.273 117.313 240.013 115.968 241.646 114.973C242.464 114.463 243.209 113.847 243.864 113.14C244.024 113.019 244.153 112.862 244.24 112.681C244.327 112.501 244.369 112.302 244.364 112.101C244.359 111.901 244.306 111.705 244.21 111.529C244.114 111.353 243.977 111.202 243.811 111.09C242.162 109.536 243.189 109.402 244.688 109.671C245.497 109.814 246.418 109.952 246.476 108.82C246.513 107.946 245.755 107.428 244.978 107.107C242.501 106.127 240.667 107.54 238.841 108.9ZM201.458 70.2437C203.175 72.5659 205.151 73.1941 206.734 72.0528C208.317 70.9115 209.197 68.5466 208.46 67.6279C207.09 65.9058 204.032 65.7022 201.903 67.1604C200.565 68.0727 200.385 69.092 201.458 70.2437Z" fill="#474848"/>
<path d="M200.837 78.3384C201.045 78.8013 201.287 79.4022 201.59 79.968C204.567 85.5182 204.342 86.7246 200.028 91.2433C199.009 92.3142 198.198 91.8162 197.589 91.2654C194.008 88.0772 189.549 86.6175 185.314 84.6932C183.355 83.8874 181.77 82.3756 180.873 80.457C179.283 76.8751 179.736 75.2212 183.222 73.3465C188.359 70.5786 197.451 73.0812 200.837 78.3384ZM199.945 81.0392C196.856 76.0922 192.655 75.0864 188.545 74.5148C186.406 74.2276 183.773 75.0676 182.946 77.518C182.027 80.1814 184.138 81.6437 186.106 82.8852C187.309 83.6928 188.593 84.3731 189.937 84.9152C192.061 85.7039 194.304 86.2117 196.081 87.6903C197.607 88.9597 198.72 88.1465 199.927 87.2256C201.133 86.3047 201.913 85.0154 201.278 83.4532C200.911 82.6083 200.465 81.8 199.945 81.0392V81.0392Z" fill="#474848"/>
</svg>
