<svg width="77" height="77" viewBox="0 0 77 77" fill="none" xmlns="http://www.w3.org/2000/svg">
<path d="M38.5 77C59.763 77 77 59.763 77 38.5C77 17.237 59.763 0 38.5 0C17.237 0 0 17.237 0 38.5C0 59.763 17.237 77 38.5 77Z" fill="#F39A9B"/>
<path d="M25.7807 21.8708C25.7807 17.8441 27.6999 17.1348 29.6775 17.6486C32.4461 14.8228 34.6577 18.3799 34.3302 20.8658C36.1955 21.6711 36.2034 26.5174 34.3302 26.9042C35.5738 29.3203 34.8484 31.2665 34.3302 31.9376C34.952 34.3536 34.0712 35.6288 33.553 35.9643C34.1748 38.3804 33.294 40.3266 32.7758 40.9977C34.0194 45.0244 32.7758 46.7022 31.9987 47.0378C31.3769 51.0646 29.1489 51.3998 28.1127 51.0646C25.6257 54.2861 23.9676 52.4069 23.4495 51.0646C19.5636 51.0646 19.5635 47.0378 19.5635 46.0311C16.4547 42.8097 17.7499 38.6488 18.7861 36.971C17.5426 32.9443 20.3404 29.9243 21.8947 28.9176C20.6512 24.0855 23.9672 22.2064 25.7807 21.8708Z" fill="black"/>
<path d="M52.226 21.8708C52.226 17.8441 50.3066 17.1348 48.3291 17.6486C45.5605 14.8228 43.3489 18.3799 43.6763 20.8658C41.811 21.6711 41.8032 26.5174 43.6763 26.9042C42.4328 29.3203 43.1582 31.2665 43.6763 31.9376C43.0546 34.3536 43.9354 35.6288 44.4535 35.9643C43.8318 38.3804 44.7126 40.3266 45.2307 40.9977C43.9872 45.0244 45.2307 46.7022 46.0079 47.0378C46.6296 51.0646 48.8576 51.3998 49.8939 51.0646C52.381 54.2861 54.0388 52.4069 54.5572 51.0646C58.4429 51.0646 58.4429 47.0378 58.4429 46.0311C61.5521 42.8097 60.2567 38.6488 59.2204 36.971C60.464 32.9443 57.6664 29.9243 56.1118 28.9176C57.3553 24.0855 54.0393 22.2064 52.226 21.8708Z" fill="black"/>
<path d="M28.6296 34.986C27.3569 28.6012 32.2412 22.6471 38.7517 22.6471C45.2622 22.6471 50.1466 28.6012 48.8738 34.986L44.1985 58.4405C43.6807 61.0379 41.4005 62.9085 38.7517 62.9085C36.1029 62.9085 33.8228 61.0379 33.3049 58.4405L28.6296 34.986Z" fill="#45484B"/>
<path d="M34.0437 14.6194C35.3888 12.0171 37.7428 12.4508 38.7517 12.9929V33.3239C38.7517 33.3239 35.1156 33.014 32.2092 33.9706C29.8831 34.7362 28.5297 36.945 26.6733 35.9836C25.2155 35.2287 24.9639 33.3239 24.9639 33.3239C22.5425 32.6732 23.0582 30.0709 23.6187 28.8511C22.5426 26.574 24.0671 25.1915 24.9639 24.7849C24.4258 22.1825 26.0848 20.7187 26.9816 20.3121C26.9816 18.035 29.2235 17.4657 30.3444 17.4657C30.8825 14.2128 33.0348 14.2128 34.0437 14.6194Z" fill="black"/>
<path d="M43.4597 14.6194C42.1146 12.0171 39.7606 12.4508 38.7517 12.9929V33.3239C38.7517 33.3239 42.3878 33.014 45.2942 33.9706C47.6203 34.7362 48.9737 36.945 50.8302 35.9836C52.2881 35.2287 52.5398 33.3239 52.5398 33.3239C54.961 32.6732 54.4451 30.0709 53.8845 28.8511C54.961 26.574 53.4366 25.1915 52.5398 24.7849C53.0778 22.1825 51.4185 20.7187 50.5217 20.3121C50.5217 18.035 48.2799 17.4657 47.159 17.4657C46.6209 14.2128 44.4686 14.2128 43.4597 14.6194Z" fill="black"/>
<path d="M31.7986 21.1372C30.4935 23.1175 27.5709 26.8762 27.6828 31.1009C27.8227 36.3817 29.9997 35.9754 30.6989 35.4804C31.6626 34.798 32.9324 32.091 31.9571 32.091C30.6305 32.091 31.3877 35.8312 33.8321 35.7216C36.0695 35.6213 37.5615 31.9575 36.2348 31.9575C35.1161 31.9575 35.9543 35.8866 38.7512 35.8866C41.5481 35.8866 42.4982 32.256 41.1034 32.256C39.7085 32.256 41.7188 35.8866 43.6207 35.8866C45.5749 35.8866 46.664 32.256 45.5453 32.256C43.9143 32.256 45.0177 36.6884 48.1883 35.8866C50.7983 35.2265 50.9523 27.8844 45.5454 21.1372" stroke="black"/>
<path d="M38.7517 60.3922C40.9753 60.3922 42.7779 59.4909 42.7779 58.3791C42.7779 57.2673 40.9753 56.366 38.7517 56.366C36.5282 56.366 34.7256 57.2673 34.7256 58.3791C34.7256 59.4909 36.5282 60.3922 38.7517 60.3922Z" fill="black"/>
<path d="M39.0032 60.3922V62.4052" stroke="black"/>
<path d="M41.2681 61.3987C41.0164 61.9019 40.1609 62.6568 38.7517 62.6568" stroke="black"/>
<path d="M36.2354 61.3987C36.487 61.9019 37.3425 62.6568 38.7517 62.6568" stroke="black"/>
<path d="M32.2093 44.7909C33.0431 44.7909 33.7191 44.1149 33.7191 43.281C33.7191 42.4472 33.0431 41.7712 32.2093 41.7712C31.3754 41.7712 30.6995 42.4472 30.6995 43.281C30.6995 44.1149 31.3754 44.7909 32.2093 44.7909Z" fill="black"/>
<path d="M45.2942 44.7909C46.1281 44.7909 46.804 44.1149 46.804 43.281C46.804 42.4472 46.1281 41.7712 45.2942 41.7712C44.4604 41.7712 43.7844 42.4472 43.7844 43.281C43.7844 44.1149 44.4604 44.7909 45.2942 44.7909Z" fill="black"/>
<path d="M29.6927 37.9967C32.9136 37.5941 34.7254 38.8355 35.2286 39.5065C37.0404 41.7209 35.9835 42.5261 35.2286 41.7712C34.6247 41.3686 32.6284 42.61 31.7058 43.281V42.5261C30.4979 42.5261 28.8539 44.0359 28.1829 44.7908C28.1829 44.3882 28.6861 43.4488 28.9378 43.0294C28.3339 42.6268 25.4988 43.3649 24.1567 43.7843C24.358 41.9725 26.757 41.1841 27.9312 41.0163L26.4214 40.0098C27.428 39.0032 29.8604 39.2549 30.9509 39.5065L29.6927 37.9967Z" fill="#45484B" stroke="black"/>
<path d="M47.8044 37.9967C44.5835 37.5941 42.7717 38.8355 42.2684 39.5065C40.4567 41.7209 41.5135 42.5261 42.2684 41.7712C42.8724 41.3686 44.8687 42.61 45.7913 43.281V42.5261C46.9992 42.5261 48.6432 44.0359 49.3142 44.7908C49.3142 44.3882 48.8109 43.4488 48.5593 43.0294C49.1632 42.6268 51.9982 43.3649 53.3404 43.7843C53.1391 41.9725 50.74 41.1841 49.5658 41.0163L51.0757 40.0098C50.0691 39.0032 47.6366 39.2549 46.5462 39.5065L47.8044 37.9967Z" fill="#45484B" stroke="black"/>
</svg>
